<?xml version="1.0" encoding="UTF-8" standalone="no"?>
<svg
   xmlns:dc="http://purl.org/dc/elements/1.1/"
   xmlns:cc="http://creativecommons.org/ns#"
   xmlns:rdf="http://www.w3.org/1999/02/22-rdf-syntax-ns#"
   xmlns:svg="http://www.w3.org/2000/svg"
   xmlns="http://www.w3.org/2000/svg"
   viewBox="0 0 1183.825 123.9"
   height="123.9"
   width="1183.825"
   xml:space="preserve"
   version="1.1"
   id="svg2">
 <a xmlns="http://www.w3.org/2000/svg" id="anchor" xlink:href="https://www.bernerzeitung.ch/schweiz/standard/Der-Vernetzer-des-Volkes/story/24497358" xmlns:xlink="http://www.w3.org/1999/xlink" target="_blank">

   <metadata
     id="metadata8">
     <rdf:RDF>
       <cc:Work rdf:about="">
         <dc:format>image/svg+xml</dc:format>
         <dc:type rdf:resource="http://purl.org/dc/dcmitype/StillImage" />
       </cc:Work>
     </rdf:RDF>
   </metadata>
   <defs id="defs6" />
   <g transform="matrix(1.25,0,0,-1.25,0,123.9)" id="g10">
     <g transform="scale(0.1,0.1)" id="g12">
       <path
         id="path14"
         style="fill:#231f20;fill-opacity:1;fill-rule:nonzero;stroke:none"
         d="m 2814.94,317.969 -1.16,-4.61 C 2784.55,197.129 2764.6,131.563 2743.94,96.125 2722.98,61.0742 2704.35,55.3438 2669.72,54.9609 l -168.77,0 0,354.2971 71.47,0 c 23.41,-0.195 38.65,-7.305 52.63,-29.551 13.89,-22.422 24.9,-60.703 34.71,-120.547 l 0.86,-5.039 33,0 0,347.149 -33,0 -0.86,-5.079 c -9.81,-59.843 -20.82,-98.066 -34.71,-120.546 -13.98,-22.09 -29.22,-29.297 -52.63,-29.493 l -71.47,0 0,325.176 190.63,-0.078 c 24.37,-0.547 36.15,-2.207 52.73,-30.41 16.33,-28.789 33.83,-84.895 60.52,-189.883 l 1.18,-4.59 32.64,0 0,261.77 -516.58,0 0,-36.887 59.6,0 0,-716.2891 -59.6,0 0,-36.9336 525.48,0 0,299.9417 -32.61,0" />
         <path
         id="path16"
         style="fill:#231f20;fill-opacity:1;fill-rule:nonzero;stroke:none"
         d="M 3470.32,54.9023 3241.23,414.609 c 138.37,12.571 214.33,90.059 213.91,199.7 0,50.027 -15.04,98.789 -51.92,134.91 -36.9,36.015 -95.09,58.965 -179.49,58.867 l -295.08,0 0,-36.797 59.56,0 0,-716.3867 -59.56,0 0,-36.8359 254.47,0 0,36.8359 -75.45,0 0,350.4107 246.8,-387.2466 167.21,0 0,36.8359 -51.36,0 z m -362.65,716.3867 84.28,0 c 105.17,-0.332 137.32,-79.59 137.95,-156.98 -0.8,-109.067 -54.03,-169.668 -169.67,-170.442 l -52.56,0 0,327.422" />
         <path
         id="path18"
         style="fill:#231f20;fill-opacity:1;fill-rule:nonzero;stroke:none"
         d="m 3940.46,808.137 0,-36.887 79.44,0 0,-510.43 -284.24,547.317 -200.38,0 0,-36.887 65.54,0 0,-716.2891 -65.54,0 0,-36.9336 188.89,0 0,36.9336 -83.41,0 0,679.0431 375.52,-715.9767 43.56,0 0,753.2227 65.55,0 0,36.887 -184.93,0" />
         <path
         id="path20"
         style="fill:#231f20;fill-opacity:1;fill-rule:nonzero;stroke:none"
         d="m 4671.64,317.922 -1.14,-4.563 C 4641.32,197.09 4621.37,131.563 4600.66,96.0742 4579.68,61.0352 4561.05,55.293 4526.48,54.9023 l -168.73,0 0,354.4067 71.41,0 c 23.39,-0.286 38.65,-7.356 52.65,-29.602 13.85,-22.422 24.85,-60.703 34.67,-120.547 l 0.84,-5.039 33.01,0 0,347.09 -33.01,0 -0.84,-5.02 c -9.82,-59.843 -20.82,-98.117 -34.67,-120.449 -14,-22.246 -29.26,-29.394 -52.65,-29.648 l -71.41,0 0,325.195 190.55,-0.098 c 24.41,-0.488 36.13,-2.148 52.87,-30.39 16.22,-28.75 33.67,-84.903 60.37,-189.895 l 1.19,-4.453 32.62,0 0,261.633 -516.59,0 0,-36.895 59.53,0 0,-716.2887 -59.53,0 0,-36.875 525.55,0 0,299.8947 -32.67,0" />
         <path
         id="path22"
         style="fill:#231f20;fill-opacity:1;fill-rule:nonzero;stroke:none"
         d="m 5327.12,54.8633 -229.1,359.7457 c 138.38,12.618 214.35,90.059 213.97,199.7 0,50.125 -15.08,98.789 -51.99,134.863 -36.88,36.141 -95.06,59.012 -179.48,59.012 l -295.03,0 0,-36.934 59.51,0 0,-716.3867 -59.51,0 0,-36.7969 254.43,0 0,36.7969 -75.45,0 0,350.4027 246.79,-387.1996 167.27,0 0,36.7969 -51.41,0 z M 5186.69,614.309 C 5185.8,505.242 5132.68,444.641 5016.92,443.867 l -52.45,0 0,327.383 84.22,0 c 105.29,-0.293 137.3,-79.551 138,-156.941" />
         <path
         id="path24"
         style="fill:#231f20;fill-opacity:1;fill-rule:nonzero;stroke:none"
         d="M 6716.71,313.32 C 6687.48,197.18 6667.49,131.563 6646.79,96.1719 6625.84,61.0352 6607.15,55.293 6572.62,54.9023 l -168.72,0 0,354.4067 71.42,0 c 23.42,-0.286 38.59,-7.407 52.72,-29.653 13.86,-22.332 24.87,-60.601 34.63,-120.496 l 0.77,-5.078 33.2,0 0,347.227 -33.2,0 -0.77,-5.157 c -9.76,-59.804 -20.77,-98.078 -34.63,-120.41 -14.13,-22.246 -29.3,-29.355 -52.72,-29.648 l -71.42,0 0,325.195 190.57,0 c 24.44,-0.625 36.2,-2.246 52.79,-30.488 16.22,-28.797 33.7,-84.805 60.52,-189.785 l 1.15,-4.563 32.52,0 0,261.633 -516.41,0 0,-36.797 59.46,0 0,-716.3867 -59.46,0 0,-36.7968 525.53,0 0,299.8165 -32.63,0 -1.23,-4.602 z m 115.88,457.969 59.57,0 0,-716.3867 -59.57,0 0,-36.7968 238.55,0 0,36.7968 -59.66,0 0,716.3867 59.66,0 0,36.797 -238.55,0 0,-36.797 z m 290.91,36.797 0,-259.402 32.9,0 0.86,4.929 c 20.39,105.469 33.4,161.133 46.39,189.121 13.46,27.559 22.01,27.743 44.01,28.555 l 58.6,0 0,-716.3867 -74.55,0 0,-36.7968 268.34,0 0,36.7968 -74.56,0 0,716.3867 58.62,0 c 22.09,-0.812 30.55,-0.996 44.09,-28.555 12.89,-27.988 25.9,-83.652 46.19,-189.121 l 0.96,-4.929 33.01,0 0,259.402 -484.86,0" />
         <path
         id="path26"
         style="fill:#231f20;fill-opacity:1;fill-rule:nonzero;stroke:none"
         d="m 8017.05,771.289 89.33,0 0,-551.582 C 8106,104.988 8042.45,37.1289 7951.69,36.9414 7892.13,37.4219 7827.25,76.6328 7826.6,211.824 l 0,559.465 71.5,0 0,36.797 -250.38,0 0,-36.797 59.54,0 0,-533.613 c 0,-78.379 18.52,-138.1838 58.64,-178.2229 C 7805.91,19.3359 7866.32,0 7947.7,0 l 0.2,0 c 59.34,0 109.33,21.1992 144.17,59.3633 34.81,38.1758 54.25,92.8637 54.25,159.1597 l 0,552.766 59.64,0 0,36.797 -188.91,0 0,-36.797 z m 654.32,0 79.42,0 0,-510.422 -284.28,547.219 -200.31,0 0,-36.797 65.55,0 0,-716.3867 -65.55,0 0,-36.8359 188.83,0 0,36.8359 -83.36,0 0,679.1607 375.6,-715.9966 43.41,0 0,753.2226 65.56,0 0,36.797 -184.87,0 0,-36.797 z m 530.87,-401.641 0,-36.789 105.27,0 0,-207.566 c -0.1,-42.3438 -40.7,-88.2617 -104.15,-88.3516 -58.97,0.2774 -99.29,17.2578 -127.54,72.2186 -28.08,55.293 -42.29,150.281 -42.22,303.938 0,137.293 13.57,232.183 42.49,291.746 29.13,59.328 71.89,84.082 135.15,84.367 43.35,-0.195 71.89,-18.547 96.93,-58.137 24.94,-39.656 44.75,-100.547 67.18,-182.39 l 1.13,-4.512 32.52,0 0,232.516 -3.52,1.554 c -61.74,29.461 -113.61,47.91 -181.32,47.91 -95.04,0 -176.99,-42.343 -234.66,-115.195 -57.59,-72.832 -91.04,-175.898 -91.04,-297.859 0,-147.051 33.86,-250.305 90.09,-317.0238 C 9044.79,29.3555 9123.03,0 9209.36,0 c 88.77,0.0898438 168.92,29.5313 214.9,60.7031 l 2.57,1.836 0,270.3199 43.72,0 0,36.789 -268.31,0" />
         <path
         id="path28"
         style="fill:#231f20;fill-opacity:1;fill-rule:nonzero;stroke:none"
         d="m 6015.72,956.184 -235.9,0 c -98.69,0 -112.87,-44.856 -155.12,-270.676 l -30.78,0 0,305.722 585.96,0 -456.51,-936.687 246.18,0 c 117.94,0 121.82,49.031 178.27,322.508 l 28.16,0 0,-358.9455 -618.02,0 457.76,938.0785" />
         <path
         id="path30"
         style="fill:#231f20;fill-opacity:1;fill-rule:nonzero;stroke:none"
         d="m 1838.96,991.23 c 100.08,0 182.02,0 250.02,-35.046 78.15,-42.063 123.01,-116.379 123.01,-197.746 0,-121.973 -83.3,-200.567 -238.39,-221.524 187.13,-15.461 288.43,-110.82 288.43,-248.262 0,-95.371 -44.86,-173.839 -129.47,-222.8707 -69.23,-40.7032 -164.13,-47.7149 -288.42,-47.7149 l -275.67,0 0,35.0859 78.19,0 0,903.0317 -78.19,0 0,35.046 270.49,0 z m -55.15,-443.164 41.08,0 c 165.41,0 247.45,68.75 247.45,209.043 0,159.856 -75.65,199.075 -238.5,199.075 l -50.03,0 0,-408.118 z m 0,-494.9137 74.42,0 c 174.32,0 261.53,50.4217 261.53,239.7777 0,171.054 -100.06,220.086 -292.37,220.086 l -43.58,0 0,-459.8637" />
         <path
         id="path32"
         style="fill:#b00e2f;fill-opacity:1;fill-rule:nonzero;stroke:none"
         d="m 477.93,538.723 c 88.492,29.265 168.215,97.547 168.019,223.875 0,66.347 -27.363,124.343 -75.734,164.707 -48.367,40.644 -117.133,63.925 -199.598,63.925 l -370.617,0 0,-53.925 75.2539,0 0,-865.3128 -75.2539,0 0,-53.9258 319.254,0 c 131.508,0 228.621,29.8242 293.398,80.5274 64.879,50.6832 96.129,122.4412 95.938,201.6402 0.387,119.551 -83.606,208.797 -230.66,238.489 m -243.473,398.582 103.625,0 c 46.715,-0.196 80.516,-13.36 103.996,-41.731 23.52,-28.543 37.235,-74.781 37.141,-142.597 0,-75.262 -16.942,-124.11 -47.055,-154.227 -30.07,-30.203 -75.641,-43.809 -138.098,-43.906 l -59.609,0 0,382.461 z M 470.859,121.777 C 431.879,87.3906 370.141,71.8945 281.547,71.9922 l -47.09,0 0,429.0818 99.824,0 c 70.145,0 118.176,-14.277 148.723,-45.066 30.586,-30.813 46.375,-80.988 46.375,-158.528 -0.086,-86.328 -19.582,-141.417 -58.52,-175.703 M 1265.48,383.359 C 1237.4,234.836 1215.5,155.02 1192.36,114.813 1168.83,75.5859 1149.91,72.832 1110.31,71.9922 l -213.49,0 428.99,919.1408 -587.388,0 0,-328.164 49.23,0 1.844,9.629 c 23.613,124.394 43.113,192.39 65.262,226.679 22.137,33.282 43.344,37.364 86.164,38.028 l 184.708,0 -407.314,-882.8245 0,-36.4141 598.244,0 0,374.8636 -49.32,0 -1.76,-9.571" />
       </g>
     </g>
     <rect x="0" y="0" width="100%" height="100%" fill-opacity="0"/>
 </a>
</svg>
