<?xml version="1.0" encoding="utf-8"?>
<svg version="1.1" id="Ebene_1" xmlns="http://www.w3.org/2000/svg" xmlns:xlink="http://www.w3.org/1999/xlink" x="0px" y="0px"
	 viewBox="0 0 309.8 75.5" xml:space="preserve">
<a xmlns="http://www.w3.org/2000/svg" id="anchor" xlink:href="/assets/files/edito_artikel_20016-03.pdf" xmlns:xlink="http://www.w3.org/1999/xlink" target="_blank">
	<path d="M58.2,54.1c0,0-4.7,13.2-9,15.7c-7.5,0-19.3,0-27.3-0.8V38h18.8l2.9,11.7c0,0,0.7,0.3,1.9,0.3c1.1,0,1.9-0.2,1.9-0.2
		s-0.1-8.9-0.1-13.4c0-4.5,0.1-13.2,0.1-13.2S46.7,23,45.6,23c-1.2,0-1.9,0-1.9,0l-2.9,10H22V5.2c8-0.9,16.4-0.9,23.9-0.9
		c4.6,2.6,9.4,15.8,9.4,15.8c1.2,0.2,2.5,0.1,3.6-0.1L56.4,0c-8.6,0-38.6,0.1-40.9,0.1C11,0.1,0.1,0,0.1,0S0,1.5,0,2.1
		c0,1.1,0.1,1.8,0.1,1.8L9,5.1v63.9l-8.9,1.2C0.1,70.3,0,71,0,72c0,0.8,0.1,2.2,0.1,2.2s10.9-0.1,15.4-0.1c2.3,0,35.4,0.1,43.8,0.1
		l2.6-20.1C60.6,53.9,59.5,53.9,58.2,54.1z"/>
	<path d="M100.6,6.7c-6.1,0-12.8,0.1-18.7,0.2c-4.3,0-13.9-0.2-13.9-0.2s-0.2,0.7-0.2,1.7c0,0.9,0.1,1.8,0.1,1.8l8,1.1v58.1l-8,1.1
		c0,0-0.1,0.9-0.1,1.8c0,0.8,0.2,1.7,0.2,1.7s9.8-0.1,13.9-0.1c9.8,0.1,13.2,0.7,16.8,0.7c24.7,0,41.5-11.6,41.5-34.8
		C140.3,16.2,124,6.7,100.6,6.7z M99,71.1c-8,0-11-1.6-11-1.9V11.4c3-0.4,6.4-0.6,12.3-0.6c15.7,0,27,6.6,27,29.9
		C127.3,63,118.5,71.1,99,71.1z"/>
	<path d="M163,69.5V11.4l8.2-1.1c0,0,0.1-0.9,0.1-1.9c0-0.8-0.1-1.6-0.1-1.6s-9.9,0.1-14.2,0.1c-4.1,0-14-0.1-14-0.1
		S143,7.7,143,8.4c0,1,0.1,1.9,0.1,1.9l8,1.1v58.1l-8,1.1c0,0-0.1,0.9-0.1,1.8c0,0.8,0.1,1.7,0.1,1.7s9.9-0.1,14-0.1
		c4.1,0,14.4,0.1,14.4,0.1s0.2-0.9,0.2-1.7c0-0.9-0.1-1.8-0.1-1.8L163,69.5z"/>
	<path d="M206.2,6.9c-3.4,0-13.6-0.2-28-0.2L176.9,25c1.2,0.2,2.1,0.2,3.3,0c0,0,3.2-12.4,7.1-14.7c7.2,0,12.7,0.2,12.7,0.2v59
		l-9.5,1.1c0,0,0,0.9,0,1.8c0,0.8,0.2,1.7,0.2,1.7s11.5-0.1,15.5-0.1c4.1,0,16.2,0.1,16.2,0.1s0.2-0.9,0.2-1.7
		c0-0.9-0.2-1.8-0.2-1.8L212,69.5v-59c0,0,5.9-0.2,12.7-0.2c4.3,2.2,7.6,14.8,7.6,14.8c1.1,0.2,2.3,0.1,3.3-0.1l-1.3-18.3
		C226.5,6.7,211.6,6.9,206.2,6.9z"/>
	<path d="M275.6,5.7c-19.3,0-36.1,14.6-36.1,35.6c0,20.6,13.9,34.2,34.3,34.2c19.3,0,36.1-14.4,36.1-35.4
		C309.8,19.5,296,5.7,275.6,5.7z M274,71.6c-13.1,0-21.6-8.5-21.6-30.9c0-22.2,7.3-30.9,22.8-30.9c12.2,0,21.6,7.7,21.6,31.1
		C296.9,61.8,291.3,71.6,274,71.6z"/>
  <rect x="0" y="0" width="100%" height="100%" fill-opacity="0"/>
</a>
</svg>
