<?xml version="1.0" encoding="utf-8"?>
<svg version="1.1" id="Vrstva_1" xmlns="http://www.w3.org/2000/svg" xmlns:xlink="http://www.w3.org/1999/xlink" x="0px" y="0px"
	 viewBox="0 0 123.6 123.3" enable-background="new 0 0 123.6 123.3" xml:space="preserve">
<a xmlns="http://www.w3.org/2000/svg" id="anchor" xlink:href="https://zurich.impacthub.ch/de/program/impact-hub-fellowship-ict4good-2nd-edition/" target="_blank">
  <rect id="linkrect" x="0" y="0" width="100%" height="100%" fill-opacity="0" stroke-width="0"/>
	<rect x="2.2" y="1.8" fill="none" stroke="#000000" stroke-width="3" stroke-miterlimit="10" width="119.1" height="119.1"/>
	<g>
		<path d="M16.7,100.6V70.2h6.5v11.6h12.2V70.2H42v30.5h-6.5V87H23.3v13.6H16.7z"/>
		<path d="M48.3,70.2H55v18.7c0,2.1,0.3,3.6,0.8,4.6c0.8,1.7,2.5,2.6,5.2,2.6c2.6,0,4.4-0.9,5.2-2.6c0.5-1,0.8-2.5,0.8-4.6V70.2h6.7
			v18.7c0,3.2-0.5,5.8-1.6,7.6c-1.9,3.3-5.6,5-11,5c-5.4,0-9.1-1.7-11.1-5c-1-1.8-1.6-4.3-1.6-7.6V70.2z"/>
		<path d="M103.3,73.4c1,1.3,1.4,2.8,1.4,4.6c0,1.9-0.5,3.4-1.5,4.5c-0.5,0.6-1.3,1.2-2.4,1.7c1.6,0.6,2.8,1.5,3.6,2.7
			c0.8,1.2,1.2,2.7,1.2,4.5c0,1.8-0.5,3.4-1.4,4.9c-0.6,1-1.3,1.7-2.2,2.4c-1,0.7-2.2,1.3-3.6,1.5c-1.4,0.3-2.8,0.4-4.4,0.4H79.9
			V70.2h15.2C99,70.2,101.7,71.3,103.3,73.4z M86.2,75.5v6.7h7.6c1.4,0,2.5-0.3,3.3-0.8c0.9-0.5,1.3-1.4,1.3-2.7
			c0-1.4-0.6-2.4-1.7-2.8c-1-0.3-2.2-0.5-3.7-0.5H86.2z M86.2,87.2v8.1h7.6c1.4,0,2.4-0.2,3.2-0.5c1.4-0.7,2.1-1.9,2.1-3.8
			c0-1.6-0.7-2.7-2-3.3c-0.7-0.3-1.8-0.5-3.1-0.5H86.2z"/>
	</g>
	<g>
		<path d="M20.5,62.4h-3.6V47h3.6V62.4z"/>
		<path d="M35.5,47h5.3v15.4h-3.4V52c0-0.3,0-0.7,0-1.3c0-0.5,0-1,0-1.2l-3.3,12.9h-3.6l-3.3-12.9c0,0.3,0,0.7,0,1.2
			c0,0.5,0,1,0,1.3v10.4h-3.4V47h5.3l3.2,12.1L35.5,47z"/>
		<path d="M55.9,55.8c-1,0.8-2.5,1.1-4.4,1.1h-3.6v5.5h-3.6V47h7.5c1.7,0,3.1,0.4,4.1,1.2s1.5,2,1.5,3.7
			C57.4,53.7,56.9,55,55.9,55.8z M53.1,50.2c-0.5-0.3-1.1-0.5-1.9-0.5h-3.3v4.5h3.3c0.8,0,1.5-0.2,1.9-0.6c0.5-0.4,0.7-1,0.7-1.8
			S53.6,50.6,53.1,50.2z"/>
		<path d="M63.6,47h4.1l6.2,15.4h-4l-1.2-3.2h-6.4l-1.2,3.2h-3.8L63.6,47z M63.3,56.6h4.5l-2.2-6.1L63.3,56.6z"/>
		<path d="M77.8,48.6c1.4-1.3,3.2-1.9,5.4-1.9c2.9,0,5,0.8,6.4,2.5c0.7,1,1.1,1.9,1.2,2.9h-3.7c-0.2-0.7-0.5-1.3-0.9-1.7
			c-0.7-0.7-1.6-1-2.9-1c-1.3,0-2.3,0.5-3.1,1.4c-0.8,0.9-1.1,2.3-1.1,4c0,1.7,0.4,3,1.2,3.9c0.8,0.9,1.8,1.3,3,1.3
			c1.3,0,2.2-0.4,2.9-1.1c0.4-0.4,0.7-1,0.9-1.8h3.6c-0.3,1.7-1.1,3-2.4,4.1c-1.3,1.1-2.9,1.6-4.9,1.6c-2.5,0-4.4-0.7-5.9-2.1
			c-1.4-1.4-2.1-3.4-2.1-5.9C75.4,52.2,76.2,50.1,77.8,48.6z"/>
		<path d="M106.4,47v2.7h-5.2v12.7h-3.7V49.8h-5.3V47H106.4z"/>
	</g>
</a>
</svg>
