<?xml version="1.0" encoding="UTF-8" ?>
<!DOCTYPE svg PUBLIC "-//W3C//DTD SVG 1.1//EN" "http://www.w3.org/Graphics/SVG/1.1/DTD/svg11.dtd">
<svg width="500pt" height="124pt" viewBox="0 0 500 124" version="1.1" xmlns="http://www.w3.org/2000/svg">
    <path fill="#ffffff" d=" M 0.00 0.00 L 500.00 0.00 L 500.00 124.00 L 0.00 124.00 L 0.00 0.00 Z" />
    <path fill="#999999" d=" M 136.27 10.28 C 142.19 9.80 148.13 9.93 154.05 10.01 C 158.48 9.98 163.01 11.72 165.79 15.25 C 169.48 19.87 170.26 26.14 169.60 31.85 C 169.05 36.75 166.56 41.65 162.18 44.17 C 158.24 46.59 153.45 46.56 148.99 46.54 C 144.77 46.49 140.54 46.62 136.32 46.28 C 137.57 45.54 138.88 44.95 140.25 44.50 C 141.32 39.07 140.74 33.51 140.87 28.02 C 140.76 22.70 141.27 17.33 140.29 12.07 C 138.91 11.55 137.55 11.01 136.27 10.28 Z" />
    <path fill="#ffffff" d=" M 148.48 44.77 C 148.48 33.72 148.47 22.68 148.49 11.64 C 152.90 11.51 158.59 12.05 160.14 17.04 C 162.30 24.37 162.36 32.64 159.95 39.92 C 158.36 44.84 152.77 45.02 148.48 44.77 Z" />
    <path fill="#999999" d=" M 176.52 24.50 C 180.07 19.47 188.04 18.49 192.88 22.16 C 196.35 24.93 196.68 29.65 197.12 33.73 C 191.88 33.75 186.64 33.75 181.40 33.75 C 181.68 36.87 181.37 40.23 182.87 43.09 C 185.05 46.95 191.51 46.00 193.05 42.03 C 194.10 40.34 193.93 37.24 196.71 37.38 C 195.96 40.32 195.22 43.67 192.51 45.47 C 187.13 49.10 178.51 47.45 175.63 41.37 C 173.11 36.13 173.21 29.38 176.52 24.50 Z" />
    <path fill="#999999" d=" M 199.38 20.98 C 203.05 20.81 206.72 20.72 210.37 20.20 C 210.31 22.07 210.24 23.94 210.17 25.81 C 211.59 23.97 212.74 21.61 215.06 20.74 C 217.69 19.62 221.73 20.87 221.87 24.12 C 222.45 26.86 219.62 28.98 217.08 28.26 C 214.71 28.04 214.83 25.05 214.01 23.43 C 212.78 24.80 211.45 26.24 211.14 28.13 C 210.16 33.59 210.60 39.19 210.88 44.69 C 212.48 44.94 214.07 45.21 215.67 45.52 C 210.79 47.68 205.15 46.01 199.96 46.50 L 199.99 45.08 C 200.79 45.02 202.41 44.91 203.21 44.86 C 203.77 37.51 203.90 30.07 203.17 22.74 C 201.74 22.48 200.48 21.90 199.38 20.98 Z" />
    <path fill="#ffffff" d=" M 182.70 23.67 C 183.62 21.38 187.42 21.04 188.37 23.47 C 189.50 26.23 189.22 29.31 189.42 32.23 C 186.74 32.23 184.06 32.23 181.39 32.23 C 181.67 29.38 181.47 26.34 182.70 23.67 Z" />
    <path fill="#264a86" d=" M 235.03 28.77 C 242.66 28.77 250.30 28.77 257.95 28.77 C 257.94 52.85 257.95 76.94 257.94 101.03 C 258.12 103.50 257.77 106.44 259.57 108.41 C 261.38 109.46 263.64 109.01 265.65 109.23 C 265.64 110.29 265.63 111.34 265.62 112.40 C 258.16 112.40 250.69 112.40 243.23 112.40 C 243.22 109.58 243.21 106.77 243.29 103.95 C 239.58 115.26 223.34 117.44 215.26 109.68 C 210.94 105.56 208.65 99.77 207.48 94.02 C 205.97 86.02 206.24 77.61 208.60 69.80 C 210.45 63.75 214.33 57.75 220.52 55.52 C 225.61 53.76 231.62 53.89 236.31 56.73 C 239.09 58.37 240.87 61.14 242.66 63.72 C 242.46 54.87 242.72 46.00 242.54 37.15 C 242.35 35.51 242.48 33.18 240.64 32.44 C 238.80 31.92 236.87 32.02 234.99 31.87 C 235.00 31.10 235.02 29.54 235.03 28.77 Z" />
    <path fill="#264a86" d=" M 269.26 28.77 C 276.93 28.76 284.61 28.77 292.28 28.77 C 292.24 40.43 292.38 52.09 292.21 63.75 C 294.21 60.68 296.48 57.52 299.94 55.97 C 307.05 52.78 316.41 54.32 321.40 60.56 C 326.75 67.06 328.18 75.83 328.32 84.01 C 328.28 92.67 326.52 101.98 320.62 108.65 C 315.12 114.96 305.14 115.76 298.02 111.92 C 294.85 110.27 293.03 107.08 291.58 103.97 C 291.66 106.78 291.66 109.59 291.65 112.40 C 284.19 112.40 276.72 112.40 269.26 112.40 C 269.25 111.61 269.24 110.03 269.23 109.24 C 271.27 109.02 273.53 109.44 275.38 108.40 C 277.00 106.34 276.80 103.55 276.93 101.09 C 276.93 80.73 276.90 60.38 276.94 40.02 C 276.71 37.60 277.38 34.55 275.47 32.67 C 273.51 31.80 271.29 32.07 269.22 31.88 C 269.23 31.10 269.25 29.55 269.26 28.77 Z" />
    <path fill="#264a86" d=" M 10.01 32.46 C 20.95 32.47 31.90 32.47 42.84 32.47 C 42.85 33.51 42.87 34.55 42.88 35.60 C 40.53 35.95 37.11 35.17 35.89 37.84 C 34.74 40.74 34.91 43.94 34.77 47.00 C 34.71 67.49 34.76 87.98 34.75 108.46 C 42.48 108.07 50.89 109.82 58.01 105.99 C 63.25 103.03 64.75 96.69 65.35 91.15 C 66.67 91.16 67.98 91.17 69.30 91.18 C 69.29 98.25 69.30 105.32 69.30 112.40 C 49.53 112.40 29.77 112.40 10.00 112.40 C 10.00 111.61 10.00 110.04 10.00 109.25 C 12.35 108.91 15.88 109.76 17.00 106.98 C 18.18 103.80 17.95 100.31 18.08 96.97 C 18.11 80.32 18.13 63.67 18.07 47.02 C 17.88 43.81 18.20 40.35 16.71 37.40 C 15.26 35.21 12.21 35.97 9.99 35.60 C 10.00 34.56 10.00 33.51 10.01 32.46 Z" />
    <path fill="#264a86" d=" M 415.97 34.61 C 416.75 34.61 418.31 34.60 419.09 34.60 C 419.08 41.79 419.08 48.98 419.09 56.17 C 422.82 56.17 426.55 56.17 430.29 56.17 C 430.28 57.25 430.28 58.32 430.28 59.40 C 426.55 59.40 422.81 59.40 419.09 59.40 C 419.08 71.93 419.09 84.46 419.08 97.00 C 419.17 99.67 419.03 102.49 420.12 105.00 C 421.30 107.84 425.95 108.07 427.45 105.40 C 429.14 102.43 428.63 98.84 428.86 95.57 C 430.21 95.57 431.55 95.57 432.91 95.57 C 432.88 101.59 432.72 109.38 426.61 112.60 C 421.03 115.13 413.84 114.85 408.80 111.20 C 405.07 108.36 403.63 103.50 403.72 98.98 C 403.71 85.78 403.73 72.59 403.72 59.40 C 401.24 59.39 398.76 59.40 396.28 59.40 C 396.26 58.39 396.24 57.38 396.23 56.36 C 407.20 55.03 413.53 44.42 415.97 34.61 Z" />
    <path fill="#264a86" d=" M 137.11 56.16 C 144.68 56.20 152.38 56.58 159.74 54.43 C 159.73 57.79 159.73 61.15 159.70 64.51 C 162.39 60.99 165.38 57.36 169.66 55.75 C 174.98 53.76 181.35 53.75 186.33 56.70 C 190.83 59.44 192.77 64.89 192.77 69.96 C 192.83 80.31 192.76 90.66 192.77 101.01 C 192.87 103.18 192.74 105.48 193.66 107.50 C 194.75 109.57 197.52 108.89 199.42 109.32 C 199.41 110.09 199.40 111.63 199.39 112.40 C 189.87 112.40 180.35 112.40 170.83 112.40 C 170.82 111.63 170.82 110.09 170.81 109.32 C 172.68 108.87 175.42 109.58 176.52 107.56 C 177.58 105.20 177.36 102.52 177.45 99.99 C 177.38 90.32 177.49 80.65 177.40 70.98 C 177.25 67.82 177.11 63.76 173.95 62.06 C 170.26 60.41 165.38 61.63 163.20 65.12 C 160.93 68.62 160.59 72.94 160.42 77.00 C 160.29 84.67 160.41 92.34 160.35 100.01 C 160.45 102.54 160.19 105.26 161.31 107.62 C 162.46 109.57 165.13 108.90 167.01 109.31 C 167.00 110.08 166.98 111.63 166.97 112.40 C 157.02 112.40 147.07 112.40 137.12 112.40 C 137.12 111.61 137.10 110.02 137.09 109.22 C 139.86 109.11 144.37 109.76 144.67 105.88 C 145.48 93.95 144.77 81.94 145.04 69.97 C 144.85 66.80 145.51 63.23 143.70 60.41 C 141.89 58.93 139.29 59.59 137.12 59.30 C 137.11 58.26 137.11 57.21 137.11 56.16 Z" />
    <path fill="#264a86" d=" M 83.44 59.44 C 88.05 55.72 94.19 54.70 99.95 54.41 C 106.20 54.29 113.01 54.89 118.15 58.82 C 121.57 61.43 123.14 65.79 123.12 69.98 C 123.22 81.02 123.09 92.06 123.15 103.09 C 123.28 104.58 123.09 106.44 124.39 107.50 C 125.67 108.51 127.68 107.72 128.19 106.22 C 129.37 103.24 129.10 99.94 129.29 96.80 C 130.64 96.80 131.99 96.80 133.35 96.80 C 133.12 101.80 133.35 107.70 129.30 111.36 C 122.96 116.45 111.98 114.66 108.39 107.05 C 102.92 114.82 91.23 116.16 83.23 111.77 C 74.32 106.75 73.87 92.83 81.28 86.28 C 88.38 79.80 98.59 78.72 107.80 79.11 C 107.60 73.76 108.32 68.31 107.24 63.03 C 105.87 57.28 97.88 57.16 93.94 60.16 C 92.57 63.03 96.47 65.83 95.70 68.98 C 95.19 75.18 86.57 77.67 82.25 73.63 C 78.28 69.82 79.22 62.71 83.44 59.44 Z" />
    <path fill="#264a86" d=" M 354.41 55.65 C 363.17 53.10 373.62 54.19 380.54 60.55 C 386.55 65.94 389.13 74.16 389.48 82.02 C 389.88 90.78 387.97 100.22 381.80 106.79 C 374.36 114.75 361.72 116.08 351.97 112.00 C 344.24 108.73 339.27 100.96 337.74 92.91 C 336.11 84.47 336.61 75.32 340.52 67.55 C 343.33 61.96 348.40 57.50 354.41 55.65 Z" />
    <path fill="#264a86" d=" M 444.06 66.04 C 447.62 59.94 454.04 55.67 461.04 54.75 C 468.72 53.61 477.56 54.89 483.02 60.91 C 488.77 67.25 489.83 76.23 490.07 84.43 C 478.77 84.43 467.48 84.43 456.18 84.43 C 456.33 91.31 455.78 98.69 459.17 104.94 C 462.88 111.52 472.77 111.79 478.11 107.11 C 482.30 103.70 483.86 98.23 484.39 93.06 C 485.94 93.08 487.48 93.11 489.04 93.14 C 488.15 99.59 485.77 106.39 480.15 110.21 C 473.01 115.03 463.42 115.25 455.50 112.35 C 447.37 109.29 442.03 101.33 440.45 93.02 C 438.71 84.00 439.33 74.09 444.06 66.04 Z" />
    <path fill="#ffffff" d=" M 360.52 58.67 C 363.49 57.83 367.15 58.33 369.15 60.89 C 371.61 64.00 372.32 68.07 372.87 71.90 C 373.74 79.22 373.70 86.62 373.23 93.96 C 372.80 98.39 372.40 103.10 369.93 106.94 C 367.00 111.54 359.04 111.42 356.30 106.67 C 353.69 102.27 353.41 96.97 353.06 91.99 C 352.79 83.72 352.54 75.31 354.40 67.19 C 355.25 63.77 356.84 59.81 360.52 58.67 Z" />
    <path fill="#ffffff" d=" M 459.01 62.01 C 461.18 57.67 468.39 56.81 470.86 61.31 C 474.01 67.40 473.08 74.57 473.38 81.19 C 467.64 81.20 461.91 81.19 456.17 81.20 C 456.41 74.77 455.88 67.87 459.01 62.01 Z" />
    <path fill="#ffffff" d=" M 229.36 60.35 C 233.21 58.97 237.37 61.52 239.04 65.00 C 242.05 70.83 242.19 77.59 242.27 84.00 C 242.13 90.70 242.05 97.80 238.84 103.87 C 237.23 107.02 233.62 109.31 230.04 108.41 C 226.80 107.19 225.68 103.52 224.81 100.50 C 222.81 91.51 222.91 82.16 223.62 73.03 C 224.29 68.51 224.92 62.79 229.36 60.35 Z" />
    <path fill="#ffffff" d=" M 300.45 60.55 C 303.72 58.94 307.69 60.65 308.96 64.01 C 312.12 71.22 311.64 79.36 311.62 87.06 C 311.23 93.62 311.17 100.77 307.45 106.46 C 305.02 109.95 299.62 108.74 297.32 105.72 C 293.82 101.30 293.21 95.40 292.78 89.97 C 292.49 83.07 292.33 76.00 294.13 69.26 C 295.12 65.79 296.90 62.01 300.45 60.55 Z" />
    <path fill="#ffffff" d=" M 98.60 83.61 C 101.42 82.10 104.71 82.34 107.79 82.56 C 107.75 87.71 107.91 92.87 107.75 98.02 C 107.63 101.30 106.72 104.88 104.03 106.99 C 101.16 109.34 96.24 109.16 94.11 105.91 C 91.77 102.41 91.94 97.93 92.41 93.93 C 92.95 89.88 94.75 85.54 98.60 83.61 Z" />
</svg>
