<?xml version="1.0" encoding="utf-8"?>
<!-- Generator: Adobe Illustrator 18.1.0, SVG Export Plug-In . SVG Version: 6.00 Build 0)  -->
<svg version="1.1" id="Ebene_1" xmlns="http://www.w3.org/2000/svg" xmlns:xlink="http://www.w3.org/1999/xlink" x="0px" y="0px"
	 viewBox="0 0 413.8 551.6" enable-background="new 0 0 413.8 551.6" xml:space="preserve">
<polygon points="321.4,290.8 275.5,321.4 137.7,275.5 0,321.4 0,413.2 413.2,413.2 413.2,229.6 "/>
<g>
	<path d="M1.1,532.3l33.5-27.5C47.1,494.5,52,489,52,480.7c0-8.5-5.6-13.1-13.5-13.1c-7.8,0-13.1,4.3-20.6,13.5L2.4,468.6
		c9.9-13.5,19.6-20.9,37.5-20.9c20.9,0,34.7,12.2,34.7,31.1v0.3c0,16.8-8.6,25.2-26.5,39l-16.4,12.7h43.9v19.1H1.1V532.3z"/>
	<path d="M87.4,534.2l15.2-14.5c6.9,7.8,14.1,12.1,24.3,12.1c8.3,0,14.2-4.7,14.2-12.2v-0.3c0-8.2-7.3-12.8-19.7-12.8h-9.2
		l-3.4-14.1l24-24.2H93.3v-19h68v16.7l-25.5,24.3c13.7,2.3,27,9.5,27,28.2v0.3c0,19-13.8,32.9-36.3,32.9
		C108.6,551.6,96.1,544.4,87.4,534.2z"/>
	<path d="M178.3,532.3l33.5-27.5c12.5-10.4,17.4-15.8,17.4-24.2c0-8.5-5.6-13.1-13.5-13.1c-7.8,0-13.1,4.3-20.6,13.5l-15.5-12.5
		c9.9-13.5,19.6-20.9,37.5-20.9c20.9,0,34.7,12.2,34.7,31.1v0.3c0,16.8-8.6,25.2-26.5,39L209,530.7h43.9v19.1h-74.5V532.3z"/>
	<path d="M315.9,528.1h-49.2l-3.6-15.7l55.2-64h18.7v61.7h13.5v18h-13.5v21.7h-21.1V528.1z M315.9,510.2v-31.4l-26.8,31.4H315.9z"/>
	<path d="M400.6,550v-12.4h12.3V550H400.6z"/>
	<path d="M392.5,531.1h-0.2c-11.7,0-21.4-9-21.4-21.6c0-7.8,2.6-12.6,6.9-16.4l7.7,7.1c-2.8,2.6-4.5,5.2-4.5,9.4
		c0,5.8,5.1,10,11.2,10h0.2c6.3,0,11.4-4.1,11.4-10.4c0-3.9-1.7-6.6-4.4-9.4l6.9-6.8c4.4,4,7.5,8.6,7.5,16.8
		C413.8,522.1,404.2,531.1,392.5,531.1z"/>
	<path d="M356.8,485.3v-11.7h20.7c-3.5-2.7-6.6-6.1-6.6-12c0-8.8,5.8-14,15.3-14h26.6v11.7h-23c-5.5,0-8.4,2.6-8.4,7.1
		s2.8,7.3,8.4,7.3h23v11.7H356.8z"/>
</g>
</svg>
