<?xml version="1.0" encoding="utf-8"?>
<svg version="1.1" id="Ebene_1" xmlns="http://www.w3.org/2000/svg" xmlns:xlink="http://www.w3.org/1999/xlink" x="0px" y="0px"
	 viewBox="0 0 696.5 221.5" xml:space="preserve">
<a xmlns="http://www.w3.org/2000/svg" id="anchor" xlink:href="http://www.nzz.ch/zuerich/aktuell/startups-in-zuerich-aha-amanda-ist-nun-unternehmerin-ld.14878" xmlns:xlink="http://www.w3.org/1999/xlink" target="_blank">

<path d="M248,10.4c-19.1,0-29.5,1.7-29.5,43.2v167.2h-8.7L49.3,41.6v112c0,47.6,4.3,59.7,38.2,60.7v7.4c-9.7-0.3-26.5-0.7-42.2-0.7
	c-15.7,0-29.8,0.4-39.5,0.7l0.3-7.4c27.8-0.7,31.5-9,31.5-45.9V38.6c0-27.8-27.5-28.2-37.5-28.2V3c11.7,0.3,19.8,0.7,27.2,0.7
	c9,0,17.1-0.7,27.1-0.3c22.8,25.8,25.8,29.8,36.5,41.9l116,129.7V54.6c0-39.5-11.7-43.9-36.9-44.2V3c9.7,0,25.1,0.7,39.9,0.7
	C224.6,3.7,238.7,3,248,3V10.4z"/>
<path d="M284.2,0c1,0.7,2,1.7,3.7,2.4c1.7,0.7,4,1.3,7.7,1.3h167.2L304.7,208.8H419c29.5,0,40.6-21.5,47.9-39.5l5.7,1.3
	c-5.7,20.8-8.4,28.5-14.1,51c-23.1-0.3-54.6-0.7-101.2-0.7c-46.3,0-81.1,0.4-98.9,0.7L418.6,14.8h-98.5c-32.9,0-39.6,15.8-45.3,33.8
	h-6c6-25.5,7.4-33.8,9.4-48.6H284.2z"/>
<path d="M508.1,0c1,0.7,2,1.7,3.7,2.4c1.7,0.7,4,1.3,7.7,1.3h167.2L528.6,208.8h114.3c29.5,0,40.5-21.5,47.9-39.5l5.7,1.3
	c-5.7,20.8-8.4,28.5-14.1,51c-23.1-0.3-54.6-0.7-101.2-0.7c-46.3,0-81.1,0.4-98.9,0.7L642.5,14.8H544c-32.8,0-39.5,15.8-45.3,33.8
	h-6c6-25.5,7.4-33.8,9.4-48.6H508.1z"/>
  <rect x="0" y="0" width="100%" height="100%" fill-opacity="0"/>
</a>
</svg>
