<svg xmlns:svg="http://www.w3.org/2000/svg" xmlns="http://www.w3.org/2000/svg" version="1.0" width="921.25983" height="177.16534" id="svg1877" viewBox="0 0 900 150"><script/>
  <defs id="defs1879"/>
  <g id="layer1">
    <g transform="matrix(3.543307e-5,0,0,3.543307e-5,5.346687e-4,3.813384e-5)" style="fill-rule:evenodd" id="Ebene_x0020_1">

  <path d="M 3847060,3543060 C 3945530,3500820 3947990,3425570 3941490,3318030 L 3941490,945590 C 3938770,825740 3865210,705750 3691700,568530 L 3717490,527470 C 3961220,572830 4070700,649520 4105300,751770 C 4433470,429110 4680950,407740 4904220,692420 C 4605950,605220 4472880,713540 4472880,953890 L 4472880,1889000 L 4963570,1483840 L 5702220,1861380 L 5590930,2020630 L 5590930,3407940 C 5590930,3441760 5662180,3483490 5726970,3525580 C 5569300,3586730 5511890,3694680 5511890,3694680 C 5078090,4247810 4751830,4511480 4452680,4478170 C 4853170,4319720 5036770,3974810 5034160,3432690 L 5034160,2144370 L 4688220,1971270 L 4481550,2110950 L 4481550,3301060 C 4481550,3381900 4582730,3514190 4679660,3538950 L 4217620,3977010 C 4140160,3853270 4016420,3671500 3847060,3543060 z M 2188700,3228630 C 2151380,3210490 2056660,3216440 2019460,3225620 L 2019460,1130480 L 2188700,1058450 L 2188700,3228630 z M 500000,1325510 L 500000,1324880 C 556270,981770 1015740,588620 1344790,588620 C 1957530,588620 2003000,942760 2003000,942760 C 2338480,906730 2540600,548740 2764120,322890 C 2789360,316910 2811280,325980 2829280,350070 L 3584160,1325510 L 2875260,1929430 C 3555510,2182460 3362980,2924110 3772800,3402760 L 3849380,3337310 L 3914570,3400810 C 3699490,3618870 3656700,3749730 3549310,4007970 C 2822410,3673820 3285890,2490720 2354160,2345970 L 2351960,3250520 C 2454320,3259700 2624300,3339660 2624300,3339660 C 2689490,3285370 2763830,3161490 2763830,3161490 L 2847940,3231350 L 2465960,3971940 C 1934720,3664890 1139040,3647260 565040,3974400 C 714200,3603850 1047690,3361700 1422290,3241700 L 1422290,1370720 C 1422290,1205880 1251900,1063490 1086960,1063490 C 863320,1054560 680630,1135800 578120,1325510 L 500000,1325510 L 500000,1325510 z M 3002130,1635680 L 2356370,2188700 L 2356370,947020 L 2440180,884840 L 3002130,1635680 L 3002130,1635680 z M 8725230,3369850 L 8725230,2016110 C 8671310,1924470 8590990,1862550 8483960,1830560 L 8949270,1426180 L 9264770,1703850 L 9264770,2016110 L 9969880,1437820 L 10509530,1877980 L 10509530,1947030 C 10435420,1981620 10396920,2035280 10393840,2108080 L 10393840,3277990 C 10393840,3386160 10489700,3444590 10663460,3444590 L 10216840,3977010 L 9745730,3565500 C 9819440,3524550 9856100,3468060 9855840,3396000 L 9855840,2108080 L 9625880,1941220 L 9270460,2207360 L 9270460,3345350 C 9267340,3409880 9316850,3458330 9418810,3490720 L 9418810,3553970 L 9000690,3889150 L 8575300,3576890 L 8569500,3525070 C 8659010,3491130 8710980,3439300 8725230,3369850 z M 8073630,662740 L 8450430,662740 L 7873570,1367850 C 7838820,1386660 7791040,1367850 7795810,1340120 L 8073630,662740 L 8073630,662740 z M 7628410,3426080 L 7628410,2031390 C 7617790,1937440 7580360,1898690 7516090,1915290 L 7422290,1915290 L 7422290,1859980 L 7866300,1470620 L 8343400,1801800 L 8343400,1852710 C 8233510,1852710 8184810,1948090 8184810,2024120 L 8184810,3392920 C 8184810,3446540 8244640,3523270 8364880,3614870 L 7957020,3965220 L 7494460,3629370 C 7581500,3559660 7626350,3491750 7628410,3426080 z M 7394150,1987060 L 6445460,2954710 L 6444680,3268000 C 6444680,3505890 6961640,3506410 7321060,3354020 L 7358270,3462370 C 7144210,3670330 6876390,3802990 6727380,4019910 C 6410600,3902230 6144470,3731080 5836970,3613430 L 5906060,3505890 L 5905250,2180910 L 5821290,2051850 C 6175280,1970500 6528900,1676630 6752390,1441570 C 6948050,1595240 7394150,1987060 7394150,1987060 z M 6444680,2727690 L 6444680,1983060 L 6907100,2294660 L 6444680,2727690 z M 21494580,3372570 L 21494580,2018940 C 21440520,1927230 21360080,1865420 21253310,1833280 L 21718590,1428900 L 22034090,1706670 L 22034090,2018940 L 22739200,1440540 L 23278630,1880690 L 23278630,1949890 C 23204880,1984340 23166130,2038110 23162900,2110800 L 23162900,3280710 C 23162900,3388880 23258910,3447200 23432820,3447200 L 22986050,3979730 L 22514940,3568070 C 22588910,3527420 22625300,3470780 22624940,3398760 L 22624940,2110800 L 22395090,1943940 L 22039780,2210080 L 22039780,3348070 C 22036800,3412860 22086060,3461190 22188160,3493330 L 22188160,3556690 L 21770050,3891870 L 21344400,3579610 L 21338960,3528040 C 21428360,3493850 21480330,3442020 21494580,3372570 z M 17319440,655870 L 17696230,655870 L 17119380,1361130 C 17084520,1379900 17036850,1361130 17041620,1333400 L 17319440,655870 L 17319440,655870 z M 16874360,3419210 L 16874360,2024380 C 16863750,1930570 16826030,1891820 16761900,1908310 L 16668100,1908310 L 16668100,1853110 L 17112140,1463860 L 17589060,1795040 L 17589060,1845840 C 17479210,1845840 17430470,1941220 17430470,2017140 L 17430470,3386160 C 17430470,3439820 17490340,3516400 17610690,3608110 L 17202820,3958200 L 16740270,3622650 C 16827310,3552940 16872310,3485030 16874360,3419210 z M 21121790,1722870 C 21121790,1722870 20960070,1881470 20960070,2000430 L 20960070,3238580 C 20960070,3381900 21186170,3454840 21316520,3472730 C 21316520,3472730 20997280,3832260 20894770,3977010 L 20429130,3682120 L 20442310,3491380 C 20246400,3618250 19986620,3771110 19790970,3933850 C 19567330,3798320 19416520,3698310 19193030,3562790 C 19272070,3486830 19311190,3423990 19311190,3374260 L 19308470,2103560 C 19306920,2055380 19245630,1968290 19124860,1842460 C 19324520,1733120 19516830,1463750 19516830,1463750 L 19970420,1795810 C 19907210,1881470 19875190,1956760 19874820,2021550 L 19875080,3312190 L 20162850,3491750 L 20445430,3328380 L 20446350,1998230 C 20447120,1942360 20362130,1894580 20206520,1855170 L 20205340,1791960 C 20457480,1658340 20608690,1545880 20694090,1454680 C 20871850,1588630 21026290,1678170 21121790,1722870 z M 18564860,1660430 L 19012000,1661720 L 19012000,2046930 L 18583520,2046930 L 18584180,3343410 L 18820750,3486210 L 19087140,3271750 L 19121890,3449000 L 18518220,3961840 L 17889020,3648030 L 17888770,3586220 L 18006040,3437470 L 18006040,2045900 L 17645810,2047960 C 17972070,1613790 18406670,1225860 18453170,692530 C 18453170,647830 18564860,644850 18564860,695250 L 18564860,1660430 z M 13320410,1701500 L 13320410,1012070 L 14097690,1088500 L 13320410,1701500 z M 14032900,3851990 C 13846580,3725640 13584190,3545930 13323230,3500970 L 13323230,2196960 C 13759490,2196960 14853190,2549920 14032900,3851990 z M 14700590,550020 L 14877950,427570 L 14999370,595090 L 13605820,1683500 C 14071650,1746710 14537330,1837170 14789070,2262010 C 15012450,2596830 14872880,3112270 14947260,3482830 C 14397650,3600210 14039260,4055900 13694710,4435420 L 13567110,4438540 C 13031060,3828920 12430110,3705550 11825040,4046320 C 11737450,4084040 11663580,3969630 11742370,3903550 C 12096360,3532700 12637290,3362470 13205480,3479850 L 13205340,2198910 C 12983240,2095670 12758200,2307370 12758200,2307370 L 12690700,2196960 L 13177350,1815280 L 13177350,997820 L 12569530,940920 L 12468340,1088240 L 12311030,1032410 L 12780350,358260 L 14700590,550020 L 14700590,550020 z M 15690350,2720970 L 15690350,1976080 L 16152900,2287790 L 15690350,2720970 z M 16639960,1980190 L 15691260,2947840 L 15690350,3261130 C 15690350,3499280 16207480,3499540 16566910,3347300 L 16604080,3455610 C 16389770,3663570 16122350,3796120 15973190,4013150 C 15656410,3895660 15390130,3724210 15082780,3606570 L 15151870,3499280 L 15150840,2173900 L 15066990,2045130 C 15421240,1963880 15774820,1669870 15998200,1434700 C 16194000,1588370 16639960,1980190 16639960,1980190 z M 24113950,4016380 C 24253620,3820880 24483990,3642450 24683530,3502150 L 25015740,4194040 L 24113950,4016380 z M 24092720,1832760 L 24092720,3338480 L 24364140,3512500 L 24636890,3307380 C 24614590,2613020 24614590,2185430 24636890,2024380 L 24092720,1832760 z M 23433960,1910370 C 23724480,1837690 24056430,1644750 24391360,1362160 C 24631710,1522700 24932180,1621020 25293300,1656940 C 25080790,2686740 25149470,3454440 25499970,3959780 L 24748210,4670850 L 23706080,4456680 L 23445380,4678890 L 23381250,4565770 L 24025210,3883570 L 23481520,3539570 C 23543190,3510560 23572610,3472980 23569630,3426450 L 23569630,2278980 C 23568860,2150060 23510790,2037080 23433960,1910370 L 23433960,1910370 z M 11094260,2277440 L 12174070,2277440 L 12247310,2131150 L 12366240,2131150 L 12119160,2707750 L 11039310,2707750 L 10970780,2840300 L 10860880,2840300 L 11094260,2277440 z " id="path10"/>

 </g>
  </g>
</svg>
