<?xml version="1.0" encoding="utf-8"?>
<svg version="1.1" id="svg1879" xmlns:svg="http://www.w3.org/2000/svg"
	 xmlns="http://www.w3.org/2000/svg" xmlns:xlink="http://www.w3.org/1999/xlink" x="0px" y="0px" viewBox="0 10 600 100"
	 style="enable-background:new 0 0 602.4 133.2;" xml:space="preserve">
<g id="layer1">
	<path id="path10" d="M423,37c2.2-2.2,5-4,7.2-6.5c2.5,2.3,4.6,4.6,7.9,6.4c-2.6,2.2-5.6,4.6-7.2,7.1c-1.8-2.6-5.1-4.8-7.7-6.9
		c-2.6,1.5-5.2,4.3-7.9,6.5c-2.7-2-4.9-4.8-7.8-6.8l7.8-6.5C417.3,33.1,420.1,35.2,423,37z M328,33.6c0.9-0.3,1.9-0.9,1.6-1.8
		c-0.5-0.4-1.1-1.1-1.9-1c0-1,1.5-0.4,2.2-0.4c1.2,0.9,1.8,2,1.3,3.7c-3.7,3.6-5.8,8.9-11.9,8.5c-2.1,0.2-4.2-1.1-6.3-1.1l-0.6,66.5
		c-1.5,4.4-2,9.4-5.8,12.5c-1.7,1.4-3.2,2.9-5,4h-1.9l1.2-3.4l0.5-75.1c-0.2-2.9-0.6-5.8-2.3-7.9c5-1.9,10.9-4.6,15.8-8.4
		C319,31.7,323.3,33.7,328,33.6L328,33.6z M403.3,33.5c-1.2-0.9-3-1.4-4.5,0c-2.3,2.8-3.2,6.1-3.4,9.9l-0.4,49.9c2.3,1.2,5,2.8,8,3
		c-2.2,2.7-5.5,6.4-7.5,9.4c-4-2.5-9.6-4.9-14.3-5.1l1.4-3.1l0.3-34.2c-2.5,3-6,5.4-8.6,8.3c-1.5,0.3-2.6-0.7-3.7-1.1
		c-3.4-5.1-2.8-11.1-3.2-16.6c-1-0.7-0.5,0.8-1,1.1l-0.3,38.5c3.8,1.9,7.7,4.6,12,3.3c-2.9,3.1-7.7,5.9-11.5,8.8
		c-4.9-2.3-9.7-5-14.7-6.8c0.4-1,1.9-1.4,2.1-2.6l0.4-42.8c-2.5-1.2-4.9-2.3-7.4-3.2c2.6-2.6,5.4-5.6,8.1-8.6
		c3.8,1.3,7.4,3.9,11.6,4.6c-0.6,1.4-0.2,3.3-0.3,4.8c2.4-4.4,7.6-7.3,12.1-9.8c-0.4,6.5-0.7,13.4,1.4,19.2c0.4,1,2.1,2.1,3.1,0.7
		l0.3-23.9c0,0-3-2.3-3.8-3.3c3.6-0.4,7.3,1.4,8.4,5.4C389.8,33.2,398.7,27.4,403.3,33.5z M457.6,45.3l0.2,2
		c2.8-1.2,5.2-3.3,7.9-5.3c4.8,3.4,10.4,4.2,15.9,5.5c-2.5,1.9-3.6,5.4-3.3,8.1L478,92.9c2.7,1.4,6.2,2.8,8.7,3.8
		c-3.1,2.9-5.3,5.9-8.5,9.1c-3.2-2-7.7-4.9-12.5-5.8l0.9-2.7l0.4-42.4c-1-2.3-6.7-2.5-9.3-4.9l-0.4,44.5c2.1,1.3,4.7,2.2,7.2,2.7
		l-6.6,8.5c-3.7-2.3-8.6-4-12.8-5.3l0.4-1.4l0.4-46.3c-2.7-0.5-4.6-2.7-7.8-2c2.1-3.2,5.4-5.8,7.7-8.9
		C449.8,42.8,453.4,44.7,457.6,45.3L457.6,45.3z M572.9,47.2l0,6c2.8-5.5,8.2-7.9,13.5-10c0.4,6.9-0.8,13.9,1.8,19.6
		c0.7,2.9,4,1.3,5.2-0.3c0.1,0.3,0.1,0.5,0.1,0.7v0.1c0,1.7-2.4,2.6-3.1,3.9c-3.6,2.5-6.7,8.5-11.7,5.9c-3.2-6-3.6-12.5-3.5-19.1
		c-2.8,3.9-2.4,15.1-2.4,15.1l-0.2,25.1c4.2,2.1,9.1,5.6,13.7,3.4c-3.6,3-7.9,5.6-11.4,9.5c-5.5-1.9-10.3-5.9-16.6-7
		c0.4-0.8,1.4-1.6,2.1-2.2c0,0,0.1-29.2,0.3-43.9c-2.4-0.6-5.2-2.1-7.2-2.2c3.1-2.8,6.2-5.5,9.1-8.8C566,44.1,569.8,45.7,572.9,47.2
		z M424.6,96.9c-2.9-1.2-6.1-2.3-8.8-3.9l0.4-41.3c0.9,0.6,5.7,2.5,8.9,2.1L424.6,96.9z M436.5,93.6l0.4-42.9l2-3.4
		c-7-0.6-12.4-3.2-18.6-5.4c-4.9,4.2-11.7,7.5-17.1,10.2c0.6,0.6,1,1.6,1.4,2.3l-0.4,42.1l-0.8,2.1c4.1,1.9,8.9,4.2,12.7,6.6
		c3-2.2,5.8-4.5,9.1-5.9c4.2,1.5,8.6,4,12.5,5.4c2.6-2.9,5.4-5.2,7.6-8.3C442.3,95.9,438.9,95.4,436.5,93.6z M126,94.4l-8.8-3.5
		l0.5-40.5c0.1-0.9-0.9-0.9-1-1.7c3.1,1.4,6.1,2.7,9.7,3.5L126,94.4z M137.9,92l0.4-41.2c-0.5-2.5,0.6-4.7,2.6-5.6
		c-6.4-0.9-12.5-3.3-18.1-5.4c-6.1,3.6-12.1,7.9-18.9,9.8c-0.2,1.1,1.2,1.1,1.1,2.2c0,0,0.3,30.6-1.3,45.2
		c5.3,1.2,14.9,6.2,14.9,6.2l7.7-6.2c3.2,2.1,10.6,5.9,10.6,5.9l8.4-8.2L137.9,92z M238.3,97.4l-9.1-4.3l0.3-40.8
		c-0.1-0.7-1-1.5-0.8-2c3.3,1.2,6.2,3.1,10,3L238.3,97.4z M291.5,92.4l0.3-39.7c0-2.5,0.6-5.1,2.7-6.6c-5.4-1-10.3-3.8-15.2-5.9
		c-2.4,2.3-5.7,4.4-8.2,6l0-0.9c-3.6-1.4-7.9-2.9-11.5-4.8c-3,2.9-5.6,6-9,7.8c0.3-0.9,0.4-1.3,0.9-1.9c-6-1.2-11.4-3.1-16.7-5.8
		c-6.3,4.2-13.2,6.8-19.4,10.1c0.8,0.4,1.4,1.2,2.1,1.7c0.1,15-0.4,44.6-0.4,44.6l-0.9,1.5l13.1,7c2.7-2,6.1-4.1,9.3-5.8l11.2,5.3
		c2.7-3.4,8.2-8.5,8.2-8.5s-5.3-2-7.9-3.4l0.4-44.2c3.1,0.8,6,2.1,8.9,3.3L259,95.8l-1.1,1.8l12.8,6.3l7.5-8.7L271,92l0.4-42.5
		c3.1,1.7,8.4,2,9.1,4.1l-0.4,42.6l-1.2,2.2c4.6,1.2,8.2,3.9,12.6,5.4c2.7-2.5,5.8-6.2,8.4-8.6C297.3,94,294.1,94.2,291.5,92.4z
		 M507.9,97.7c-3-1.4-5.6-2.9-8.5-4.2l0.4-46c3.4,1.4,6.8,3.1,8.4,6.7L507.9,97.7z M501.7,35.4c0.4-3.2,4.1-1.6,4.6-2.9
		c-5.4-1.1-11.1,2.6-15.4,5.6c-0.9,4.2,3.6,5.6,6.5,7.9c-3.2,1.8-6.1,2.2-9,4.4L488,97.8l-0.9,1.6c5.3,1.8,9.6,5.2,14.4,7.2
		c5.9-3.8,11.7-7.3,18.5-9.3l0.4-46C517.7,42.4,506.7,41.9,501.7,35.4L501.7,35.4z M540.8,54.2c0,0,7,13.7,7,13.9l-7,4.1L540.8,54.2
		z M540.5,92.9l0.2-17.9c6-3.8,12.2-7.4,19-10.5c-4.6-7.8-8.1-15.1-12-23.2c-6,3.8-13.3,7.8-20.3,10.2l1.3,2l-0.4,43.4
		c-0.4,0.9-1.1,1.4-1.1,2.2c6.6,1.8,11.4,5.4,17.9,8.1c4.4-2.9,7.2-6.5,11.9-8.7C551.7,98.7,545.5,95.6,540.5,92.9z M334.2,53.1
		c2,4.8,4.9,10.2,7.1,14.2c-2.5,1.1-4.7,2.5-7.2,3.6L334.2,53.1L334.2,53.1z M333.9,74.9c6.3-3.8,13-7.9,19.8-11
		c-4.4-7.8-9.2-15.2-12.9-23.2c-6.7,3.9-14.4,6.5-21.2,9.6c1.1,0.6,1.3,1.9,1.6,2.7l-0.4,41.3c0.3,1.7-1.8,2.1-2,3.6
		c5.9,2.3,11.7,4.6,16.8,8.5c3.8-3,8.6-5.5,12.7-8.7c-5.7,0.1-9.7-3-14.6-4.6L333.9,74.9z M80.1,94.9l-5.6-2.4
		c4.4-4.4,8.6-8.4,11.3-14c4.9-14.5-14.4-13-22.5-13c0.6-1.7,1.3-3.3,1.9-4.9l19.3,0.2c4.2,1,7,3.9,8.1,7.9
		C94.5,78.8,87.3,88.1,80.1,94.9z M70.9,90.9c-4.8-2.3-10.4-3.4-15.2-5.5c0.6-2.4,2.1-4.7,2.7-7.1c5.8,1.1,14.6-2.6,17,4
		C75,85.1,74.1,89.1,70.9,90.9z M17,102c-1.5-0.7-3.3-0.9-3.7-2.6c0.1-3.5,3.7-3.4,6-4.7c13.1-3,25.2,1.1,36.8,4.9
		C44.4,103.7,29.3,105,17,102L17,102z M26,64.9c-4.9-0.3-8-5.4-4.9-9.4c4.9,4.7,14.3,4.4,21.5,4.6l20,0.2c-0.4,1.4-1.1,3.6-1.7,4.9
		L26,64.9z M27.5,38.7C41.3,36,55.3,43,69.3,42.4l-1.6,4l-37.5-0.3c-2.4,0.1-4.2-1.7-5.4-3.6C24.7,39.8,26,39.6,27.5,38.7L27.5,38.7
		z M101.7,58.1c-4.7-11.6-19-11.3-31.2-11.4c2.3-6.6,4.9-12.6,6.8-18.5c-2.5,1.7-5.6,2.6-8.9,2.3l-20.5-3.2c-4.7-0.4-9.9-0.6-14,1.1
		c-7.4,2.5-8.4,10.5-13,15.7c-1.9,2.8-2,6.5-0.7,9.8c-2.7,5.1-8.6,10.7-6.9,16.4c1.5,4,5.7,6.5,9.7,7.6L56.2,78
		c-0.7,2.3-1.6,5-2.6,7.1c-13.2-3.9-27.5-4.4-39.7,2.9c-5,3.4-8.4,13.5,0.2,15.1c14.2,4,31.1,2.1,44.4-2.5c4.4,2.1,9.3,3.3,13.4,5.8
		c6.9-6.7,13.8-13.8,20.6-20.9C98.8,77.4,106.7,68.6,101.7,58.1z M184.9,104.3c3.9-2.1,12.2-6.5,12.2-6.5s0.1,8.7,1.2,13.1
		C194,108.5,184.9,104.3,184.9,104.3z M188.1,49.9l10.1,2.7l-0.6,2.1l-0.3,39.9c-2.7-2.4-6.2-3.7-9.7-4.7L188.1,49.9L188.1,49.9z
		 M214.6,46c-7.7-0.2-15.1-3.7-22.4-6.3c-5.3,3.9-11.2,7.5-17.3,9.9c1.5,2,1.4,5.5,1,8.2c-0.2,0.7-2.2,3.1-3.6,1.3
		c-2.3-5.6-1.4-12.5-1-19c-4.7,1.5-9.7,4.4-12.6,8.2l0-4.6c-3.6-0.6-8-2.6-10.7-4.3c-2.6,3.1-7.8,9-7.8,9s4.7,1.5,6.8,2.2l-0.4,44.3
		c-0.3,1.1-1.7,2.4-1.7,2.4s10.2,4,14.6,6.5c4.8-3,10.1-5.5,14.3-8.8c-5.6,2.2-11-1.9-15.6-3.8l0.3-36.1c0,0,0-3.3,0.8-3.9
		c0.2,5.4-0.1,11.2,3.4,16.5c0.8,0.8,2.2,2,3.3,1.3c3.2-2.5,6.8-5.7,10-8.4l-0.3,33.9l-0.8,3.2c3.9,0.9,8.1,2,11.9,3.4l-16.9,9
		l27.2,11.4l10-7.6c0,0,2.9-1.7,2.4-4.1c-0.9-18.9-1.2-40.9,1-60.3L214.6,46z"/>
</g>
</svg>
