<?xml version="1.0" encoding="utf-8"?>
<svg xmlns="http://www.w3.org/2000/svg" viewBox="0 0 718 264">
    <g fill="#DE232A">
        <path d="M119.6 37.6c-4-11.8-9.2-16.9-17.6-16.9-8.5 0-13.2 5.2-13.2 13.7 0 18.9 53.5 20.3 53.5 59.6 0 21.6-14.8 35.8-40 35.8-19.5 0-34.6-10.6-41-35.3l23.6-5c2.8 15.1 11.5 20.5 18.6 20.5 8.3 0 14.8-5.6 14.8-14.9 0-23.6-53.5-24-53.5-59.1C64.8 14.4 77.7.9 102.5.9c21.4 0 34.4 12.7 38.6 30.4l-21.5 6.3zm78.3 28.7v-4.2c0-7.3-5.2-11.1-12.9-11.1-7.6 0-12.9 3.8-12.9 11.1v37.5c0 7.3 5.2 11.1 12.9 11.1 7.6 0 12.9-3.8 12.9-11.1v-5.9h21.9v.3c0 25-12.9 35.8-34.8 35.8S150.2 119 150.2 94V67.6c0-25 12.9-35.8 34.8-35.8 21.4 0 34.2 10.4 34.6 34.4h-21.7v.1zm30.3 61.8V2.6h21.9v41.7c7.3-7 14.8-12.5 23.8-12.5 13.4 0 20.3 6.8 20.3 24.3v72h-21.9V58.6c0-6.3-2.1-10.4-8-10.4-4.5 0-9.6 4.3-14.3 8.5v71.4h-21.8z"/>
        <polygon
                points="298.3 33.6 318.8 33.6 331.5 92.7 331.8 92.7 344.5 33.6 363.3 33.6 376.7 92.7 377 92.7 389 33.6 409.5 33.6 387.3 128.2 366.8 128.2 353.4 69 353 69 341.4 128.1 320.9 128.1"/>
        <path d="M433.8 86.1v12.5c0 9.4 5.6 13.6 12.9 13.6 9.2 0 12.9-5.9 12.9-13.2h21.9c-1 19.5-12.7 30.9-34.8 30.9-20.9 0-34.8-12.9-34.8-33.5v-31c0-20.7 13.9-33.5 34.8-33.5 20.3 0 34.8 12.9 34.8 32.2v22.1h-47.7v-.1zm25.8-17.8v-5.2c0-8.3-4-13.6-12.9-13.6s-12.9 5.2-12.9 13.6v5.2h25.8z"/>
        <polygon
                points="526 33.6 588.9 33.6 588.9 52.4 548.7 109 588.9 109 588.9 128.1 522.5 128.1 522.5 109.3 562 52.7 526 52.7"/>
        <path d="M616.7 86.1v12.5c0 9.4 5.6 13.6 12.9 13.6 9.2 0 12.9-5.9 12.9-13.2h21.9c-1 19.5-12.7 30.9-34.8 30.9-20.9 0-34.8-12.9-34.8-33.5v-31c0-20.7 13.9-33.5 34.8-33.5 20.3 0 34.8 12.9 34.8 32.2v22.1h-47.7v-.1zm25.7-17.8v-5.2c0-8.3-4-13.6-12.9-13.6s-12.9 5.2-12.9 13.6v5.2h25.8zm31.3 59.8V33.6h21.4v12.5h.3c5-9.4 11.6-14.3 22.6-14.3v23.6c-3.7-1-7.8-2.4-11.6-2.4-7.1 0-10.8 5.4-10.8 10.4v64.7h-21.9z"/>
        <polygon
                points="69.4 261 69.4 137.8 130.9 137.8 130.9 158.6 93 158.6 93 186.9 122.7 186.9 122.7 207.7 93 207.7 93 261"/>
        <path d="M131.2 195.3c1.5-20.7 17.2-28.9 34.5-28.9 22.9 0 31.6 11.6 31.6 28.2v58.9c0 2.6.5 5.1 1.2 7.5H177c-.5-2.4-.9-5.3-1.5-9.1-6.3 6.3-14.9 10.8-25.6 10.8-13 0-21.3-7.2-21.3-22.2 0-21.5 20.5-30.7 47.3-38.8V195c0-8-5-11.1-11.1-11.1-6.5 0-12 4.8-12 11.4h-21.6zm44.5 20.3c-12.8 4.4-25.8 11.6-25.8 21.3 0 6.1 3.8 9.7 9.6 9.7 6.5 0 11.1-3.4 16.2-8.5v-22.5zm33.4-47.4h20.8v10.6c7-6.3 14-12.3 23.1-12.3 8 0 13.8 5.5 16.4 14 6.7-7.3 13.5-14 22.9-14 13 0 19.6 7.9 19.6 24.6v70h-21.5v-70.7c0-6.1-2.2-7.9-5.6-7.9-4.1 0-10.8 4.8-13.5 8.4V261h-21.5v-70.7c0-6.1-2.4-7.9-5.8-7.9-4.6 0-10.8 4.8-13.3 8.4V261h-21.5v-92.8h-.1zm117.4-11.1v-19.5H348v19.5h-21.5zm21.6 11.1V261h-21.5v-92.9h21.5v.1z"/>
        <polygon points="365.5 137.8 387 137.8 387 261 365.5 261"/>
        <path d="M404.4 157.1v-19.5h21.5v19.5h-21.5zm21.5 11.1V261h-21.5v-92.9h21.5v.1zm65.5-146.3V2.4h21.5v19.5h-21.5zm21.5 13v92.9h-21.5V34.9h21.5zm-54.5 184.8V232c0 9.2 5.5 13.3 12.6 13.3 9 0 12.6-5.8 12.6-13h21.5c-1 19.1-12.5 30.4-34.2 30.4-20.5 0-34.2-12.6-34.2-33v-30.4c0-20.3 13.7-33 34.2-33 20 0 34.2 12.6 34.2 31.6v21.7h-46.7v.1zm25.3-17.4v-5.1c0-8.2-3.9-13.3-12.6-13.3s-12.6 5.1-12.6 13.3v5.1h25.2z"/>
        <rect width="48.2" height="263.1"/>
    </g>
</svg>
