<?xml version="1.0" encoding="utf-8"?>
<svg version="1.1" id="Ebene_1" xmlns="http://www.w3.org/2000/svg" xmlns:xlink="http://www.w3.org/1999/xlink" x="0px" y="0px"
	 viewBox="0 0 447 180" xml:space="preserve">
 <a xmlns="http://www.w3.org/2000/svg" id="anchor" xlink:href="/assets/files/schweizer_gemeinde_2017-02.pdf" xmlns:xlink="http://www.w3.org/1999/xlink" target="_blank">

	<g>
		<path d="M135.5,64.7V44.1H73.8v41.1h20.6V64.7h20.6v20.6h20.6v20.6h-20.6v20.6H73.9c-28.3,0-51.3-23.1-51.3-51.4
			c0-28.3,23.1-51.4,51.4-51.4h61.5V3H73.9h0h-0.1v0C34.2,3.1,2,35.3,2,74.9c0,39.6,32.2,71.9,71.8,71.9h61.7v-20.5H156V64.7H135.5z"
			/>
	</g>
	<g>
		<path fill="#878787" d="M167.9,77.2c0,1.2,0.2,3.4,4.2,3.4c3.6,0,4.1-2.2,4.1-3.1c0-1.9-1.6-2.3-4-2.9c-2.6-0.6-3.8-0.9-4.7-1.5
			c-1.4-1-1.8-2.3-1.8-3.4c0-3.5,3.3-5.1,6.6-5.1c1.2,0,3.5,0.2,4.9,1.7c1,1.1,1,2.2,1.1,3h-2.5c-0.1-2.2-1.9-2.6-3.6-2.6
			c-2.4,0-3.8,1.1-3.8,2.8c0,1.5,1,2.1,3.1,2.6c4.1,1.1,4.6,1.2,5.6,1.8c1.6,1.1,1.7,2.7,1.7,3.5c0,3.1-2.4,5.4-6.8,5.4
			c-1.3,0-4-0.2-5.4-2c-1-1.3-1-2.7-1-3.5H167.9z"/>
		<path fill="#878787" d="M192.6,69.6c-0.1-0.6-0.4-3-3.7-3c-4.2,0-4.9,4.3-4.9,7.2c0,3.3,0.9,6.8,4.9,6.8c1.1,0,2.1-0.3,2.8-1
			c0.6-0.7,0.8-1.4,0.8-1.8h2.6c-0.4,3.4-3.5,4.8-6.5,4.8c-6.1,0-7.3-5.4-7.3-8.7c0-3.6,1.4-9.1,7.6-9.1c2.4,0,5.9,1,6.2,4.9H192.6z"
			/>
		<path fill="#878787" d="M200.6,64.9v7.4h8.2v-7.4h2.4v17.3h-2.4v-7.8h-8.2v7.8h-2.4V64.9H200.6z"/>
		<path fill="#878787" d="M216.2,64.9l3.7,14.3l4.1-14.3h3l3.9,14.4l3.9-14.4h2.4l-5.1,17.3h-2.7l-4-14.8l-4.3,14.8h-2.6l-4.9-17.3
			H216.2z"/>
		<path fill="#878787" d="M239.3,64.9h10.9v2h-8.5v5.4h8.1v2h-8.1v5.8h8.7v2.1h-11.1V64.9z"/>
		<path fill="#878787" d="M254.2,64.9h2.4v17.3h-2.4V64.9z"/>
		<path fill="#878787" d="M259.6,79.9l10-12.8h-9.7v-2.1h12.6v2.4l-10.1,12.8h10.3v2.1h-13V79.9z"/>
		<path fill="#878787" d="M275.3,64.9h10.9v2h-8.5v5.4h8.1v2h-8.1v5.8h8.7v2.1h-11.1V64.9z"/>
		<path fill="#878787" d="M290.2,64.9h6.2c0.9,0,2.7,0,4,0.8c1.3,0.8,1.9,2.1,1.9,3.5c0,1.2-0.5,2.3-1.2,3.1c-0.7,0.7-1.5,1-2,1.1
			c1.7,0.4,2.4,1.2,2.6,3.3c0.2,2,0.4,3.5,1.1,5.4h-2.6c-0.4-1.2-0.6-3.3-0.8-4.6c-0.3-2.5-0.9-3.2-3.8-3.2h-3v7.8h-2.4V64.9z
			 M292.5,72.4h3.8c0.3,0,1.6,0,2.3-0.4c0.3-0.2,1.2-0.8,1.2-2.3c0-2.8-2.5-2.8-3.5-2.8h-3.8V72.4z"/>
		<path fill="#878787" d="M324.6,69.2c-0.3-1.6-1.6-2.7-3.9-2.7c-1.6,0-3,0.4-3.9,1.5c-1.5,1.7-1.8,3.9-1.8,5.6
			c0,1.5,0.3,3.9,1.6,5.4c1.1,1.3,2.9,1.7,4.6,1.7c2,0,3.2-0.4,3.8-0.6V75h-4v-2h6.4v8.5c-1,0.3-3.2,1.1-6.2,1.1
			c-3.2,0-5.1-0.9-6.3-2.2c-1.7-1.7-2.4-4.2-2.4-6.6c0-1.7,0.4-5.8,3.7-8c1.7-1.2,4-1.2,4.8-1.2c1.4,0,3.5,0.2,5.1,1.8
			c1,1.1,1.1,2.1,1.2,2.8H324.6z"/>
		<path fill="#878787" d="M331.3,64.9h10.9v2h-8.5v5.4h8.1v2h-8.1v5.8h8.7v2.1h-11.1V64.9z"/>
		<path fill="#878787" d="M346.3,64.9h4.2l4.9,14.3l5-14.3h4v17.3H362V66.7l-5.7,15.6h-2.3l-5.5-15.5v15.5h-2.3V64.9z"/>
		<path fill="#878787" d="M368.6,64.9h10.9v2H371v5.4h8.1v2H371v5.8h8.7v2.1h-11.1V64.9z"/>
		<path fill="#878787" d="M383.5,64.9h2.4v17.3h-2.4V64.9z"/>
		<path fill="#878787" d="M390.4,64.9h3.3l8.5,14.3V64.9h2.2v17.3h-3.1l-8.8-14.7v14.7h-2.2V64.9z"/>
		<path fill="#878787" d="M408.9,64.9h5c2.3,0,5.1,0,7,2.3c1.5,1.8,2.1,4.2,2.1,6.6c0,3.7-1.6,6-2.9,7.1c-1.7,1.4-3.8,1.4-6.4,1.4
			h-4.9V64.9z M411.3,80.3h2.4c1.7,0,3.4-0.1,4.5-1c2.2-1.7,2.3-4.5,2.3-5.5c0-0.6,0-3.6-1.7-5.4c-1.1-1.2-2.5-1.5-4.6-1.5h-2.9V80.3
			z"/>
		<path fill="#878787" d="M425.9,64.9h10.9v2h-8.5v5.4h8.1v2h-8.1v5.8h8.7v2.1h-11.1V64.9z"/>
	</g>
	<g>
		<path fill="#878787" d="M176.7,91.3c-0.1-0.6-0.4-3-3.8-3c-4.2,0-5,4.3-5,7.2c0,3.3,0.9,6.8,4.9,6.8c1.1,0,2.1-0.3,2.8-1
			c0.6-0.7,0.8-1.4,0.8-1.8h2.7c-0.4,3.4-3.5,4.8-6.5,4.8c-6.1,0-7.3-5.4-7.3-8.7c0-3.6,1.4-9.1,7.6-9.1c2.5,0,5.9,1,6.3,4.9H176.7z"
			/>
		<path fill="#878787" d="M183.9,88.5c1.8-1.9,4.2-2.3,5.8-2.3c4.8,0,7.9,3.1,7.9,9c0,4.6-1.9,9.2-8.1,9.2c-5.9,0-7.9-4.2-7.9-9
			C181.6,93.4,182,90.5,183.9,88.5z M185.7,100.7c1,1.2,2.5,1.6,3.9,1.6c1.4,0,2.9-0.4,3.9-1.6c1.4-1.7,1.6-4.5,1.6-5.6
			c0-3.9-1.3-6.9-5.3-6.9c-4.4,0-5.6,3.5-5.6,7.1C184.2,97.1,184.5,99.2,185.7,100.7z"/>
		<path fill="#878787" d="M201.2,86.6h4.3l4.9,14.3l5.1-14.3h4v17.3h-2.4V88.3l-5.7,15.6h-2.3l-5.5-15.5v15.5h-2.3V86.6z"/>
		<path fill="#878787" d="M226.5,86.6v10.7c0,1.8,0.4,2.6,0.8,3.1c1.1,1.4,2.8,1.7,4,1.7c4.7,0,4.7-3.7,4.7-4.9V86.6h2.3v10.7
			c0,0.9,0,2.9-1.4,4.6c-1.7,2.1-4.4,2.4-5.6,2.4c-1.6,0-4.5-0.5-6.2-2.8c-0.5-0.8-1-1.8-1-4.4V86.6H226.5z"/>
		<path fill="#878787" d="M243,86.6h3.4l8.6,14.3V86.6h2.2v17.3h-3.1l-8.9-14.7v14.7H243V86.6z"/>
		<path fill="#878787" d="M261.3,86.6h11v2h-8.5V94h8.1v2h-8.1v5.8h8.7v2.1h-11.1V86.6z"/>
		<path fill="#878787" d="M284.9,98.9c0,1.2,0.2,3.4,4.2,3.4c3.6,0,4.1-2.2,4.1-3.1c0-1.9-1.6-2.3-4-2.9c-2.7-0.6-3.8-0.9-4.7-1.5
			c-1.4-1-1.8-2.3-1.8-3.4c0-3.5,3.4-5.1,6.7-5.1c1.2,0,3.5,0.2,4.9,1.7c1,1.1,1,2.2,1.1,3h-2.5c-0.1-2.2-2-2.6-3.7-2.6
			c-2.4,0-3.9,1.1-3.9,2.8c0,1.5,1,2.1,3.1,2.6c4.2,1.1,4.6,1.2,5.6,1.8c1.6,1.1,1.7,2.7,1.7,3.5c0,3.1-2.4,5.4-6.9,5.4
			c-1.3,0-4-0.2-5.4-2c-1-1.3-1-2.7-1-3.5H284.9z"/>
		<path fill="#878787" d="M305.9,103.9h-2.7L297,86.6h2.7l5,14.8l5.2-14.8h2.4L305.9,103.9z"/>
		<path fill="#878787" d="M315,86.6h2.4v17.3H315V86.6z"/>
		<path fill="#878787" d="M320.4,101.5l10.1-12.8h-9.8v-2.1h12.7V89l-10.2,12.8h10.4v2.1h-13.1V101.5z"/>
		<path fill="#878787" d="M335.2,101.5l10.1-12.8h-9.8v-2.1h12.7V89L338,101.8h10.4v2.1h-13.1V101.5z"/>
		<path fill="#878787" d="M351,86.6h11v2h-8.5V94h8.1v2h-8.1v5.8h8.7v2.1H351V86.6z"/>
		<path fill="#878787" d="M366,86.6h6.2c0.9,0,2.7,0,4,0.8c1.3,0.8,1.9,2.1,1.9,3.5c0,1.2-0.5,2.3-1.2,3.1c-0.8,0.7-1.5,1-2.1,1.1
			c1.7,0.4,2.4,1.2,2.7,3.3c0.2,2,0.4,3.5,1.1,5.4H376c-0.4-1.2-0.6-3.3-0.8-4.6c-0.3-2.5-0.9-3.2-3.8-3.2h-3v7.8H366V86.6z
			 M368.3,94.1h3.8c0.3,0,1.6,0,2.3-0.4c0.3-0.2,1.2-0.8,1.2-2.3c0-2.8-2.5-2.8-3.5-2.8h-3.8V94.1z"/>
		<path fill="#878787" d="M383.7,88.5c1.8-1.9,4.2-2.3,5.8-2.3c4.8,0,7.9,3.1,7.9,9c0,4.6-1.9,9.2-8.1,9.2c-6,0-7.9-4.2-7.9-9
			C381.5,93.4,381.8,90.5,383.7,88.5z M385.5,100.7c1,1.2,2.5,1.6,3.9,1.6c1.4,0,2.9-0.4,3.9-1.6c1.4-1.7,1.6-4.5,1.6-5.6
			c0-3.9-1.3-6.9-5.3-6.9c-4.4,0-5.6,3.5-5.6,7.1C384,97.1,384.3,99.2,385.5,100.7z"/>
	</g>
	<g>
		<path fill="#878787" d="M173.2,125.6h-2.6l-6.1-17.3h2.7l4.9,14.8l5.2-14.8h2.4L173.2,125.6z"/>
		<path fill="#878787" d="M182.1,108.3h2.4v17.3h-2.4V108.3z"/>
		<path fill="#878787" d="M190.5,120.5c0,1.2,0.2,3.4,4.2,3.4c3.6,0,4-2.2,4-3.1c0-1.9-1.6-2.3-4-2.9c-2.6-0.6-3.8-0.9-4.7-1.5
			c-1.4-1-1.8-2.3-1.8-3.4c0-3.5,3.3-5.1,6.6-5.1c1.1,0,3.5,0.2,4.9,1.7c1,1.1,1,2.2,1.1,3h-2.5c-0.1-2.2-1.9-2.6-3.6-2.6
			c-2.4,0-3.8,1.1-3.8,2.8c0,1.5,1,2.1,3.1,2.6c4.1,1.1,4.6,1.2,5.6,1.8c1.6,1.1,1.7,2.7,1.7,3.5c0,3.1-2.4,5.4-6.8,5.4
			c-1.3,0-4-0.2-5.4-2c-1-1.3-1-2.7-1-3.5H190.5z"/>
		<path fill="#878787" d="M215.1,113c-0.1-0.6-0.4-3-3.7-3c-4.2,0-4.9,4.3-4.9,7.2c0,3.3,0.9,6.8,4.9,6.8c1.1,0,2.1-0.3,2.8-1
			c0.6-0.7,0.8-1.4,0.8-1.8h2.6c-0.4,3.4-3.5,4.8-6.5,4.8c-6.1,0-7.2-5.4-7.2-8.7c0-3.6,1.4-9.1,7.6-9.1c2.4,0,5.9,1,6.2,4.9H215.1z"
			/>
		<path fill="#878787" d="M223.1,108.3v7.4h8.2v-7.4h2.4v17.3h-2.4v-7.8h-8.2v7.8h-2.4v-17.3H223.1z"/>
		<path fill="#878787" d="M238.1,108.3h3.3l8.5,14.3v-14.3h2.2v17.3H249l-8.8-14.7v14.7h-2.2V108.3z"/>
		<path fill="#878787" d="M261.9,108.3h2.6l7,17.3h-2.6l-1.9-4.5h-8l-1.9,4.5h-2.5L261.9,108.3z M259.7,119.1h6.5l-3.2-8.5
			L259.7,119.1z"/>
		<path fill="#878787" d="M274,108.3h3.3l8.5,14.3v-14.3h2.2v17.3h-3.1l-8.8-14.7v14.7H274V108.3z"/>
		<path fill="#878787" d="M302.8,113c-0.1-0.6-0.4-3-3.7-3c-4.2,0-4.9,4.3-4.9,7.2c0,3.3,0.9,6.8,4.9,6.8c1.1,0,2.1-0.3,2.8-1
			c0.6-0.7,0.8-1.4,0.8-1.8h2.6c-0.4,3.4-3.5,4.8-6.5,4.8c-6.1,0-7.2-5.4-7.2-8.7c0-3.6,1.4-9.1,7.6-9.1c2.4,0,5.9,1,6.2,4.9H302.8z"
			/>
		<path fill="#878787" d="M313.7,108.3h2.6l7,17.3h-2.6l-1.9-4.5h-8l-1.9,4.5h-2.5L313.7,108.3z M311.5,119.1h6.5l-3.2-8.5
			L311.5,119.1z"/>
		<path fill="#878787" d="M334,120.5c0,1.2,0.2,3.4,4.2,3.4c3.6,0,4-2.2,4-3.1c0-1.9-1.6-2.3-4-2.9c-2.6-0.6-3.8-0.9-4.7-1.5
			c-1.4-1-1.8-2.3-1.8-3.4c0-3.5,3.3-5.1,6.6-5.1c1.1,0,3.5,0.2,4.9,1.7c1,1.1,1,2.2,1.1,3h-2.5c-0.1-2.2-1.9-2.6-3.6-2.6
			c-2.4,0-3.8,1.1-3.8,2.8c0,1.5,1,2.1,3.1,2.6c4.1,1.1,4.6,1.2,5.6,1.8c1.6,1.1,1.7,2.7,1.7,3.5c0,3.1-2.4,5.4-6.8,5.4
			c-1.3,0-4-0.2-5.4-2c-1-1.3-1-2.7-1-3.5H334z"/>
		<path fill="#878787" d="M354.7,125.6h-2.6l-6.1-17.3h2.7l4.9,14.8l5.2-14.8h2.4L354.7,125.6z"/>
		<path fill="#878787" d="M363.7,108.3h2.4v17.3h-2.4V108.3z"/>
		<path fill="#878787" d="M369,123.2l10-12.8h-9.7v-2.1h12.6v2.4l-10.1,12.8H382v2.1h-13V123.2z"/>
		<path fill="#878787" d="M384.9,108.3h6.2c0.9,0,2.7,0,4,0.8c1.3,0.8,1.9,2.1,1.9,3.5c0,1.2-0.5,2.3-1.2,3.1c-0.7,0.7-1.5,1-2,1.1
			c1.6,0.4,2.4,1.2,2.6,3.3c0.2,2,0.4,3.5,1.1,5.4h-2.6c-0.4-1.2-0.6-3.3-0.8-4.6c-0.3-2.5-0.9-3.2-3.8-3.2h-3v7.8h-2.4V108.3z
			 M387.2,115.7h3.8c0.3,0,1.6,0,2.3-0.4c0.3-0.2,1.2-0.8,1.2-2.3c0-2.8-2.5-2.8-3.4-2.8h-3.8V115.7z"/>
		<path fill="#878787" d="M406.2,108.3h2.6l7,17.3h-2.6l-1.9-4.5h-8l-1.9,4.5H399L406.2,108.3z M404.1,119.1h6.5l-3.2-8.5
			L404.1,119.1z"/>
	</g>
	<g>
		<path fill="#878787" d="M176.6,134.6c-0.1-0.6-0.4-3-3.7-3c-4.2,0-4.9,4.3-4.9,7.2c0,3.3,0.9,6.8,4.9,6.8c1.1,0,2.1-0.3,2.8-1
			c0.6-0.7,0.8-1.4,0.8-1.8h2.6c-0.4,3.4-3.5,4.8-6.5,4.8c-6.1,0-7.3-5.4-7.3-8.7c0-3.6,1.4-9.1,7.6-9.1c2.4,0,5.9,1,6.2,4.9H176.6z"
			/>
		<path fill="#878787" d="M183.7,131.8c1.8-1.9,4.2-2.3,5.8-2.3c4.8,0,7.8,3.1,7.8,9c0,4.6-1.8,9.2-8,9.2c-5.9,0-7.8-4.2-7.8-9
			C181.5,136.8,181.8,133.9,183.7,131.8z M185.6,144.1c1,1.2,2.5,1.6,3.8,1.6c1.4,0,2.8-0.4,3.8-1.6c1.4-1.7,1.6-4.5,1.6-5.6
			c0-3.9-1.3-6.9-5.3-6.9c-4.4,0-5.5,3.5-5.5,7.1C184,140.5,184.4,142.6,185.6,144.1z"/>
		<path fill="#878787" d="M200.9,129.9h4.2l4.9,14.3l5-14.3h4v17.3h-2.4v-15.6l-5.7,15.6h-2.3l-5.5-15.5v15.5h-2.3V129.9z"/>
		<path fill="#878787" d="M223.6,129.9h4.2l4.9,14.3l5-14.3h4v17.3h-2.4v-15.6l-5.7,15.6h-2.3l-5.5-15.5v15.5h-2.3V129.9z"/>
		<path fill="#878787" d="M248.7,129.9v10.7c0,1.8,0.4,2.6,0.8,3.1c1.1,1.4,2.8,1.7,4,1.7c4.7,0,4.7-3.7,4.7-4.9v-10.6h2.3v10.7
			c0,0.9,0,2.9-1.4,4.6c-1.7,2.1-4.3,2.4-5.6,2.4c-1.6,0-4.5-0.5-6.1-2.8c-0.5-0.8-1-1.8-1-4.4v-10.6H248.7z"/>
		<path fill="#878787" d="M265,129.9h3.3l8.5,14.3v-14.3h2.2v17.3H276l-8.8-14.7v14.7H265V129.9z"/>
		<path fill="#878787" d="M283.2,129.9h10.9v2h-8.5v5.4h8.1v2h-8.1v5.8h8.7v2.1h-11.1V129.9z"/>
		<path fill="#878787" d="M306.6,142.2c0,1.2,0.2,3.4,4.2,3.4c3.6,0,4.1-2.2,4.1-3.1c0-1.9-1.6-2.3-4-2.9c-2.6-0.6-3.8-0.9-4.7-1.5
			c-1.4-1-1.8-2.3-1.8-3.4c0-3.5,3.3-5.1,6.6-5.1c1.2,0,3.5,0.2,4.9,1.7c1,1.1,1,2.2,1.1,3h-2.5c-0.1-2.2-1.9-2.6-3.6-2.6
			c-2.4,0-3.8,1.1-3.8,2.8c0,1.5,1,2.1,3.1,2.6c4.1,1.1,4.6,1.2,5.6,1.8c1.6,1.1,1.7,2.7,1.7,3.5c0,3.1-2.4,5.4-6.8,5.4
			c-1.3,0-4-0.2-5.4-2c-1-1.3-1-2.7-1-3.5H306.6z"/>
		<path fill="#878787" d="M323.4,129.9v10.7c0,1.8,0.4,2.6,0.8,3.1c1.1,1.4,2.8,1.7,4,1.7c4.7,0,4.7-3.7,4.7-4.9v-10.6h2.3v10.7
			c0,0.9,0,2.9-1.4,4.6c-1.7,2.1-4.3,2.4-5.6,2.4c-1.6,0-4.5-0.5-6.1-2.8c-0.5-0.8-1-1.8-1-4.4v-10.6H323.4z"/>
		<path fill="#878787" d="M339.5,129.9h2.4v17.3h-2.4V129.9z"/>
		<path fill="#878787" d="M347.9,142.2c0,1.2,0.2,3.4,4.2,3.4c3.6,0,4.1-2.2,4.1-3.1c0-1.9-1.6-2.3-4-2.9c-2.6-0.6-3.8-0.9-4.7-1.5
			c-1.4-1-1.8-2.3-1.8-3.4c0-3.5,3.3-5.1,6.6-5.1c1.2,0,3.5,0.2,4.9,1.7c1,1.1,1,2.2,1.1,3h-2.5c-0.1-2.2-1.9-2.6-3.6-2.6
			c-2.4,0-3.8,1.1-3.8,2.8c0,1.5,1,2.1,3.1,2.6c4.1,1.1,4.6,1.2,5.6,1.8c1.6,1.1,1.7,2.7,1.7,3.5c0,3.1-2.4,5.4-6.8,5.4
			c-1.3,0-4-0.2-5.4-2c-1-1.3-1-2.7-1-3.5H347.9z"/>
		<path fill="#878787" d="M364,142.2c0,1.2,0.2,3.4,4.2,3.4c3.6,0,4.1-2.2,4.1-3.1c0-1.9-1.6-2.3-4-2.9c-2.6-0.6-3.8-0.9-4.7-1.5
			c-1.4-1-1.8-2.3-1.8-3.4c0-3.5,3.3-5.1,6.6-5.1c1.2,0,3.5,0.2,4.9,1.7c1,1.1,1,2.2,1.1,3h-2.5c-0.1-2.2-1.9-2.6-3.6-2.6
			c-2.4,0-3.8,1.1-3.8,2.8c0,1.5,1,2.1,3.1,2.6c4.1,1.1,4.6,1.2,5.6,1.8c1.6,1.1,1.7,2.7,1.7,3.5c0,3.1-2.4,5.4-6.8,5.4
			c-1.3,0-4-0.2-5.4-2c-1-1.3-1-2.7-1-3.5H364z"/>
		<path fill="#878787" d="M377.9,129.9h10.9v2h-8.5v5.4h8.1v2h-8.1v5.8h8.7v2.1h-11.1V129.9z"/>
	</g>
	<rect x="0" y="0" width="100%" height="100%" fill-opacity="0"/>
</a>
</svg>
