<svg xmlns:svg="http://www.w3.org/2000/svg" xmlns="http://www.w3.org/2000/svg" version="1.1" width="1024" height="162" viewBox="0 0 50 7" id="svg72224"><script/>
  <defs id="defs72226"/>
  <path d="m 5.88425,1.727 c -0.209,-0.419 -0.229,-0.49 -0.309,-0.622 -0.25,-0.429 -0.599,-0.623 -1.099,-0.623 l -0.888,0 0,5.55 c 0,0.927 0,0.937 0.849,1.01 l 0,0.265 -2.676,-0.001 0,-0.265 c 0.848,-0.07 0.859,-0.08 0.859,-1.009 l 0,-5.55 -0.909,0 c -0.488,0 -0.828,0.194 -1.078,0.623 -0.08,0.142 -0.13,0.234 -0.309,0.622 l -0.26,0 0.28,-1.561 5.52,0.001 0.26,1.56 -0.24,0 z" id="path70855" style="fill:#191919;fill-opacity:1;fill-rule:nonzero;stroke:none"/>
  <path d="m 5.88725,1.725 c -0.21,-0.419 -0.23,-0.49 -0.31,-0.622 -0.25,-0.429 -0.599,-0.624 -1.099,-0.624 l -0.89,0 0,5.555 c 0,0.928 0,0.938 0.849,1.011 l 0,0.265 -2.679,0 0,-0.266 c 0.85,-0.07 0.86,-0.08 0.86,-1.01 l 0,-5.555 -0.91,0 c -0.489,0 -0.829,0.194 -1.079,0.622 -0.08,0.144 -0.13,0.235 -0.31,0.624 l -0.26,0 0.28,-1.562 5.528,0 0.26,1.562 -0.24,0 z" id="path70859" style="fill:#191919;fill-opacity:1;stroke:#231f20;stroke-width:0.04;stroke-linecap:butt;stroke-linejoin:miter;stroke-miterlimit:4;stroke-opacity:1;stroke-dasharray:none"/>
  <path d="m 9.72325,4.553 -2.246,0 1.227,-3.376 1.019,3.376 z m 2.34505,2.755 0,-0.265 c -0.409,-0.02 -0.589,-0.215 -0.818,-0.899 l -2.01605,-6.099 -0.578,0 -2.208,6.048 c -0.239,0.654 -0.519,0.939 -0.929,0.949 l 0,0.265 1.848,0 0,-0.265 c -0.359,-0.02 -0.529,-0.204 -0.529,-0.51 0,-0.07 0.01,-0.153 0.04,-0.235 l 0.459,-1.356 2.506,0 0.42905,1.316 c 0.05,0.142 0.08,0.275 0.08,0.387 0,0.275 -0.15,0.378 -0.59905,0.398 l 0,0.266 2.31505,0 z" id="path70863" style="fill:#191919;fill-opacity:1;fill-rule:nonzero;stroke:none"/>
  <path d="m 9.72525,4.554 -2.249,0 1.23,-3.38 1.019,3.38 z m 2.34805,2.758 0,-0.267 c -0.409,-0.02 -0.589,-0.214 -0.819,-0.897 l -2.01905,-6.107 -0.579,0 -2.208,6.054 c -0.24,0.654 -0.521,0.94 -0.93,0.95 l 0,0.265 1.848,0 0,-0.265 c -0.36,-0.02 -0.53,-0.204 -0.53,-0.51 0,-0.07 0.01,-0.154 0.04,-0.235 l 0.46,-1.357 2.509,0 0.42895,1.316 c 0.05,0.144 0.08,0.276 0.08,0.389 0,0.275 -0.151,0.377 -0.59995,0.397 l 0,0.267 2.31795,0 z" id="path70867" style="fill:#191919;fill-opacity:1;stroke:#231f20;stroke-width:0.04;stroke-linecap:butt;stroke-linejoin:miter;stroke-miterlimit:4;stroke-opacity:1;stroke-dasharray:none"/>
  <path d="m 18.6162,4.4 c -0.08,0.143 -0.09,0.286 -0.09,0.786 l 0,1.775 c -0.8791,0.327 -1.628,0.469 -2.445,0.469 -2.1361,0 -3.844,-1.215 -3.844,-3.55 0,-2.388 1.8279,-3.835 4.0539,-3.835 0.599,0 1.3071,0.113 1.866,0.346 0.3,0.123 0.39,0.215 0.39,0.46 l 0,1.254 -0.26,0 c -0.05,-0.439 -0.09,-0.633 -0.2,-0.816 -0.339,-0.582 -1.079,-0.898 -1.9359,-0.898 -1.758,0 -2.7761,1.133 -2.7761,3.183 0,1.856 0.9181,3.51 2.875,3.51 0.998,0 1.308,-0.317 1.308,-1.277 l 0,-0.621 c 0,-0.581 -0.01,-0.745 -0.13,-0.847 -0.09,-0.08 -0.32,-0.123 -0.908,-0.163 l 0,-0.265 2.855,0 0,0.265 c -0.559,0.06 -0.6789,0.09 -0.759,0.224" id="path70871" style="fill:#191919;fill-opacity:1;fill-rule:nonzero;stroke:none"/>
  <path d="m 18.6182,4.401 c -0.08,0.144 -0.09,0.286 -0.09,0.786 l 0,1.778 c -0.88,0.326 -1.6291,0.468 -2.448,0.468 -2.138,0 -3.847,-1.215 -3.847,-3.553 0,-2.389 1.829,-3.838 4.057,-3.838 0.599,0 1.309,0.111 1.869,0.346 0.299,0.123 0.39,0.215 0.39,0.46 l 0,1.255 -0.26,0 c -0.05,-0.438 -0.09,-0.632 -0.2,-0.816 -0.34,-0.581 -1.08,-0.899 -1.938,-0.899 -1.759,0 -2.779,1.134 -2.779,3.187 0,1.857 0.92,3.512 2.877,3.512 1,0 1.31,-0.317 1.31,-1.277 l 0,-0.623 c 0,-0.581 -0.01,-0.745 -0.13,-0.847 -0.09,-0.08 -0.32,-0.123 -0.91,-0.163 l 0,-0.266 2.859,0 0,0.266 c -0.56,0.06 -0.68,0.09 -0.76,0.224 z" id="path70875" style="fill:#191919;fill-opacity:1;stroke:#231f20;stroke-width:0.04;stroke-linecap:butt;stroke-linejoin:miter;stroke-miterlimit:4;stroke-opacity:1;stroke-dasharray:none"/>
  <path d="m 23.7903,1.922 c 0,0.99 -0.469,1.5 -1.377,1.5 l -0.649,-0.001 0,-2.938 0.589,0 c 1.0179,0 1.437,0.419 1.437,1.439 m 1.457,3.376 c 0,-0.723 -0.3481,-1.285 -0.938,-1.581 -0.299,-0.152 -0.4991,-0.183 -0.9581,-0.265 0.9781,-0.377 1.438,-0.918 1.438,-1.693 0,-0.776 -0.38,-1.286 -1.069,-1.48 -0.359,-0.101 -0.639,-0.112 -1.298,-0.112 l -2.476,0 0,0.255 c 0.849,0.07 0.849,0.08 0.849,1.02 l 0,4.591 c 0,0.928 0,0.938 -0.849,1.009 l 0,0.265 2.765,10e-4 c 1.608,0 2.536,-0.735 2.536,-2.01 m -1.147,0.154 c 0,1.009 -0.47,1.519 -1.419,1.519 -0.288,0 -0.4889,-0.05 -0.629,-0.164 -0.238,-0.173 -0.288,-0.509 -0.288,-0.979 l 0,-2.091 0.658,0 c 1.098,0 1.678,0.593 1.678,1.715" id="path70879" style="fill:#191919;fill-opacity:1;fill-rule:nonzero;stroke:none"/>
  <path d="m 23.7912,1.921 c 0,0.99 -0.47,1.501 -1.38,1.501 l -0.649,0 0,-2.941 0.59,0 c 1.019,0 1.439,0.419 1.439,1.44 z m 1.459,3.38 c 0,-0.725 -0.3489,-1.286 -0.939,-1.582 -0.3,-0.154 -0.5,-0.184 -0.96,-0.267 0.9801,-0.377 1.44,-0.919 1.44,-1.695 0,-0.775 -0.38,-1.286 -1.07,-1.48 -0.36,-0.102 -0.6399,-0.112 -1.2989,-0.112 l -2.48,0 0,0.255 c 0.85,0.07 0.85,0.08 0.85,1.021 l 0,4.595 c 0,0.929 0,0.939 -0.85,1.01 l 0,0.266 2.769,0 c 1.61,0 2.5389,-0.735 2.5389,-2.011 z m -1.149,0.153 c 0,1.011 -0.47,1.521 -1.42,1.521 -0.29,0 -0.49,-0.05 -0.63,-0.164 -0.2389,-0.172 -0.289,-0.51 -0.289,-0.98 l 0,-2.092 0.6601,0 c 1.099,0 1.6789,0.592 1.6789,1.715 z" id="path70883" style="fill:#191919;fill-opacity:1;stroke:#231f20;stroke-width:0.04;stroke-linecap:butt;stroke-linejoin:miter;stroke-miterlimit:4;stroke-opacity:1;stroke-dasharray:none"/>
  <path d="m 30.8603,7.308 -4.911,0 0,-0.265 c 0.858,-0.07 0.858,-0.08 0.858,-1.01 l 0,-4.59 c 0,-0.939 0,-0.949 -0.858,-1.01 l 0,-0.265 2.6859,0 0,0.265 c -0.849,0.06 -0.849,0.07 -0.849,1.01 l -9e-4,4.671 c 0,0.704 0.2,0.858 1.169,0.858 1.2669,0 1.497,-0.174 1.956,-1.5 l 0.25,0 -0.3,1.836 z" id="path70887" style="fill:#191919;fill-opacity:1;fill-rule:nonzero;stroke:none"/>
  <path d="m 30.8632,7.312 -4.9189,0 0,-0.266 c 0.86,-0.07 0.86,-0.08 0.86,-1.01 l 0,-4.595 c 0,-0.939 0,-0.95 -0.859,-1.012 l 0,-0.265 2.689,0 0,0.267 c -0.85,0.06 -0.85,0.07 -0.85,1.01 l 0,4.676 c 0,0.705 0.2,0.858 1.169,0.858 1.27,0.001 1.5,-0.173 1.96,-1.5 l 0.25,0 -0.3001,1.837 z" id="path70891" style="fill:#191919;fill-opacity:1;stroke:#231f20;stroke-width:0.04;stroke-linecap:butt;stroke-linejoin:miter;stroke-miterlimit:4;stroke-opacity:1;stroke-dasharray:none"/>
  <path d="m 35.6212,4.555 -2.246,0 1.2281,-3.376 1.0179,3.376 z m 2.3451,2.754 0,-0.265 C 37.5573,7.024 37.3782,6.83 37.1483,6.146 l -2.016,-6.1 -0.5791,0 -2.206,6.049 c -0.24,0.652 -0.52,0.939 -0.9289,0.949 l 0,0.265 1.8469,0 0,-0.265 c -0.3589,-0.02 -0.529,-0.204 -0.529,-0.51 0,-0.07 0.01,-0.153 0.04,-0.235 l 0.4599,-1.357 2.505,0 0.429,1.317 c 0.05,0.142 0.08,0.275 0.08,0.387 0,0.275 -0.15,0.378 -0.599,0.398 l 0,0.265 2.315,0 z" id="path70895" style="fill:#191919;fill-opacity:1;fill-rule:nonzero;stroke:none"/>
  <path d="m 35.6223,4.556 -2.2491,0 1.2301,-3.38 1.019,3.38 z m 2.348,2.756 0,-0.265 c -0.409,-0.02 -0.589,-0.213 -0.819,-0.898 l -2.018,-6.106 -0.58,0 -2.208,6.054 c -0.24,0.654 -0.521,0.94 -0.93,0.95 l 0,0.265 1.848,0 0,-0.265 c -0.36,-0.02 -0.528,-0.205 -0.528,-0.511 0,-0.07 0,-0.152 0.04,-0.234 l 0.459,-1.358 2.509,0 0.43,1.317 c 0.05,0.144 0.08,0.276 0.08,0.389 0,0.275 -0.15,0.377 -0.6,0.397 l 0,0.265 2.3179,0 z" id="path70899" style="fill:#191919;fill-opacity:1;stroke:#231f20;stroke-width:0.04;stroke-linecap:butt;stroke-linejoin:miter;stroke-miterlimit:4;stroke-opacity:1;stroke-dasharray:none"/>
  <path d="m 43.0553,1.73 c -0.21,-0.419 -0.2301,-0.49 -0.3091,-0.622 -0.25,-0.429 -0.6,-0.623 -1.099,-0.623 l -0.8879,0 0,5.549 c 0,0.928 0,0.938 0.848,1.01 l 0,0.266 -2.676,0 0,-0.266 c 0.849,-0.07 0.859,-0.08 0.859,-1.01 l 0,-5.549 -0.908,0 c -0.4901,0 -0.828,0.194 -1.077,0.623 -0.08,0.142 -0.13,0.234 -0.31,0.622 l -0.26,0 0.2799,-1.561 5.52,0 0.259,1.561 -0.2389,0 z" id="path70903" style="fill:#191919;fill-opacity:1;fill-rule:nonzero;stroke:none"/>
  <path d="m 43.0582,1.728 c -0.2099,-0.419 -0.23,-0.49 -0.31,-0.623 -0.249,-0.43 -0.6,-0.623 -1.099,-0.623 l -0.8899,0 0,5.555 c 0,0.928 0,0.938 0.85,1.011 l 0,0.265 -2.679,0 0,-0.266 c 0.85,-0.07 0.86,-0.08 0.86,-1.01 l 0,-5.555 -0.909,0 c -0.491,0 -0.83,0.193 -1.08,0.622 -0.08,0.144 -0.13,0.235 -0.31,0.624 l -0.26,0 0.28,-1.563 5.528,0 0.26,1.563 -0.24,0 z" id="path70907" style="fill:#191919;fill-opacity:1;stroke:#231f20;stroke-width:0.04;stroke-linecap:butt;stroke-linejoin:miter;stroke-miterlimit:4;stroke-opacity:1;stroke-dasharray:none"/>
  <path d="m 49.2593,1.73 c -0.21,-0.419 -0.2301,-0.49 -0.3091,-0.622 -0.25,-0.429 -0.6,-0.623 -1.099,-0.623 l -0.8879,0 0,5.549 c 0,0.928 0,0.938 0.849,1.01 l 0,0.266 -2.6771,0 0,-0.266 c 0.849,-0.07 0.859,-0.08 0.859,-1.01 l 0,-5.549 -0.908,0 c -0.49,0 -0.828,0.194 -1.078,0.623 -0.08,0.142 -0.13,0.234 -0.309,0.622 l -0.26,0 0.28,-1.561 5.52,0 0.26,1.561 -0.24,0 z" id="path70911" style="fill:#191919;fill-opacity:1;fill-rule:nonzero;stroke:none"/>
  <path d="m 49.2622,1.728 c -0.2099,-0.419 -0.23,-0.49 -0.31,-0.623 -0.249,-0.43 -0.6,-0.623 -1.0989,-0.623 l -0.89,0 0,5.555 c 0,0.928 0,0.938 0.85,1.011 l 0,0.265 -2.679,0 0,-0.266 c 0.85,-0.07 0.86,-0.08 0.86,-1.01 l 0,-5.555 -0.909,0 c -0.491,0 -0.831,0.193 -1.081,0.622 -0.08,0.144 -0.13,0.235 -0.309,0.624 l -0.26,0 0.28,-1.563 5.528,0 0.26,1.563 -0.24,0 z" id="path70915" style="fill:#191919;fill-opacity:1;stroke:#231f20;stroke-width:0.04;stroke-linecap:butt;stroke-linejoin:miter;stroke-miterlimit:4;stroke-opacity:1;stroke-dasharray:none"/>
</svg>
