<svg xmlns="http://www.w3.org/2000/svg" xmlns:xlink="http://www.w3.org/1999/xlink" version="1.1" id="Ebene_1" x="0px" y="0px" width="646.773px" height="129.033px" viewBox="0 0 650 100" enable-background="new 0 0 646.773 129.033" xml:space="preserve"><script/>
	<a xmlns="http://www.w3.org/2000/svg" id="anchor" xlink:href="https://www.tagesanzeiger.ch/schweiz/standard/der-vernetzer-des-volkes/story/24497358" xmlns:xlink="http://www.w3.org/1999/xlink" target="_blank">

		<path fill="#B5B27F" d="M306.08,48.585c-0.18-0.044-0.966-1.872-0.495-2.614c0.308-0.487,0.437-1.281,0.21-1.855  c-0.137-0.347-0.427-0.729-0.818-0.579c-0.686,0.262-0.283-0.799-0.564-1.347c-0.113-0.22-0.511-0.584-0.867-0.394  c-0.767,0.407-0.15-1.121-0.657-1.628c-0.148-0.149-0.661-0.373-1.003-0.231c-0.418,0.174-0.219-0.443-0.588-0.822  c-0.364-0.373-1.255-0.433-1.653-0.155c-0.359,0.251-0.579,0.973-0.363,1.462c0.21,0.475,1.268,0.723,0.788,1.064  c-0.269,0.193-0.366,0.525-0.346,0.7c0.082,0.757,1.69,1.126,1.252,1.461c-0.209,0.161-0.264,0.314-0.226,0.453  c0.367,1.319,1.996,1.085,1.424,1.457c-0.307,0.199-0.176,0.708,0.235,0.999c0.504,0.356,1.386,0.471,1.882,0.349  C304.728,46.796,306.07,48.635,306.08,48.585z"/>
		<path fill="none" stroke="#231F20" stroke-width="0.38" d="M306.08,48.585c-0.18-0.044-0.966-1.872-0.495-2.614  c0.308-0.487,0.437-1.281,0.21-1.855c-0.137-0.347-0.427-0.729-0.818-0.579c-0.686,0.262-0.283-0.799-0.564-1.347  c-0.113-0.22-0.511-0.584-0.867-0.394c-0.767,0.407-0.15-1.121-0.657-1.628c-0.148-0.149-0.661-0.373-1.003-0.231  c-0.418,0.174-0.219-0.443-0.588-0.822c-0.364-0.373-1.255-0.433-1.653-0.155c-0.359,0.251-0.579,0.973-0.363,1.462  c0.21,0.475,1.268,0.723,0.788,1.064c-0.269,0.193-0.366,0.525-0.346,0.7c0.082,0.757,1.69,1.126,1.252,1.461  c-0.209,0.161-0.264,0.314-0.226,0.453c0.367,1.319,1.996,1.085,1.424,1.457c-0.307,0.199-0.176,0.708,0.235,0.999  c0.504,0.356,1.386,0.471,1.882,0.349C304.728,46.796,306.07,48.635,306.08,48.585z"/>
		<path fill="#231F20" d="M306.505,49.291l-2.446-7.458c-0.444,0.12-0.586,0.231-0.633,0.384c-0.44,1.456,1.228,2.207,0.47,2.215  c-0.407,0.004-0.587,0.559-0.373,1.077c0.261,0.633,0.835,1.396,1.373,1.576c0.477,0.16,1.383,2.193,1.42,2.149L306.505,49.291z"/>
		<path fill="none" stroke="#231F20" stroke-width="0.38" d="M306.505,49.291l-2.446-7.458c-0.444,0.12-0.586,0.231-0.633,0.384  c-0.44,1.456,1.228,2.207,0.47,2.215c-0.407,0.004-0.587,0.559-0.373,1.077c0.261,0.633,0.835,1.396,1.373,1.576  c0.477,0.16,1.383,2.193,1.42,2.149L306.505,49.291z"/>
		<path fill="#8E883A" d="M309.242,80.696c-0.045,0.039,2.232,1.215,2.383,1.748c0.199,0.697,0.991,1.64,1.662,1.806  c0.281,0.07,0.563,0.004,0.837-0.438c0.474-0.758,1.018,0.49,1.924,0.565c0.273,0.024,0.481-0.036,0.574-0.521  c0.188-0.968,1.033,0.337,1.915,0.363c0.295,0.01,0.331-0.239,0.485-0.778c0.149-0.53,0.651,0.291,1.29,0.308  c0.744,0.019,1.869-0.391,1.827-1.213c-0.038-0.75-0.524-1.604-1.061-1.674c-0.735-0.097-1.606-0.154-1.666-0.728  c-0.063-0.636-0.319-0.819-0.635-0.868c-1.083-0.168-1.937,1.033-1.912,0.119c0.047-1.729-2.614,0.859-2.475-0.396  c0.109-0.993-2.198-0.109-2.65,0.912C311.52,80.401,309.204,80.648,309.242,80.696z"/>
		<path fill="none" stroke="#231F20" stroke-width="0.38" d="M309.242,80.696c-0.045,0.039,2.232,1.215,2.383,1.748  c0.199,0.697,0.991,1.64,1.662,1.806c0.281,0.07,0.563,0.004,0.837-0.438c0.474-0.758,1.018,0.49,1.924,0.565  c0.273,0.024,0.481-0.036,0.574-0.521c0.188-0.968,1.033,0.337,1.915,0.363c0.295,0.01,0.331-0.239,0.485-0.778  c0.149-0.53,0.651,0.291,1.29,0.308c0.744,0.019,1.869-0.391,1.827-1.213c-0.038-0.75-0.524-1.604-1.061-1.674  c-0.735-0.097-1.606-0.154-1.666-0.728c-0.063-0.636-0.319-0.819-0.635-0.868c-1.083-0.168-1.937,1.033-1.912,0.119  c0.047-1.729-2.614,0.859-2.475-0.396c0.109-0.993-2.198-0.109-2.65,0.912C311.52,80.401,309.204,80.648,309.242,80.696z"/>
		<path fill="#8E883A" d="M310.436,70.551c0.01,0.06,1.675-0.719,2.202-0.544c0.688,0.229,1.912,0.109,2.428-0.351  c0.217-0.193,0.322-0.461,0.113-0.938c-0.36-0.817,0.978-0.562,1.552-1.268c0.174-0.212,0.242-0.417-0.104-0.769  c-0.692-0.699,0.861-0.661,1.382-1.375c0.175-0.238,0.214-0.518-0.146-0.949c-0.352-0.424,0.359-0.711,0.733-1.229  c0.436-0.604,0.009-1.448-0.693-1.877c-0.642-0.394-1.529-0.42-1.89-0.017c-0.494,0.552-0.376,1.317-0.88,1.042  c-0.562-0.306-0.856-0.2-1.076,0.035c-0.75,0.799-0.241,2.181-0.983,1.645c-1.4-1.016-0.766,2.642-1.723,1.817  c-0.758-0.652-1.035,1.625-0.747,2.703C310.716,68.891,310.376,70.557,310.436,70.551z"/>
		<path fill="none" stroke="#231F20" stroke-width="0.38" d="M310.436,70.551c0.01,0.06,1.675-0.719,2.202-0.544  c0.688,0.229,1.912,0.109,2.428-0.351c0.217-0.193,0.322-0.461,0.113-0.938c-0.36-0.817,0.978-0.562,1.552-1.268  c0.174-0.212,0.242-0.417-0.104-0.769c-0.692-0.699,0.861-0.661,1.382-1.375c0.175-0.238,0.214-0.518-0.146-0.949  c-0.352-0.424,0.359-0.711,0.733-1.229c0.436-0.604,0.009-1.448-0.693-1.877c-0.642-0.394-1.529-0.42-1.89-0.017  c-0.494,0.552-0.376,1.317-0.88,1.042c-0.562-0.306-0.856-0.2-1.076,0.035c-0.75,0.799-0.241,2.181-0.983,1.645  c-1.4-1.016-0.766,2.642-1.723,1.817c-0.758-0.652-1.035,1.625-0.747,2.703C310.716,68.891,310.376,70.557,310.436,70.551z"/>
		<path fill="#8E883A" d="M306.905,59.125c0.014,0.053,1.432-0.8,1.919-0.691c0.638,0.141,1.722-0.081,2.141-0.541  c0.177-0.192,0.245-0.442,0.015-0.851c-0.397-0.697,0.822-0.594,1.271-1.278c0.135-0.208,0.177-0.396-0.165-0.679  c-0.687-0.562,0.709-0.672,1.108-1.359c0.134-0.229,0.144-0.484-0.219-0.836c-0.354-0.348,0.254-0.671,0.541-1.17  c0.334-0.581-0.126-1.297-0.795-1.614c-0.612-0.292-1.408-0.234-1.692,0.16c-0.392,0.54-0.215,1.215-0.691,1.016  c-0.531-0.222-0.785-0.1-0.96,0.131c-0.598,0.786-0.014,1.974-0.726,1.562c-1.35-0.778-0.44,2.437-1.375,1.788  c-0.738-0.513-0.774,1.551-0.415,2.488C307,57.611,306.851,59.134,306.905,59.125z"/>
		<path fill="none" stroke="#231F20" stroke-width="0.38" d="M306.905,59.125c0.014,0.053,1.432-0.8,1.919-0.691  c0.638,0.141,1.722-0.081,2.141-0.541c0.177-0.192,0.245-0.442,0.015-0.851c-0.397-0.697,0.822-0.594,1.271-1.278  c0.135-0.208,0.177-0.396-0.165-0.679c-0.687-0.562,0.709-0.672,1.108-1.359c0.134-0.229,0.144-0.484-0.219-0.836  c-0.354-0.348,0.254-0.671,0.541-1.17c0.334-0.581-0.126-1.297-0.795-1.614c-0.612-0.292-1.408-0.234-1.692,0.16  c-0.392,0.54-0.215,1.215-0.691,1.016c-0.531-0.222-0.785-0.1-0.96,0.131c-0.598,0.786-0.014,1.974-0.726,1.562  c-1.35-0.778-0.44,2.437-1.375,1.788c-0.738-0.513-0.774,1.551-0.415,2.488C307,57.611,306.851,59.134,306.905,59.125z"/>
		<path fill="#599E90" d="M264.766,90.702c0,0-4.866,0.979-10.171-5.872C259.153,85.447,262.266,86.948,264.766,90.702z"/>
		<path fill="none" stroke="#231F20" stroke-width="0.38" d="M264.766,90.702c0,0-4.866,0.979-10.171-5.872  C259.153,85.447,262.266,86.948,264.766,90.702z"/>
		<path fill="#599E90" d="M255.285,81.69c0,0-6.284,0.695-10.931-6.509C248.102,75.696,253.774,77.025,255.285,81.69z"/>
		<path fill="none" stroke="#231F20" stroke-width="0.38" d="M255.285,81.69c0,0-6.284,0.695-10.931-6.509  C248.102,75.696,253.774,77.025,255.285,81.69z"/>
		<path fill="#599E90" d="M249.772,69.771c0,0-7.675-0.473-12.83-7.172C240.488,62.912,249.747,63.082,249.772,69.771z"/>
		<path fill="none" stroke="#231F20" stroke-width="0.38" d="M249.772,69.771c0,0-7.675-0.473-12.83-7.172  C240.488,62.912,249.747,63.082,249.772,69.771z"/>
		<path fill="#231F20" d="M250.826,69.544c0,0-3.629,3.083-11.017-1.695C243.839,66.87,246.984,65.128,250.826,69.544z"/>
		<path fill="none" stroke="#231F20" stroke-width="0.38" d="M250.826,69.544c0,0-3.629,3.083-11.017-1.695  C243.839,66.87,246.984,65.128,250.826,69.544z"/>
		<path fill="#93C0B7" d="M250.825,69.85c0,0-3.628,2.777-11.016-2.001C243.155,66.983,246.984,65.433,250.825,69.85z"/>
		<path fill="none" stroke="#231F20" stroke-width="0.38" d="M250.825,69.85c0,0-3.628,2.777-11.016-2.001  C243.155,66.983,246.984,65.433,250.825,69.85z"/>
		<path fill="none" stroke="#231F20" stroke-width="0.714" d="M310.164,69.886c0,0-1.255,0.855-2.566,0.081  c-0.644-0.382-2.77,0.329-3.364,0.591"/>
		<path fill="#8E883A" d="M299.065,73.335c0.007,0.059,1.674-0.72,2.2-0.544c0.688,0.229,1.912,0.109,2.428-0.352  c0.218-0.193,0.322-0.463,0.113-0.938c-0.359-0.818,0.979-0.562,1.552-1.268c0.175-0.214,0.242-0.418-0.104-0.769  c-0.693-0.701,0.861-0.661,1.382-1.375c0.175-0.239,0.221-0.525-0.144-0.949c-0.488-0.566-0.027-1.018,0.166-1.628  c0.229-0.721,0.23-1.254-0.338-1.673c-0.605-0.445-1.198-0.329-1.559,0.073c-0.494,0.553-0.236,1.594-1.001,1.146  c-0.553-0.323-0.857-0.2-1.076,0.034c-0.75,0.799-0.242,2.181-0.982,1.645c-1.401-1.015-0.768,2.643-1.725,1.817  c-0.757-0.651-1.034,1.625-0.744,2.703C299.343,71.673,299.003,73.34,299.065,73.335z"/>
		<path fill="none" stroke="#231F20" stroke-width="0.38" d="M299.065,73.335c0.007,0.059,1.674-0.72,2.2-0.544  c0.688,0.229,1.912,0.109,2.428-0.352c0.218-0.193,0.322-0.463,0.113-0.938c-0.359-0.818,0.979-0.562,1.552-1.268  c0.175-0.214,0.242-0.418-0.104-0.769c-0.693-0.701,0.861-0.661,1.382-1.375c0.175-0.239,0.221-0.525-0.144-0.949  c-0.488-0.566-0.027-1.018,0.166-1.628c0.229-0.721,0.23-1.254-0.338-1.673c-0.605-0.445-1.198-0.329-1.559,0.073  c-0.494,0.553-0.236,1.594-1.001,1.146c-0.553-0.323-0.857-0.2-1.076,0.034c-0.75,0.799-0.242,2.181-0.982,1.645  c-1.401-1.015-0.768,2.643-1.725,1.817c-0.757-0.651-1.034,1.625-0.744,2.703C299.343,71.673,299.003,73.34,299.065,73.335z"/>
		<path fill="#231F20" d="M309.402,70.02c-0.041,0.04,1.178,0.224,1.367,0.69c0.242,0.592,1.046,0.986,1.71,1.15  c0.404,0.1,0.855,0.054,1.054-0.367c0.258-0.55,0.9,0.325,1.582,0.357c0.274,0.013,0.869,0.028,0.974-0.407  c0.173-0.723,0.967,0.4,1.956,0.308c0.233-0.022,0.708-0.244,0.8-0.645c0.112-0.49,0.474-0.182,1.053-0.272  c1.095-0.171,1.293-1.802,0.069-2.055c-0.567-0.115-1.307,0.545-1.308-0.108c-0.001-0.367-0.335-0.69-0.505-0.786  c-0.738-0.412-2.192,0.946-2.19-0.017c0-0.293-0.065-0.508-0.215-0.563c-1.432-0.52-2.27,1.261-2.236,0.505  c0.017-0.407-0.497-0.664-1.026-0.479c-0.646,0.227-1.384,0.999-1.591,1.527C310.709,69.328,309.36,69.98,309.402,70.02z"/>
		<path fill="none" stroke="#231F20" stroke-width="0.38" d="M309.402,70.02c-0.041,0.04,1.178,0.224,1.367,0.69  c0.242,0.592,1.046,0.986,1.71,1.15c0.404,0.1,0.855,0.054,1.054-0.367c0.258-0.55,0.9,0.325,1.582,0.357  c0.274,0.013,0.869,0.028,0.974-0.407c0.173-0.723,0.967,0.4,1.956,0.308c0.233-0.022,0.708-0.244,0.8-0.645  c0.112-0.49,0.474-0.182,1.053-0.272c1.095-0.171,1.293-1.802,0.069-2.055c-0.567-0.115-1.307,0.545-1.308-0.108  c-0.001-0.367-0.335-0.69-0.505-0.786c-0.738-0.412-2.192,0.946-2.19-0.017c0-0.293-0.065-0.508-0.215-0.563  c-1.432-0.52-2.27,1.261-2.236,0.505c0.017-0.407-0.497-0.664-1.026-0.479c-0.646,0.227-1.384,0.999-1.591,1.527  C310.709,69.328,309.36,69.98,309.402,70.02z"/>
		<path fill="#8E883A" d="M299.603,59.563c0.015,0.04,1.083-0.743,1.479-0.691c0.518,0.064,1.365-0.19,1.667-0.588  c0.125-0.167,0.162-0.37-0.053-0.678c-0.368-0.526,0.612-0.534,0.92-1.112c0.093-0.176,0.112-0.328-0.183-0.528  c-0.588-0.398,0.517-0.588,0.783-1.164c0.091-0.193,0.08-0.396-0.234-0.651c-0.308-0.249,0.153-0.552,0.346-0.971  c0.224-0.487-0.196-1.024-0.753-1.229c-0.508-0.188-1.138-0.082-1.337,0.252c-0.271,0.46-0.081,0.984-0.477,0.861  c-0.438-0.139-0.632-0.021-0.754,0.174c-0.418,0.671,0.135,1.574-0.464,1.3c-1.131-0.521-0.171,1.974-0.963,1.524  c-0.627-0.354-0.503,1.292-0.148,2.015C299.569,58.35,299.561,59.576,299.603,59.563z"/>
		<path fill="none" stroke="#231F20" stroke-width="0.38" d="M299.603,59.563c0.015,0.04,1.083-0.743,1.479-0.691  c0.518,0.064,1.365-0.19,1.667-0.588c0.125-0.167,0.162-0.37-0.053-0.678c-0.368-0.526,0.612-0.534,0.92-1.112  c0.093-0.176,0.112-0.328-0.183-0.528c-0.588-0.398,0.517-0.588,0.783-1.164c0.091-0.193,0.08-0.396-0.234-0.651  c-0.308-0.249,0.153-0.552,0.346-0.971c0.224-0.487-0.196-1.024-0.753-1.229c-0.508-0.188-1.138-0.082-1.337,0.252  c-0.271,0.46-0.081,0.984-0.477,0.861c-0.438-0.139-0.632-0.021-0.754,0.174c-0.418,0.671,0.135,1.574-0.464,1.3  c-1.131-0.521-0.171,1.974-0.963,1.524c-0.627-0.354-0.503,1.292-0.148,2.015C299.569,58.35,299.561,59.576,299.603,59.563z"/>
		<path fill="none" stroke="#231F20" stroke-width="0.714" d="M306.575,49.862c-0.229,0.381,0.563,3.345-0.358,4.072  c-0.951,0.75-0.759,2.673-1.634,4.55"/>
		<path fill="#231F20" d="M300.744,60.284c-0.034,0.046,1.234,0.226,1.502,0.652c0.343,0.541,1.203,0.788,1.886,0.835  c0.414,0.028,0.851-0.097,0.973-0.546c0.157-0.586,0.945,0.164,1.621,0.076c0.272-0.035,0.859-0.123,0.887-0.571  c0.044-0.74,1.023,0.226,1.979-0.037c0.227-0.062,0.655-0.364,0.676-0.773c0.024-0.503,0.437-0.262,0.989-0.452  c1.047-0.357,0.141-2.021-0.285-2.005c-0.577,0.024-1.081,0.315-1.195-0.328c-0.065-0.361-0.396-0.557-0.58-0.621  c-0.8-0.277-2.092,1.139-2.22,0.538c-0.062-0.286-0.186-0.44-0.346-0.441c-0.347-0.003-0.662,1.558-2.189,0.99  c-0.101-0.037-0.78-0.145-1.269,0.13c-0.599,0.335-0.799,1.07-0.913,1.626C302.16,59.848,300.696,60.252,300.744,60.284z"/>
		<path fill="none" stroke="#231F20" stroke-width="0.38" d="M300.744,60.284c-0.034,0.046,1.234,0.226,1.502,0.652  c0.343,0.541,1.203,0.788,1.886,0.835c0.414,0.028,0.851-0.097,0.973-0.546c0.157-0.586,0.945,0.164,1.621,0.076  c0.272-0.035,0.859-0.123,0.887-0.571c0.044-0.74,1.023,0.226,1.979-0.037c0.227-0.062,0.655-0.364,0.676-0.773  c0.024-0.503,0.437-0.262,0.989-0.452c1.047-0.357,0.141-2.021-0.285-2.005c-0.577,0.024-1.081,0.315-1.195-0.328  c-0.065-0.361-0.396-0.557-0.58-0.621c-0.8-0.277-2.092,1.139-2.22,0.538c-0.062-0.286-0.186-0.44-0.346-0.441  c-0.347-0.003-0.662,1.558-2.189,0.99c-0.101-0.037-0.78-0.145-1.269,0.13c-0.599,0.335-0.799,1.07-0.913,1.626  C302.16,59.848,300.696,60.252,300.744,60.284z"/>
		<path fill="#B5B27F" d="M300.957,60.996c-0.03,0.048,1.247,0.15,1.541,0.56c0.372,0.521,1.246,0.716,1.931,0.721  c0.415,0.004,0.844-0.146,0.938-0.603c0.123-0.594,0.954,0.107,1.622-0.021c0.271-0.052,0.853-0.174,0.853-0.623  c-0.001-0.742,1.034,0.165,1.974-0.156c0.222-0.076,0.631-0.402,0.628-0.812c-0.006-0.503,0.42-0.287,0.962-0.511  c1.021-0.42,0.789-2.26-0.462-2.22c-0.577,0.02-1.072,0.727-1.225,0.09c-0.086-0.357-0.43-0.531-0.617-0.585  c-0.813-0.229-2.02,1.262-2.183,0.67c-0.078-0.283-0.213-0.402-0.373-0.421c-1.511-0.171-1.912,1.755-2.057,1.01  c-0.077-0.398-0.637-0.528-1.108-0.225c-0.575,0.37-1.116,1.135-1.196,1.695C302.112,60.062,300.907,60.966,300.957,60.996z"/>
		<path fill="none" stroke="#231F20" stroke-width="0.38" d="M300.957,60.996c-0.03,0.048,1.247,0.15,1.541,0.56  c0.372,0.521,1.246,0.716,1.931,0.721c0.415,0.004,0.844-0.146,0.938-0.603c0.123-0.594,0.954,0.107,1.622-0.021  c0.271-0.052,0.853-0.174,0.853-0.623c-0.001-0.742,1.034,0.165,1.974-0.156c0.222-0.076,0.631-0.402,0.628-0.812  c-0.006-0.503,0.42-0.287,0.962-0.511c1.021-0.42,0.789-2.26-0.462-2.22c-0.577,0.02-1.072,0.727-1.225,0.09  c-0.086-0.357-0.43-0.531-0.617-0.585c-0.813-0.229-2.02,1.262-2.183,0.67c-0.078-0.283-0.213-0.402-0.373-0.421  c-1.511-0.171-1.912,1.755-2.057,1.01c-0.077-0.398-0.637-0.528-1.108-0.225c-0.575,0.37-1.116,1.135-1.196,1.695  C302.112,60.062,300.907,60.966,300.957,60.996z"/>
		<path fill="#8E883A" d="M298.319,75.446c-0.557-1.384,0.129-2.425,1.389-1.962c0.155-0.908,1.194-1.457,2.004-1.157  c0.811,0.297,0.911,1.346,0.418,2.063c0.78,0.956,0.424,1.724-0.61,1.993c0.936,0.879,0.521,2.806-0.933,2.959  c-0.154,1.351-1.478,1.415-3.172,1.946c-0.533,0.167-1.443,0.81-1.443,0.81s0.706-0.686,0.611-1.244  c-0.128-0.742,0.119-1.452-0.014-2.072c-0.094-0.435-0.071-1.971,0.098-2.248S297.228,75.413,298.319,75.446z"/>
		<path fill="none" stroke="#231F20" stroke-width="0.38" d="M298.319,75.446c-0.557-1.384,0.129-2.425,1.389-1.962  c0.155-0.908,1.194-1.457,2.004-1.157c0.811,0.297,0.911,1.346,0.418,2.063c0.78,0.956,0.424,1.724-0.61,1.993  c0.936,0.879,0.521,2.806-0.933,2.959c-0.154,1.351-1.478,1.415-3.172,1.946c-0.533,0.167-1.443,0.81-1.443,0.81  s0.706-0.686,0.611-1.244c-0.128-0.742,0.119-1.452-0.014-2.072c-0.094-0.435-0.071-1.971,0.098-2.248  S297.228,75.413,298.319,75.446z"/>
		<path fill="#231F20" d="M299.656,72.703c-0.039-0.042,2.522-0.248,2.742-0.702c0.246-0.51,0.971-1.184,1.632-1.362  c0.202-0.053,0.404-0.053,0.573-0.009l-0.696,1.783l-1.633,0.148L299.656,72.703z"/>
		<path fill="none" stroke="#231F20" stroke-width="0.38" d="M299.656,72.703c-0.039-0.042,2.522-0.248,2.742-0.702  c0.246-0.51,0.971-1.184,1.632-1.362c0.202-0.053,0.404-0.053,0.573-0.009l-0.696,1.783l-1.633,0.148L299.656,72.703z"/>
		<path fill="#B5B27F" d="M299.706,72.568c-0.046,0.034,2.424,0.743,2.549,1.232c0.159,0.62,0.494,1.342,1.13,1.596  c0.385,0.154,0.916-0.194,1.206-0.558c0.397-0.504,0.745,0.898,1.402,1.089c0.264,0.076,0.847-0.436,1.095-0.808  c0.465-0.692,0.511,1.007,1.632,1.042c0.233,0.008,0.688-0.782,0.833-1.165c0.18-0.47,0.766,0.775,1.53,0.38  c0.983-0.505,1.183-1.764,0.237-2.584c-0.572-0.496-1.604,0.624-1.516-0.022c0.05-0.364-0.004-1.059-0.161-1.176  c-0.675-0.51-2.2,1.222-2.138,0.609c0.03-0.291,0.083-0.923-0.062-0.986c-1.259-0.56-2.529,1.248-2.395,0.502  c0.072-0.4-0.298-1.044-0.847-0.934c-0.672,0.136-1.438,0.763-1.716,1.256C302.239,72.481,299.669,72.524,299.706,72.568z"/>
		<path fill="none" stroke="#231F20" stroke-width="0.38" d="M299.706,72.568c-0.046,0.034,2.424,0.743,2.549,1.232  c0.159,0.62,0.494,1.342,1.13,1.596c0.385,0.154,0.916-0.194,1.206-0.558c0.397-0.504,0.745,0.898,1.402,1.089  c0.264,0.076,0.847-0.436,1.095-0.808c0.465-0.692,0.511,1.007,1.632,1.042c0.233,0.008,0.688-0.782,0.833-1.165  c0.18-0.47,0.766,0.775,1.53,0.38c0.983-0.505,1.183-1.764,0.237-2.584c-0.572-0.496-1.604,0.624-1.516-0.022  c0.05-0.364-0.004-1.059-0.161-1.176c-0.675-0.51-2.2,1.222-2.138,0.609c0.03-0.291,0.083-0.923-0.062-0.986  c-1.259-0.56-2.529,1.248-2.395,0.502c0.072-0.4-0.298-1.044-0.847-0.934c-0.672,0.136-1.438,0.763-1.716,1.256  C302.239,72.481,299.669,72.524,299.706,72.568z"/>
		<path fill="#8E883A" d="M306.521,50.513c0.025,0.054,1.365-1.207,1.92-1.205c0.725,0.003,1.85-0.494,2.196-1.092  c0.146-0.251,0.161-0.539-0.187-0.926c-0.596-0.664,0.754-0.839,1.079-1.688c0.099-0.259,0.1-0.474-0.34-0.698  c-0.878-0.449,0.612-0.898,0.883-1.738c0.091-0.281,0.04-0.559-0.434-0.855c-0.469-0.292,0.116-0.788,0.311-1.398  c0.225-0.709-0.444-1.378-1.245-1.567c-0.733-0.172-1.583,0.081-1.8,0.574c-0.298,0.68,0.055,1.371-0.512,1.267  c-0.628-0.114-0.874,0.078-1.011,0.37c-0.462,0.993,0.452,2.146-0.418,1.868c-1.648-0.527,0.098,2.75-1.07,2.266  c-0.924-0.382-0.474,1.866,0.137,2.8C306.266,48.847,306.463,50.536,306.521,50.513z"/>
		<path fill="none" stroke="#231F20" stroke-width="0.38" d="M306.521,50.513c0.025,0.054,1.365-1.207,1.92-1.205  c0.725,0.003,1.85-0.494,2.196-1.092c0.146-0.251,0.161-0.539-0.187-0.926c-0.596-0.664,0.754-0.839,1.079-1.688  c0.099-0.259,0.1-0.474-0.34-0.698c-0.878-0.449,0.612-0.898,0.883-1.738c0.091-0.281,0.04-0.559-0.434-0.855  c-0.469-0.292,0.116-0.788,0.311-1.398c0.225-0.709-0.444-1.378-1.245-1.567c-0.733-0.172-1.583,0.081-1.8,0.574  c-0.298,0.68,0.055,1.371-0.512,1.267c-0.628-0.114-0.874,0.078-1.011,0.37c-0.462,0.993,0.452,2.146-0.418,1.868  c-1.648-0.527,0.098,2.75-1.07,2.266c-0.924-0.382-0.474,1.866,0.137,2.8C306.266,48.847,306.463,50.536,306.521,50.513z"/>
		<path fill="#231F20" d="M289.807,94.25c0,0,9.07,3.136,10.634,4.896l-1.296,1.897c-1.033-1.341-8.852-6.031-10.399-6.025"/>
		<path fill="none" stroke="#231F20" stroke-width="0.456" d="M289.807,94.25c0,0,9.07,3.136,10.634,4.896l-1.296,1.897  c-1.033-1.341-8.852-6.031-10.399-6.025"/>
		<path fill="#FFFFFF" d="M289.808,93.793c0,0,9.069,3.592,10.633,5.352l-1.295,1.441c-1.033-1.341-8.852-6.031-10.399-6.025"/>
		<path fill="none" stroke="#231F20" stroke-width="0.456" d="M289.808,93.793c0,0,9.069,3.592,10.633,5.352l-1.295,1.441  c-1.033-1.341-8.852-6.031-10.399-6.025"/>
		<path fill="#231F20" d="M257.603,57.987c-0.424,0.582-1.24,0.711-1.824,0.287c-0.583-0.425-0.711-1.24-0.287-1.824  c0.424-0.583,1.24-0.712,1.824-0.287C257.899,56.586,258.028,57.404,257.603,57.987"/>
		<path fill="none" stroke="#231F20" stroke-width="0.38" d="M256.899,56.364c0.559,1.167,0.223,3.355-0.91,4.082"/>
		<path fill="#231F20" d="M302.492,48.765c-0.109,0.443,0.341,0.932,1.154,1.132c0.814,0.2,1.563,0.003,1.671-0.437  c0.109-0.443-0.464-0.963-1.277-1.163C303.225,48.098,302.6,48.324,302.492,48.765z"/>
		<path fill="none" stroke="#231F20" stroke-width="0.38" stroke-linejoin="round" d="M302.492,48.765  c-0.109,0.443,0.341,0.932,1.154,1.132c0.814,0.2,1.563,0.003,1.671-0.437c0.109-0.443-0.464-0.963-1.277-1.163  C303.225,48.098,302.6,48.324,302.492,48.765z"/>
		<path fill="#FFFFFF" d="M304.145,49.199c-0.121,0.497-0.089,0.897,0.308,1.002c0.455,0.12,0.888-0.218,1.01-0.716  c0.122-0.497-0.11-0.969-0.569-1.084C304.533,48.312,304.267,48.703,304.145,49.199z"/>
		<path fill="none" stroke="#231F20" stroke-width="0.38" stroke-linejoin="round" d="M304.145,49.199  c-0.121,0.497-0.089,0.897,0.308,1.002c0.455,0.12,0.888-0.218,1.01-0.716c0.122-0.497-0.11-0.969-0.569-1.084  C304.533,48.312,304.267,48.703,304.145,49.199z"/>
		<path fill="#231F20" d="M293.566,45.72l1.508-1.501c0,0-5.198-1.7-14.877-1.72c-9.677-0.02-14.296,1.422-14.296,1.422l1.502,1.508"/>
		<path fill="none" stroke="#231F20" stroke-width="0.334" stroke-linecap="round" stroke-linejoin="round" d="M293.566,45.72  l1.508-1.501c0,0-5.198-1.7-14.877-1.72c-9.677-0.02-14.296,1.422-14.296,1.422l1.502,1.508"/>
		<path fill="#231F20" d="M280.481,42.499c9.678,0.02,14.529,1.575,14.529,1.575l0.716-3.495l1.122-3.19l5.738-6.625l-5.192-1.186  l-2.858,3.832l-3.1-0.745l2.643-3.895l-7.132-0.95l-2.061,4.049l-4.383-0.133l-4.164-0.064l-1.664-4.007l-7.173,0.977l2.423,4.032  l-3.317,0.396l-2.475-3.551l-5.262,1.081l5.509,6.579l1.058,3.244l0.752,3.498C266.19,43.922,270.804,42.479,280.481,42.499z"/>
		<path fill="none" stroke="#231F20" stroke-width="0.532" stroke-linecap="round" stroke-linejoin="round" d="M280.481,42.499  c9.678,0.02,14.529,1.575,14.529,1.575l0.716-3.495l1.122-3.19l5.738-6.625l-5.192-1.186l-2.858,3.832l-3.1-0.745l2.643-3.895  l-7.132-0.95l-2.061,4.049l-4.383-0.133l-4.164-0.064l-1.664-4.007l-7.173,0.977l2.423,4.032l-3.317,0.396l-2.475-3.551  l-5.262,1.081l5.509,6.579l1.058,3.244l0.752,3.498C266.19,43.922,270.804,42.479,280.481,42.499z"/>
		<path fill="#D1D2D4" d="M280.193,42.499c9.678,0.02,14.285,1.481,14.285,1.481l0.768-3.494l1.07-3.24l5.536-6.556l-4.748-1.112  l-2.857,3.832l-3.457-0.691l2.441-4.022l-6.573-0.875l-2.06,4.048l-4.383-0.133l-4.383,0.115l-2.044-4.057l-6.575,0.848l2.422,4.032  l-3.459,0.677l-2.842-3.844l-4.753,1.092l5.51,6.579l1.058,3.244l0.752,3.498C265.901,43.921,270.515,42.479,280.193,42.499z"/>
		<path fill="none" stroke="#231F20" stroke-width="0.38" stroke-linecap="round" stroke-linejoin="round" d="M280.193,42.499  c9.678,0.02,14.285,1.481,14.285,1.481l0.768-3.494l1.07-3.24l5.536-6.556l-4.748-1.112l-2.857,3.832l-3.457-0.691l2.441-4.022  l-6.573-0.875l-2.06,4.048l-4.383-0.133l-4.383,0.115l-2.044-4.057l-6.575,0.848l2.422,4.032l-3.459,0.677l-2.842-3.844  l-4.753,1.092l5.51,6.579l1.058,3.244l0.752,3.498C265.901,43.921,270.515,42.479,280.193,42.499z"/>
		<path fill="none" stroke="#231F20" stroke-width="0.608" d="M296.196,89.133c0,0-1.822-0.764-2.469-0.461  c-0.647,0.302-1.636,0.908-1.636,0.908"/>
		<path fill="#B5B27F" d="M295.771,88.875c-0.053,0.026,2.02,1.907,2.017,2.461c-0.004,0.725,0.492,1.851,1.09,2.199  c0.251,0.145,0.539,0.161,0.926-0.186c0.665-0.596,0.84,0.754,1.688,1.08c0.257,0.099,0.473,0.1,0.698-0.339  c0.449-0.877,0.896,0.612,1.737,0.885c0.28,0.091,0.559,0.042,0.856-0.433c0.293-0.468,0.786,0.117,1.396,0.312  c0.71,0.226,1.378-0.443,1.567-1.245c0.174-0.731-0.076-1.583-0.571-1.8c-0.679-0.298-1.371,0.054-1.266-0.513  c0.115-0.628-0.076-0.875-0.368-1.011c-0.993-0.464-2.147,0.449-1.868-0.421c0.528-1.647-2.75,0.095-2.265-1.072  c0.383-0.922-2.082-0.719-2.801,0.135C298.256,89.346,295.749,88.82,295.771,88.875z"/>
		<path fill="none" stroke="#231F20" stroke-width="0.38" d="M295.771,88.875c-0.053,0.026,2.02,1.907,2.017,2.461  c-0.004,0.725,0.492,1.851,1.09,2.199c0.251,0.145,0.539,0.161,0.926-0.186c0.665-0.596,0.84,0.754,1.688,1.08  c0.257,0.099,0.473,0.1,0.698-0.339c0.449-0.877,0.896,0.612,1.737,0.885c0.28,0.091,0.559,0.042,0.856-0.433  c0.293-0.468,0.786,0.117,1.396,0.312c0.71,0.226,1.378-0.443,1.567-1.245c0.174-0.731-0.076-1.583-0.571-1.8  c-0.679-0.298-1.371,0.054-1.266-0.513c0.115-0.628-0.076-0.875-0.368-1.011c-0.993-0.464-2.147,0.449-1.868-0.421  c0.528-1.647-2.75,0.095-2.265-1.072c0.383-0.922-2.082-0.719-2.801,0.135C298.256,89.346,295.749,88.82,295.771,88.875z"/>
		<path fill="none" stroke="#231F20" stroke-width="0.714" d="M263.956,90.726c0.455,0.381,4.381,1.048,4.761,0.896"/>
		<line fill="none" stroke="#231F20" stroke-width="0.38" x1="253.896" y1="81.924" x2="253.056" y2="83.519"/>
		<path fill="#FFFFFF" d="M270.358,94.058c0,0-9.509,4.211-10.575,5.121l1.21,1.633c0.762-0.605,8.98-5.985,10.425-5.982"/>
		<path fill="none" stroke="#231F20" stroke-width="0.456" d="M270.358,94.058c0,0-9.509,4.211-10.575,5.121l1.21,1.633  c0.762-0.605,8.98-5.985,10.425-5.982"/>
		<path fill="#FFFFFF" d="M270.358,93.753c0,0-9.588,4.398-10.653,5.308l1.288,1.446c0.762-0.606,8.981-5.985,10.425-5.982"/>
		<path fill="none" stroke="#231F20" stroke-width="0.456" d="M270.358,93.753c0,0-9.588,4.398-10.653,5.308l1.288,1.446  c0.762-0.606,8.981-5.985,10.425-5.982"/>
		<path fill="none" stroke="#231F20" stroke-width="0.714" d="M250.825,69.773c1.747,0.687,4.072,3.175,4.547,6.166  c0,0,1.746,6.644,7.252,9.489c0.886,0.458,2.406,0.436,2.609,0.284"/>
		<path fill="#599E90" d="M261.516,73.657c0,0-5.175-0.969-6.882-12.026C257.452,63.756,261.701,67.522,261.516,73.657z"/>
		<path fill="none" stroke="#231F20" stroke-width="0.38" d="M261.516,73.657c0,0-5.175-0.969-6.882-12.026  C257.452,63.756,261.701,67.522,261.516,73.657z"/>
		<path fill="#231F20" d="M268.141,87.999c0,0-2.086,3.618-12.047,6.182C259.904,89.4,258.311,88.181,268.141,87.999z"/>
		<path fill="none" stroke="#231F20" stroke-width="0.38" d="M268.141,87.999c0,0-2.086,3.618-12.047,6.182  C259.904,89.4,258.311,88.181,268.141,87.999z"/>
		<path fill="#93C0B7" d="M268.14,88.303c0,0-2.313,3.693-12.273,6.256C258.128,91.851,259.022,87.27,268.14,88.303z"/>
		<path fill="none" stroke="#231F20" stroke-width="0.38" d="M268.14,88.303c0,0-2.313,3.693-12.273,6.256  C258.128,91.851,259.022,87.27,268.14,88.303z"/>
		<path fill="#231F20" d="M250.395,69.696c0,0-7.063-2.143-10.465-11.042C243.272,59.675,250.371,63.007,250.395,69.696z"/>
		<path fill="none" stroke="#231F20" stroke-width="0.38" d="M250.395,69.696c0,0-7.063-2.143-10.465-11.042  C243.272,59.675,250.371,63.007,250.395,69.696z"/>
		<path fill="#93C0B7" d="M250.851,69.697c0,0-7.493-3.029-10.921-11.043C243.272,59.675,250.826,63.008,250.851,69.697z"/>
		<path fill="none" stroke="#231F20" stroke-width="0.38" d="M250.851,69.697c0,0-7.493-3.029-10.921-11.043  C243.272,59.675,250.826,63.008,250.851,69.697z"/>
		<path fill="none" stroke="#231F20" stroke-width="0.304" stroke-linecap="round" stroke-linejoin="round" d="M269.596,39.541  l0.348,3.547 M274.564,39.044l0.193,3.547 M290.789,39.585l-0.362,3.546 M285.825,39.068l-0.209,3.546 M294.353,36.907l-0.817,3.292   M289.212,36.01l-0.514,3.166 M283.184,35.288l-0.007,3.521 M266.042,36.848l0.805,3.295 M271.188,35.973l0.499,3.168   M277.218,35.275l-0.007,3.521 M280.205,38.803l-0.008,3.67"/>
		<path fill="#231F20" d="M274.739,35.889l-1.851-4.688l-1.53,0.206l1.917,4.799c-0.321,0.261-0.525,0.64-0.526,1.063  c-0.001,0.791,0.704,1.434,1.574,1.436c0.871,0.002,1.579-0.638,1.58-1.429C275.905,36.612,275.41,36.054,274.739,35.889"/>
		<path fill="#231F20" d="M285.674,35.911l1.869-4.681l1.529,0.212l-1.937,4.791c0.32,0.263,0.521,0.642,0.521,1.065  c-0.001,0.791-0.708,1.431-1.579,1.43c-0.871-0.002-1.574-0.645-1.572-1.436C284.506,36.629,285.002,36.074,285.674,35.911"/>
		<path fill="#231F20" d="M254.373,81.688c0,0-5.275,2.724-12.157-1.584C247.16,78.278,251.341,77.298,254.373,81.688z"/>
		<path fill="none" stroke="#231F20" stroke-width="0.38" d="M254.373,81.688c0,0-5.275,2.724-12.157-1.584  C247.16,78.278,251.341,77.298,254.373,81.688z"/>
		<path fill="#93C0B7" d="M254.575,81.689c0,0-5.478,2.723-12.359-1.585C245.766,78.426,250.732,78.235,254.575,81.689z"/>
		<path fill="none" stroke="#231F20" stroke-width="0.38" d="M254.575,81.689c0,0-5.478,2.723-12.359-1.585  C245.766,78.426,250.732,78.235,254.575,81.689z"/>
		<path fill="#93C0B7" d="M257.954,77.617c0,0-3.939-2.609-4.69-10.802C257.59,69.255,259.024,74.654,257.954,77.617z"/>
		<path fill="none" stroke="#231F20" stroke-width="0.38" d="M257.954,77.617c0,0-3.939-2.609-4.69-10.802  C257.59,69.255,259.024,74.654,257.954,77.617z"/>
		<path fill="#93C0B7" d="M254.999,75.497c0,0-3.288,1.095-10.488-2.465C249.378,71.139,254.391,72.668,254.999,75.497z"/>
		<path fill="none" stroke="#231F20" stroke-width="0.38" d="M254.999,75.497c0,0-3.288,1.095-10.488-2.465  C249.378,71.139,254.391,72.668,254.999,75.497z"/>
		<path fill="#231F20" d="M250.064,65.06c0.002-0.722,0.588-1.305,1.31-1.303c0.721,0.001,1.305,0.587,1.304,1.309  c-0.002,0.722-0.588,1.304-1.31,1.303C250.647,66.367,250.063,65.782,250.064,65.06"/>
		<path fill="#FFFFFF" d="M251.062,65.067c0.338,0.001,0.61-0.193,0.611-0.434c0-0.24-0.272-0.437-0.609-0.438  c-0.336,0-0.609,0.194-0.609,0.435C250.454,64.871,250.726,65.067,251.062,65.067"/>
		<path fill="#FFFFFF" d="M256.222,57.145c0.269,0.001,0.488-0.154,0.488-0.347s-0.218-0.349-0.487-0.35  c-0.269,0-0.487,0.155-0.487,0.348S255.953,57.145,256.222,57.145"/>
		<path fill="#231F20" d="M251.313,84.581c0.002-0.721,0.587-1.305,1.309-1.303c0.721,0.001,1.304,0.587,1.303,1.308  c-0.002,0.721-0.587,1.305-1.308,1.304C251.894,85.887,251.312,85.301,251.313,84.581"/>
		<path fill="#FFFFFF" d="M252.311,84.586c0.336,0.001,0.609-0.193,0.61-0.434c0-0.24-0.272-0.436-0.608-0.437  c-0.337-0.001-0.61,0.194-0.61,0.435C251.702,84.391,251.974,84.585,252.311,84.586"/>
		<path fill="none" stroke="#231F20" stroke-width="0.714" d="M255.039,53.366c-1.894,4.345,0.99,8.388,3.323,9.837"/>
		<path fill="#599E90" d="M254.365,49.958c0,0-4.186-2.434-0.888-13.125C255.082,39.974,257.212,44.52,254.365,49.958z"/>
		<path fill="none" stroke="#231F20" stroke-width="0.38" d="M254.365,49.958c0,0-4.186-2.434-0.888-13.125  C255.082,39.974,257.212,44.52,254.365,49.958z"/>
		<path fill="#231F20" d="M254.436,50.78c0,0-4.861-1.53-4.229-12.701C253.542,41.811,255.892,44.817,254.436,50.78z"/>
		<path fill="none" stroke="#231F20" stroke-width="0.38" d="M254.436,50.78c0,0-4.861-1.53-4.229-12.701  C253.542,41.811,255.892,44.817,254.436,50.78z"/>
		<path fill="#93C0B7" d="M254.132,50.78c0,0-4.784-1.911-4.153-13.081C252.292,40.364,255.588,44.817,254.132,50.78z"/>
		<path fill="none" stroke="#231F20" stroke-width="0.38" d="M254.132,50.78c0,0-4.784-1.911-4.153-13.081  C252.292,40.364,255.588,44.817,254.132,50.78z"/>
		<path fill="#93C0B7" d="M254.708,54.454c0,0-2.33-4.898,3.534-11.911C258.869,45.42,258.591,51.242,254.708,54.454z"/>
		<path fill="none" stroke="#231F20" stroke-width="0.38" d="M254.708,54.454c0,0-2.33-4.898,3.534-11.911  C258.869,45.42,258.591,51.242,254.708,54.454z"/>
		<path fill="#599E90" d="M254.295,57.925c0,0-6.927-1.115-10.363-8.294C250.464,50.099,253.033,52.831,254.295,57.925z"/>
		<path fill="none" stroke="#231F20" stroke-width="0.38" d="M254.295,57.925c0,0-6.927-1.115-10.363-8.294  C250.464,50.099,253.033,52.831,254.295,57.925z"/>
		<path fill="#FFFFFF" d="M254.373,81.688c0,0,2.584,0.106,3.876-0.271"/>
		<path fill="none" stroke="#231F20" stroke-width="0.714" d="M254.373,81.688c0,0,2.584,0.106,3.876-0.271"/>
		<path fill="none" stroke="#231F20" stroke-width="0.714" d="M257.979,77.287c0,0,1.87,2.562,3.846,2.77"/>
		<path fill="none" stroke="#231F20" stroke-width="0.38" d="M251.821,65.899c0.835,0.989,1.058,3.193,0.144,4.181"/>
		<path fill="#231F20" d="M309.12,86.996c0.524-0.105,0.82-0.829,0.625-1.795c-0.194-0.968-0.778-1.666-1.303-1.56  c-0.523,0.105-0.791,0.975-0.596,1.942C308.042,86.55,308.595,87.102,309.12,86.996z"/>
		<path fill="none" stroke="#231F20" stroke-width="0.38" stroke-linejoin="round" d="M309.12,86.996  c0.524-0.105,0.82-0.829,0.625-1.795c-0.194-0.968-0.778-1.666-1.303-1.56c-0.523,0.105-0.791,0.975-0.596,1.942  C308.042,86.55,308.595,87.102,309.12,86.996z"/>
		<path fill="#FFFFFF" d="M308.753,85.018c0.59-0.119,0.998-0.354,0.91-0.828c-0.099-0.546-0.676-0.835-1.266-0.716  c-0.591,0.118-0.977,0.603-0.869,1.146C307.613,85.052,308.164,85.136,308.753,85.018z"/>
		<path fill="none" stroke="#231F20" stroke-width="0.38" stroke-linejoin="round" d="M308.753,85.018  c0.59-0.119,0.998-0.354,0.91-0.828c-0.099-0.546-0.676-0.835-1.266-0.716c-0.591,0.118-0.977,0.603-0.869,1.146  C307.613,85.052,308.164,85.136,308.753,85.018z"/>
		<path fill="#231F20" d="M295.444,94.196c0.524-0.106,0.82-0.83,0.626-1.796c-0.195-0.969-0.778-1.665-1.303-1.56  s-0.792,0.976-0.597,1.942C294.367,93.749,294.92,94.301,295.444,94.196z"/>
		<path fill="none" stroke="#231F20" stroke-width="0.38" stroke-linejoin="round" d="M295.444,94.196  c0.524-0.106,0.82-0.83,0.626-1.796c-0.195-0.969-0.778-1.665-1.303-1.56s-0.792,0.976-0.597,1.942  C294.367,93.749,294.92,94.301,295.444,94.196z"/>
		<path fill="#FFFFFF" d="M295.078,92.217c0.59-0.119,0.998-0.354,0.911-0.829c-0.1-0.546-0.677-0.835-1.267-0.716  c-0.59,0.12-0.977,0.604-0.869,1.148C293.937,92.25,294.487,92.335,295.078,92.217z"/>
		<path fill="none" stroke="#231F20" stroke-width="0.38" stroke-linejoin="round" d="M295.078,92.217  c0.59-0.119,0.998-0.354,0.911-0.829c-0.1-0.546-0.677-0.835-1.267-0.716c-0.59,0.12-0.977,0.604-0.869,1.148  C293.937,92.25,294.487,92.335,295.078,92.217z"/>
		<path fill="#FFFFFF" d="M308.857,85.987l0.515-0.835l-0.855,0.264l-0.57-0.114c0.192,0.87,0.837,1.576,1.2,1.543L308.857,85.987z"/>
		<path fill="none" stroke="#FFFFFF" stroke-width="0.152" stroke-linejoin="round" d="M308.857,85.987l0.515-0.835l-0.855,0.264  l-0.57-0.114c0.192,0.87,0.837,1.576,1.2,1.543L308.857,85.987z"/>
		<path fill="#FFFFFF" d="M295.39,93.198l-0.226-0.784l0.719-0.143c0.151,0.976-0.425,1.763-0.571,1.737L295.39,93.198z"/>
		<path fill="none" stroke="#FFFFFF" stroke-width="0.152" stroke-linejoin="round" d="M295.39,93.198l-0.226-0.784l0.719-0.143  c0.151,0.976-0.425,1.763-0.571,1.737L295.39,93.198z"/>
		<path fill="#FFFFFF" d="M304.031,49.002l0.201-0.38c-0.693-0.301-1.54-0.068-1.623,0.198L304.031,49.002z"/>
		<path fill="none" stroke="#FFFFFF" stroke-width="0.116" stroke-linejoin="round" d="M304.031,49.002l0.201-0.38  c-0.693-0.301-1.54-0.068-1.623,0.198L304.031,49.002z"/>
		<path fill="#231F20" d="M307.959,64.854c-0.504,0.182-0.69,0.94-0.356,1.869c0.335,0.928,1.014,1.532,1.518,1.351  c0.503-0.182,0.641-1.08,0.305-2.008C309.091,65.138,308.462,64.672,307.959,64.854z"/>
		<path fill="none" stroke="#231F20" stroke-width="0.38" stroke-linejoin="round" d="M307.959,64.854  c-0.504,0.182-0.69,0.94-0.356,1.869c0.335,0.928,1.014,1.532,1.518,1.351c0.503-0.182,0.641-1.08,0.305-2.008  C309.091,65.138,308.462,64.672,307.959,64.854z"/>
		<path fill="#FFFFFF" d="M308.612,66.758c-0.565,0.203-0.936,0.495-0.78,0.951c0.178,0.526,0.792,0.728,1.357,0.523  c0.566-0.203,0.877-0.739,0.693-1.262C309.734,66.558,309.178,66.553,308.612,66.758z"/>
		<path fill="none" stroke="#231F20" stroke-width="0.38" stroke-linejoin="round" d="M308.612,66.758  c-0.565,0.203-0.936,0.495-0.78,0.951c0.178,0.526,0.792,0.728,1.357,0.523c0.566-0.203,0.877-0.739,0.693-1.262  C309.734,66.558,309.178,66.553,308.612,66.758z"/>
		<path fill="#FFFFFF" d="M308.4,66.545l0.928-0.247c-0.368-0.916-1.014-1.358-1.364-1.258L308.4,66.545z"/>
		<path fill="none" stroke="#FFFFFF" stroke-width="0.152" stroke-linejoin="round" d="M308.4,66.545l0.928-0.247  c-0.368-0.916-1.014-1.358-1.364-1.258L308.4,66.545z"/>
		<path fill="none" stroke="#231F20" stroke-width="0.38" stroke-linecap="round" d="M294.144,88.902c0,0,0.654,0.817,0.68,2.071   M307.648,82.506c0,0,0.797,0.763,0.871,1.37 M309.065,67.927c0.095,0.143,0.225,1.612-0.328,2.219"/>
		<path fill="none" stroke="#231F20" stroke-width="0.714" d="M309.285,80.915c0,0-1.14,0.225-1.789,1.44  c-0.648,1.214-1.486,2.885-2.438,3.263c-0.95,0.378-2.03,1.54-3.801,0.904c-0.68-0.245-2.471-0.196-2.812-0.196  c-0.342-0.001-1.861-0.535-2.431-0.765"/>
		<path fill="#231F20" d="M280.417,103.022c25.476-19.861,22.173-39.907,21.596-54.703c-0.029-0.76-0.352-1.114-0.959-1.318  c-1.666-0.56-10.127-3.52-20.514-3.542c-10.388-0.021-18.86,2.904-20.527,3.457c-0.608,0.202-0.934,0.555-0.966,1.314  C258.409,63.024,255.023,83.056,280.417,103.022z"/>
		<path fill="none" stroke="#231F20" stroke-width="0.608" d="M280.417,103.022c25.476-19.861,22.173-39.907,21.596-54.703  c-0.029-0.76-0.352-1.114-0.959-1.318c-1.666-0.56-10.127-3.52-20.514-3.542c-10.388-0.021-18.86,2.904-20.527,3.457  c-0.608,0.202-0.934,0.555-0.966,1.314C258.409,63.024,255.023,83.056,280.417,103.022z"/>
		<path fill="#FFFFFF" d="M280.069,102.818c25.476-19.858,22.173-39.778,21.596-54.574c-0.03-0.763-0.353-1.117-0.96-1.32  c-1.665-0.559-10.127-3.52-20.514-3.542c-10.388-0.021-18.859,2.904-20.527,3.457c-0.608,0.201-0.933,0.554-0.966,1.316  C258.059,62.948,254.673,82.854,280.069,102.818z"/>
		<path fill="none" stroke="#231F20" stroke-width="0.38" d="M280.069,102.818c25.476-19.858,22.173-39.778,21.596-54.574  c-0.03-0.763-0.353-1.117-0.96-1.32c-1.665-0.559-10.127-3.52-20.514-3.542c-10.388-0.021-18.859,2.904-20.527,3.457  c-0.608,0.201-0.933,0.554-0.966,1.316C258.059,62.948,254.673,82.854,280.069,102.818z"/>
		<path fill="none" stroke="#231F20" stroke-width="0.532" stroke-linecap="round" stroke-linejoin="round" d="M296.24,37.271  c0,0-6.354-2.036-16.031-2.056c-9.678-0.02-16.041,1.989-16.041,1.989 M295.118,40.601c0,0-5.239-1.856-14.917-1.876  s-14.926,1.815-14.926,1.815"/>
		<path fill="#231F20" d="M261.054,48.642l-0.046,0.879c0,0-0.098,1.886-0.098,1.881c-0.392,6.953-0.834,14.833,1.508,23.073  c2.642,9.299,8.421,17.555,17.654,25.225c9.265-7.632,15.079-15.863,17.761-25.151c2.374-8.23,1.964-16.113,1.602-23.071  l-0.122-2.654c-7.982-2.593-14.791-3.259-19.128-3.268C275.849,45.546,269.048,46.082,261.054,48.642z"/>
		<path fill="none" stroke="#231F20" stroke-width="0.388" d="M261.054,48.642l-0.046,0.879c0,0-0.098,1.886-0.098,1.881  c-0.392,6.953-0.834,14.833,1.508,23.073c2.642,9.299,8.421,17.555,17.654,25.225c9.265-7.632,15.079-15.863,17.761-25.151  c2.374-8.23,1.964-16.113,1.602-23.071l-0.122-2.654c-7.982-2.593-14.791-3.259-19.128-3.268  C275.849,45.546,269.048,46.082,261.054,48.642z"/>
		<path fill="#FFFFFF" d="M261.209,48.719l-0.046,0.879c0,0-0.099,1.887-0.098,1.883c-0.392,6.952-0.835,14.832,1.507,23.073  c2.642,9.297,8.422,17.554,17.655,25.222c9.265-7.63,15.079-15.862,17.76-25.148c2.375-8.231,1.964-16.113,1.602-23.071  l-0.131-2.758c-7.983-2.592-14.782-3.155-19.118-3.165C276.003,45.625,269.203,46.159,261.209,48.719z"/>
		<path fill="none" stroke="#231F20" stroke-width="0.388" d="M261.209,48.719l-0.046,0.879c0,0-0.099,1.887-0.098,1.883  c-0.392,6.952-0.835,14.832,1.507,23.073c2.642,9.297,8.422,17.554,17.655,25.222c9.265-7.63,15.079-15.862,17.76-25.148  c2.375-8.231,1.964-16.113,1.602-23.071l-0.131-2.758c-7.983-2.592-14.782-3.155-19.118-3.165  C276.003,45.625,269.203,46.159,261.209,48.719z"/>
		<path fill="#231F20" d="M262.413,51.549L262.413,51.549c-0.386,6.857-0.823,14.632,1.463,22.678  c2.503,8.805,7.907,16.662,16.511,23.991c8.633-7.293,14.071-15.129,16.609-23.922c2.319-8.039,1.915-15.815,1.557-22.683  l-0.092-1.929c-7.517-2.338-13.892-2.848-17.968-2.856s-10.452,0.476-17.979,2.782c-0.002,0.031-0.003,0.05-0.003,0.05  L262.413,51.549z"/>
		<path fill="none" stroke="#231F20" stroke-width="0.388" d="M262.413,51.549L262.413,51.549c-0.386,6.857-0.823,14.632,1.463,22.678  c2.503,8.805,7.907,16.662,16.511,23.991c8.633-7.293,14.071-15.129,16.609-23.922c2.319-8.039,1.915-15.815,1.557-22.683  l-0.092-1.929c-7.517-2.338-13.892-2.848-17.968-2.856s-10.452,0.476-17.979,2.782c-0.002,0.031-0.003,0.05-0.003,0.05  L262.413,51.549z"/>
		<path fill="#FFFFFF" d="M262.914,51.965L262.914,51.965c-0.379,6.723-0.808,14.344,1.436,22.231  c2.451,8.633,7.751,16.335,16.186,23.521c8.465-7.151,13.795-14.832,16.284-23.454c2.274-7.88,1.877-15.505,1.525-22.238l-0.09-1.89  c-7.37-2.292-13.619-2.792-17.615-2.801c-3.997-0.008-10.248,0.466-17.627,2.728c-0.002,0.03-0.003,0.049-0.003,0.049  L262.914,51.965z"/>
		<path fill="none" stroke="#231F20" stroke-width="0.152" d="M262.914,51.965L262.914,51.965c-0.379,6.723-0.808,14.344,1.436,22.231  c2.451,8.633,7.751,16.335,16.186,23.521c8.465-7.151,13.795-14.832,16.284-23.454c2.274-7.88,1.877-15.505,1.525-22.238l-0.09-1.89  c-7.37-2.292-13.619-2.792-17.615-2.801c-3.997-0.008-10.248,0.466-17.627,2.728c-0.002,0.03-0.003,0.049-0.003,0.049  L262.914,51.965z"/>
		<path fill="none" stroke="#231F20" stroke-width="0.38" stroke-linecap="round" d="M305.208,49.488c0,0,0.835,0.202,1.043,0.734"/>
		<g>
			<defs>
				<path id="SVGID_1_" d="M263.012,50.063c-0.002,0.03-0.003,0.049-0.003,0.049l-0.096,1.853c-0.379,6.723-0.808,14.344,1.436,22.231    c2.451,8.633,7.751,16.335,16.186,23.521c5.385-4.55,9.443-9.347,12.367-14.432L263.012,50.063"/>
			</defs>
			<clipPath id="SVGID_2_">
				<use xlink:href="#SVGID_1_" overflow="visible"/>
			</clipPath>
			<path clip-path="url(#SVGID_2_)" fill="none" stroke="#231F20" stroke-width="0.62" d="M260.902,98.125l32.87,0.068    M260.907,95.851l32.87,0.068 M260.912,93.577l32.87,0.068 M260.917,91.303l32.869,0.068 M260.921,89.029l32.869,0.068    M260.926,86.755l32.869,0.068 M260.93,84.481l32.87,0.068 M260.935,82.208l32.87,0.068 M260.94,79.933l32.869,0.068    M260.945,77.66l32.869,0.068 M260.95,75.385l32.869,0.068 M260.954,73.111l32.87,0.068 M260.958,70.837l32.87,0.068    M260.963,68.563l32.87,0.068 M260.968,66.29l32.869,0.068 M260.973,64.015l32.869,0.068 M260.978,61.742l32.869,0.068    M260.982,59.467l32.87,0.068 M260.987,57.193l32.87,0.068 M260.992,54.919l32.869,0.068 M260.997,52.645l32.869,0.068"/>
			<path clip-path="url(#SVGID_2_)" fill="none" stroke="#231F20" stroke-miterlimit="3.864" d="M262.556,50.062   c-0.002,0.03-0.003,0.049-0.003,0.049l-0.097,1.852h0.001h-0.001c-0.378,6.724-0.806,14.345,1.436,22.232   c2.453,8.633,7.753,16.335,16.187,23.521c5.385-4.55,9.502-9.313,12.425-14.398L262.556,50.062z"/>
		</g>
		<g>
			<defs>
				<path id="SVGID_3_" d="M262.663,49.611c-0.002,0.031-0.003,0.05-0.003,0.05l-0.098,1.889c-0.387,6.858-0.822,14.632,1.463,22.679    c2.502,8.804,7.907,16.662,16.51,23.991c5.493-4.643,9.691-9.501,12.674-14.686L262.663,49.611"/>
			</defs>
			<clipPath id="SVGID_4_">
				<use xlink:href="#SVGID_3_" overflow="visible"/>
			</clipPath>
			<g clip-path="url(#SVGID_4_)">
				<defs>
					<path id="SVGID_5_" d="M263.012,50.063c-0.002,0.03-0.003,0.049-0.003,0.049l-0.096,1.853     c-0.379,6.723-0.808,14.344,1.436,22.231c2.451,8.633,7.751,16.335,16.186,23.521c5.385-4.55,9.443-9.347,12.367-14.432     L263.012,50.063"/>
				</defs>
				<clipPath id="SVGID_6_">
					<use xlink:href="#SVGID_5_" overflow="visible"/>
				</clipPath>
				<polyline clip-path="url(#SVGID_6_)" fill="#3191BE" points="291.477,88.276 286.971,100.576 249.082,86.696 253.587,74.395     291.477,88.276   "/>
			</g>
		</g>
		<g>
			<defs>
				<polyline id="SVGID_7_" points="300.667,63.187 291.423,89.417 253.64,74.258 262.777,49.307 300.667,63.187   "/>
			</defs>
			<clipPath id="SVGID_8_">
				<use xlink:href="#SVGID_7_" overflow="visible"/>
			</clipPath>
			<g clip-path="url(#SVGID_8_)">
				<defs>
					<path id="SVGID_9_" d="M262.663,49.611c-0.002,0.031-0.003,0.05-0.003,0.05l-0.098,1.889c-0.387,6.858-0.822,14.632,1.463,22.679     c2.502,8.804,7.907,16.662,16.51,23.991c5.493-4.643,9.691-9.501,12.674-14.686L262.663,49.611"/>
				</defs>
				<clipPath id="SVGID_10_">
					<use xlink:href="#SVGID_9_" overflow="visible"/>
				</clipPath>
				<g clip-path="url(#SVGID_10_)">
					<defs>
						<path id="SVGID_11_" d="M263.012,50.063c-0.002,0.03-0.003,0.049-0.003,0.049l-0.096,1.853      c-0.379,6.723-0.808,14.344,1.436,22.231c2.451,8.633,7.751,16.335,16.186,23.521c5.385-4.55,9.443-9.347,12.367-14.432      L263.012,50.063"/>
					</defs>
					<clipPath id="SVGID_12_">
						<use xlink:href="#SVGID_11_" overflow="visible"/>
					</clipPath>
					<polyline clip-path="url(#SVGID_12_)" fill="#FFFFFF" points="262.607,49.779 300.806,63.773 300.979,63.299 262.781,49.307         "/>
					<polyline clip-path="url(#SVGID_12_)" fill="#F8FBFC" points="262.436,50.247 300.635,64.239 300.808,63.766 262.61,49.772         "/>
					<polyline clip-path="url(#SVGID_12_)" fill="#F5F7FA" points="262.265,50.712 300.464,64.706 300.637,64.231 262.439,50.239         "/>
					<polyline clip-path="url(#SVGID_12_)" fill="#F0F4F8" points="262.095,51.178 300.293,65.172 300.467,64.699 262.268,50.706         "/>
					<polyline clip-path="url(#SVGID_12_)" fill="#EDF1F7" points="261.924,51.645 300.123,65.637 300.296,65.166 262.097,51.172         "/>
					<polyline clip-path="url(#SVGID_12_)" fill="#E9EFF5" points="261.753,52.111 299.952,66.104 300.125,65.63 261.926,51.638         "/>
					<polyline clip-path="url(#SVGID_12_)" fill="#E6EDF4" points="261.583,52.579 299.782,66.57 299.955,66.097 261.755,52.104         "/>
					<polyline clip-path="url(#SVGID_12_)" fill="#E2EAF2" points="261.412,53.044 299.611,67.037 299.784,66.563 261.585,52.571         "/>
					<polyline clip-path="url(#SVGID_12_)" fill="#DFE8F1" points="261.241,53.51 299.439,67.503 299.613,67.029 261.415,53.038         "/>
					<polyline clip-path="url(#SVGID_12_)" fill="#DBE5EF" points="261.07,53.976 299.268,67.969 299.443,67.497 261.244,53.503         "/>
					<polyline clip-path="url(#SVGID_12_)" fill="#D8E3EE" points="260.9,54.443 299.097,68.435 299.271,67.962 261.073,53.969    "/>
					<polyline clip-path="url(#SVGID_12_)" fill="#D4E0EC" points="260.728,54.91 298.926,68.902 299.1,68.428 260.902,54.435    "/>
					<polyline clip-path="url(#SVGID_12_)" fill="#D1DEEC" points="260.558,55.375 298.756,69.369 298.929,68.895 260.731,54.902         "/>
					<polyline clip-path="url(#SVGID_12_)" fill="#CDDCEA" points="260.387,55.841 298.585,69.834 298.758,69.36 260.56,55.369    "/>
					<polyline clip-path="url(#SVGID_12_)" fill="#CADAE9" points="260.216,56.308 298.416,70.301 298.587,69.828 260.39,55.834         "/>
					<polyline clip-path="url(#SVGID_12_)" fill="#C6D8E8" points="260.044,56.774 298.244,70.766 298.417,70.294 260.219,56.301         "/>
					<polyline clip-path="url(#SVGID_12_)" fill="#C3D5E7" points="259.875,57.24 298.073,71.233 298.248,70.759 260.048,56.767         "/>
					<polyline clip-path="url(#SVGID_12_)" fill="#BFD3E5" points="259.704,57.708 297.902,71.7 298.076,71.226 259.876,57.233    "/>
					<polyline clip-path="url(#SVGID_12_)" fill="#BCD2E4" points="259.533,58.173 297.732,72.166 297.905,71.694 259.706,57.701         "/>
					<polyline clip-path="url(#SVGID_12_)" fill="#B8CFE3" points="259.362,58.639 297.561,72.632 297.734,72.159 259.535,58.167         "/>
					<polyline clip-path="url(#SVGID_12_)" fill="#B5CDE2" points="259.191,59.106 297.39,73.098 297.563,72.625 259.365,58.632         "/>
					<polyline clip-path="url(#SVGID_12_)" fill="#B1CBE0" points="259.02,59.573 297.219,73.564 297.392,73.091 259.194,59.098         "/>
					<polyline clip-path="url(#SVGID_12_)" fill="#AEC9DF" points="258.85,60.039 297.048,74.032 297.221,73.557 259.023,59.564         "/>
					<polyline clip-path="url(#SVGID_12_)" fill="#ABC7DF" points="258.679,60.504 296.877,74.498 297.051,74.024 258.852,60.032         "/>
					<polyline clip-path="url(#SVGID_12_)" fill="#A7C5DD" points="258.508,60.97 296.707,74.963 296.88,74.49 258.681,60.498    "/>
					<polyline clip-path="url(#SVGID_12_)" fill="#A4C3DC" points="258.337,61.437 296.537,75.43 296.709,74.957 258.51,60.963    "/>
					<polyline clip-path="url(#SVGID_12_)" fill="#A0C1DB" points="258.167,61.904 296.366,75.895 296.539,75.423 258.34,61.43    "/>
					<polyline clip-path="url(#SVGID_12_)" fill="#9DBFDA" points="257.996,62.37 296.195,76.363 296.368,75.888 258.169,61.896         "/>
					<polyline clip-path="url(#SVGID_12_)" fill="#99BDD9" points="257.824,62.836 296.023,76.829 296.197,76.355 257.999,62.363         "/>
					<polyline clip-path="url(#SVGID_12_)" fill="#97BBD8" points="257.654,63.302 295.852,77.294 296.027,76.823 257.828,62.83         "/>
					<polyline clip-path="url(#SVGID_12_)" fill="#93BAD7" points="257.483,63.768 295.681,77.761 295.855,77.288 257.656,63.295         "/>
					<polyline clip-path="url(#SVGID_12_)" fill="#90B7D6" points="257.312,64.235 295.51,78.227 295.684,77.754 257.485,63.761         "/>
					<polyline clip-path="url(#SVGID_12_)" fill="#8CB6D5" points="257.141,64.702 295.34,78.694 295.513,78.22 257.315,64.227    "/>
					<polyline clip-path="url(#SVGID_12_)" fill="#89B4D4" points="256.97,65.167 295.169,79.161 295.342,78.686 257.144,64.694         "/>
					<polyline clip-path="url(#SVGID_12_)" fill="#85B2D2" points="256.799,65.633 294.999,79.625 295.171,79.154 256.973,65.161         "/>
					<polyline clip-path="url(#SVGID_12_)" fill="#83B1D2" points="256.629,66.099 294.828,80.092 295.001,79.619 256.802,65.626         "/>
					<polyline clip-path="url(#SVGID_12_)" fill="#7FAFD0" points="256.458,66.567 294.657,80.559 294.831,80.085 256.631,66.092         "/>
					<polyline clip-path="url(#SVGID_12_)" fill="#7CADCF" points="256.288,67.033 294.486,81.025 294.66,80.552 256.46,66.559    "/>
					<polyline clip-path="url(#SVGID_12_)" fill="#78ABCE" points="256.117,67.499 294.316,81.492 294.489,81.017 256.291,67.026         "/>
					<polyline clip-path="url(#SVGID_12_)" fill="#76AACD" points="255.946,67.965 294.145,81.958 294.318,81.485 256.12,67.492         "/>
					<polyline clip-path="url(#SVGID_12_)" fill="#71A8CD" points="255.775,68.431 293.974,82.423 294.147,81.952 255.949,67.958         "/>
					<polyline clip-path="url(#SVGID_12_)" fill="#6FA6CB" points="255.604,68.897 293.802,82.89 293.977,82.417 255.778,68.424         "/>
					<polyline clip-path="url(#SVGID_12_)" fill="#6AA5CB" points="255.433,69.365 293.631,83.357 293.806,82.883 255.607,68.89         "/>
					<polyline clip-path="url(#SVGID_12_)" fill="#67A3C9" points="255.262,69.831 293.46,83.823 293.634,83.349 255.435,69.358         "/>
					<polyline clip-path="url(#SVGID_12_)" fill="#63A2C9" points="255.091,70.296 293.291,84.29 293.463,83.816 255.265,69.823         "/>
					<polyline clip-path="url(#SVGID_12_)" fill="#5FA0C8" points="254.92,70.762 293.12,84.754 293.292,84.283 255.094,70.29    "/>
					<polyline clip-path="url(#SVGID_12_)" fill="#5C9EC7" points="254.75,71.229 292.949,85.221 293.122,84.748 254.923,70.755         "/>
					<polyline clip-path="url(#SVGID_12_)" fill="#579DC6" points="254.58,71.696 292.778,85.689 292.952,85.214 254.752,71.221         "/>
					<polyline clip-path="url(#SVGID_12_)" fill="#549BC5" points="254.409,72.162 292.607,86.154 292.781,85.681 254.582,71.689         "/>
					<polyline clip-path="url(#SVGID_12_)" fill="#4F9AC4" points="254.238,72.627 292.436,86.621 292.61,86.147 254.411,72.155         "/>
					<polyline clip-path="url(#SVGID_12_)" fill="#4C99C3" points="254.067,73.094 292.266,87.087 292.439,86.614 254.24,72.621         "/>
					<polyline clip-path="url(#SVGID_12_)" fill="#4797C2" points="253.896,73.561 292.095,87.552 292.268,87.081 254.07,73.087         "/>
					<polyline clip-path="url(#SVGID_12_)" fill="#4296C1" points="253.725,74.027 291.924,88.02 292.097,87.545 253.899,73.553         "/>
					<polyline clip-path="url(#SVGID_12_)" fill="#3D94C0" points="253.554,74.494 291.753,88.487 291.927,88.012 253.728,74.02         "/>
					<polyline clip-path="url(#SVGID_12_)" fill="#3893BF" points="253.384,74.959 291.582,88.952 291.756,88.48 253.557,74.487         "/>
					<polyline clip-path="url(#SVGID_12_)" fill="#3191BE" points="253.213,75.425 291.412,89.418 291.585,88.945 253.386,74.952         "/>
				</g>
			</g>
		</g>
		<g>
			<defs>
				<path id="SVGID_13_" d="M263.012,50.063c-0.002,0.03-0.003,0.049-0.003,0.049l-0.096,1.853    c-0.379,6.723-0.808,14.344,1.436,22.231c2.451,8.633,7.751,16.335,16.186,23.521c5.385-4.55,9.443-9.347,12.367-14.432    L263.012,50.063"/>
			</defs>
			<clipPath id="SVGID_14_">
				<use xlink:href="#SVGID_13_" overflow="visible"/>
			</clipPath>
			<path clip-path="url(#SVGID_14_)" fill="none" stroke="#231F20" stroke-miterlimit="3.864" d="M262.663,49.611   c-0.002,0.031-0.003,0.05-0.003,0.05l-0.098,1.889c-0.387,6.858-0.822,14.632,1.463,22.679c2.502,8.804,7.907,16.662,16.51,23.991   c5.493-4.643,9.691-9.501,12.674-14.686L262.663,49.611z"/>
		</g>
		<path fill="none" stroke="#231F20" stroke-miterlimit="3.864" d="M263.012,50.063c-0.002,0.03-0.003,0.049-0.003,0.049l-0.096,1.853  c-0.379,6.723-0.808,14.344,1.436,22.231c2.451,8.633,7.751,16.335,16.186,23.521c5.385-4.55,9.443-9.347,12.367-14.432  L263.012,50.063z"/>
		<path fill="none" stroke="#231F20" stroke-width="0.152" d="M262.41,51.549L262.41,51.549c-0.386,6.857-0.823,14.632,1.463,22.678  c2.502,8.805,7.907,16.662,16.511,23.991c8.634-7.293,14.071-15.129,16.609-23.922c2.319-8.039,1.915-15.815,1.557-22.683  l-0.093-1.929c-7.517-2.338-13.892-2.848-17.967-2.856c-4.076-0.008-10.453,0.476-17.979,2.782c-0.002,0.031-0.003,0.05-0.003,0.05  L262.41,51.549z"/>
		<path fill="none" stroke="#231F20" stroke-width="0.93" d="M298.615,49.996c-7.518-2.339-13.891-2.849-17.968-2.857  c-4.076-0.008-10.453,0.476-17.979,2.783c-0.002,0.03-0.102,1.938-0.102,1.938c-0.387,6.858-0.823,14.631,1.464,22.678  c2.502,8.805,7.856,16.127,16.459,23.458"/>
		<path fill="#231F20" d="M256.193,57.101c0.002,0,0.002-0.006,0-0.006c-0.003,0-0.008-0.001-0.01-0.002s-0.002-0.021-0.002-0.048  c0-0.024,0-0.039,0.001-0.04s0.008-0.002,0.012-0.002c0.001,0,0.002-0.006,0-0.006c-0.011,0-0.029-0.002-0.029,0  c-0.002,0.007-0.018,0.041-0.034,0.078c-0.002-0.004-0.03-0.076-0.032-0.078c-0.002-0.001-0.025,0-0.031,0  c-0.002,0-0.002,0.006,0,0.006c0.004,0,0.008,0.001,0.009,0.003c0.004,0.004,0.003,0.005,0.003,0.011  c0,0.005-0.001,0.054-0.001,0.059c0,0.011-0.002,0.015-0.004,0.017c-0.001,0.002-0.007,0.003-0.01,0.003  c-0.001,0-0.001,0.006,0,0.006c0.006,0,0.015,0,0.02,0c0.004,0,0.011,0,0.016,0c0.002,0,0.002-0.006,0-0.006  c-0.001-0.001-0.003-0.001-0.006-0.001c-0.007-0.001-0.008-0.009-0.008-0.016l0.001-0.065c0,0,0.034,0.082,0.034,0.087  c0,0.002,0.008,0.002,0.008,0c0-0.004,0.037-0.087,0.037-0.087c-0.001,0.054-0.001,0.078-0.003,0.08  c-0.001,0.001-0.009,0.001-0.011,0.001c-0.001,0-0.001,0.007,0,0.007c0.004,0,0.014,0,0.022,0  C256.181,57.101,256.188,57.101,256.193,57.101"/>
		<path fill="#231F20" d="M256.242,57.083V57.05c0,0,0.007,0,0.011,0c0.01,0,0.018,0.003,0.019,0.017c0,0.001,0.006,0.003,0.006,0  c0-0.012,0-0.032,0-0.039c0-0.005-0.006-0.003-0.006-0.001c-0.001,0.014-0.004,0.018-0.021,0.018c-0.002,0-0.006,0-0.009-0.001  l0.001-0.039c0.005,0,0.011,0,0.017,0c0.024,0,0.034,0.002,0.033,0.021c-0.002,0,0.006,0.003,0.006,0  c0.001-0.009,0.002-0.018,0.003-0.024c0-0.002-0.001-0.003-0.003-0.003c-0.003,0-0.033,0-0.058,0c-0.007,0-0.023,0-0.028,0  c-0.002,0-0.002,0.006,0,0.006c0.004,0,0.01,0,0.012,0.001c0.002,0.002,0.002,0.026,0.002,0.043c0,0.023,0.001,0.044-0.003,0.046  c-0.002,0.002-0.008,0.002-0.013,0.002c-0.003,0-0.003,0.006,0,0.006c0.005,0,0.017,0,0.023,0c0.034,0,0.058,0.001,0.067-0.001  c0,0,0.001-0.018,0.002-0.027c0-0.002-0.005-0.003-0.006,0c-0.002,0.006-0.005,0.014-0.01,0.019"/>
		<path fill="#231F20" d="M256.359,57.003c0.003,0.001,0.004-0.005,0-0.006c-0.01,0-0.016,0-0.022,0s-0.015,0-0.023,0  c-0.003,0-0.003,0.006,0,0.006c0.006,0,0.012,0,0.014,0.001c0.002,0.002,0.001,0.026,0.001,0.043c0,0.025,0,0.039,0,0.055  c0,0.008-0.001,0.013-0.004,0.014s-0.005-0.001-0.007-0.003s-0.004-0.006-0.009-0.006s-0.008,0.005-0.006,0.01  c0.002,0.006,0.007,0.007,0.012,0.007s0.01-0.003,0.014-0.005c0.014-0.012,0.017-0.024,0.017-0.062c0-0.028,0-0.051,0.001-0.053  C256.346,57.003,256.354,57.003,256.359,57.003"/>
		<path fill="#231F20" d="M259.88,100.851c0.938,0.56,1.42,0.218,1.724-0.25c0.305-0.469-0.326-1.141-0.605-1.268  c-0.677-0.311-1.367-0.624-1.672-0.155C259.023,99.645,259.243,100.469,259.88,100.851"/>
		<path fill="#231F20" d="M300.465,101.03c0.561-0.488,0.574-1.549,0.207-1.97c-0.367-0.42-0.757-0.036-1.317,0.454  c-0.562,0.489-0.6,1.427-0.233,1.85C299.49,101.785,299.904,101.52,300.465,101.03"/>
		<path fill="#231F20" d="M289.884,95.102c0.105,0,0.209,0,0.314,0l0.38,0.001l-0.257-0.096l0.418,0.248  c0.076,0.191,0.256,0.344,0.407,0.344c0.58-0.01,0.893,0.438,1.387,0.581l0.179,0.088c0.173,0.075,0.382,0.019,0.486-0.143  c0.114-0.171,0.058-0.408-0.113-0.522l-0.151-0.096c-0.257-0.22-0.521-0.419-0.854-0.486c-0.238-0.047-0.437-0.153-0.722-0.286  c-0.284-0.124-0.646-0.087-0.958-0.239c-0.209-0.03-0.409,0.113-0.438,0.322c-0.039,0.209,0.103,0.398,0.312,0.437  c0.692,0.211,1.396,0.373,2.032,0.727l0.36,0.257l0.372-0.664l-0.466-0.229c0.019,0.01,0.029,0.02,0.048,0.029  c-0.417-0.286-0.892-0.42-1.357-0.592l-0.427-0.342c-0.077-0.059-0.161-0.097-0.256-0.097l-0.38-0.001c-0.105,0-0.209,0-0.314,0  c-0.208-0.001-0.381,0.171-0.381,0.38C289.504,94.931,289.676,95.101,289.884,95.102z"/>
		<path fill="none" stroke="#231F20" stroke-width="0.38" d="M289.884,95.102c0.105,0,0.209,0,0.314,0l0.38,0.001l-0.257-0.096  l0.418,0.248c0.076,0.191,0.256,0.344,0.407,0.344c0.58-0.01,0.893,0.438,1.387,0.581l0.179,0.088  c0.173,0.075,0.382,0.019,0.486-0.143c0.114-0.171,0.058-0.408-0.113-0.522l-0.151-0.096c-0.257-0.22-0.521-0.419-0.854-0.486  c-0.238-0.047-0.437-0.153-0.722-0.286c-0.284-0.124-0.646-0.087-0.958-0.239c-0.209-0.03-0.409,0.113-0.438,0.322  c-0.039,0.209,0.103,0.398,0.312,0.437c0.692,0.211,1.396,0.373,2.032,0.727l0.36,0.257l0.372-0.664l-0.466-0.229  c0.019,0.01,0.029,0.02,0.048,0.029c-0.417-0.286-0.892-0.42-1.357-0.592l-0.427-0.342c-0.077-0.059-0.161-0.097-0.256-0.097  l-0.38-0.001c-0.105,0-0.209,0-0.314,0c-0.208-0.001-0.381,0.171-0.381,0.38C289.504,94.931,289.676,95.101,289.884,95.102z"/>
		<path fill="#231F20" d="M270.099,94.047c-0.124,0.037-0.239,0.075-0.363,0.114l-0.218,0.266l0.267-0.104h-0.219  c-0.066-0.001-0.124,0.018-0.182,0.046l-0.171,0.105c-0.142,0.074-0.796,0.508-0.758,0.669c0.037,0.209,0.813,0.071,1.022,0.023  l0.2-0.037c0.275-0.123,0.552-0.245,0.818-0.387c0.189-0.085,0.275-0.312,0.181-0.504c-0.086-0.19-0.313-0.267-0.503-0.181  c-0.114,0.057-0.238,0.112-0.353,0.17l-0.494,0.199l0.265,0.702l0.172-0.094l-0.19,0.047h0.219c0.123,0,0.247-0.075,0.313-0.188  l-0.075-0.114c0.113-0.029,0.209-0.342,0.352-0.029c0.199-0.074,0.285-0.302,0.209-0.492  C270.517,94.059,270.289,93.972,270.099,94.047z"/>
		<path fill="none" stroke="#231F20" stroke-width="0.38" d="M270.099,94.047c-0.124,0.037-0.239,0.075-0.363,0.114l-0.218,0.266  l0.267-0.104h-0.219c-0.066-0.001-0.124,0.018-0.182,0.046l-0.171,0.105c-0.142,0.074-0.796,0.508-0.758,0.669  c0.037,0.209,0.813,0.071,1.022,0.023l0.2-0.037c0.275-0.123,0.552-0.245,0.818-0.387c0.189-0.085,0.275-0.312,0.181-0.504  c-0.086-0.19-0.313-0.267-0.503-0.181c-0.114,0.057-0.238,0.112-0.353,0.17l-0.494,0.199l0.265,0.702l0.172-0.094l-0.19,0.047h0.219  c0.123,0,0.247-0.075,0.313-0.188l-0.075-0.114c0.113-0.029,0.209-0.342,0.352-0.029c0.199-0.074,0.285-0.302,0.209-0.492  C270.517,94.059,270.289,93.972,270.099,94.047z"/>
		<path fill="#231F20" d="M308.688,81.232c-0.013,0.055,2.308-0.766,2.722-0.478c0.526,0.367,1.401,0.55,2.047,0.328  c0.395-0.135,0.832-0.439,0.686-0.881c-0.258-0.773,0.899-0.274,1.521-0.56c0.25-0.113,0.674-0.535,0.482-0.941  c-0.413-0.872-2.188-0.487-2.188-0.487L308.688,81.232z"/>
		<path fill="none" stroke="#231F20" stroke-width="0.38" d="M308.688,81.232c-0.013,0.055,2.308-0.766,2.722-0.478  c0.526,0.367,1.401,0.55,2.047,0.328c0.395-0.135,0.832-0.439,0.686-0.881c-0.258-0.773,0.899-0.274,1.521-0.56  c0.25-0.113,0.674-0.535,0.482-0.941c-0.413-0.872-2.188-0.487-2.188-0.487L308.688,81.232z"/>
		<path fill="#B5B27F" d="M308.644,81.211c-0.012,0.056,2.323-1.019,2.735-0.729c0.526,0.367,1.401,0.549,2.049,0.327  c0.393-0.136,0.975-0.518,0.684-0.881c-0.705-0.881,0.902-0.274,1.522-0.559c0.251-0.114,0.474-0.646,0.281-1.05  c-0.414-0.873,1.333-0.177,2.041-0.542c0.316-0.163,0.13-0.793-0.011-1.178c-0.172-0.473,0.717-0.292,1.155-0.683  c-0.259,0.229,1.46-2.392-1.176-1.939c-0.568,0.098-0.938,1.395-1.293,0.846c-0.2-0.309-0.564-0.672-0.759-0.66  c-0.844,0.055-1.273,2.072-1.625,1.567c-0.167-0.24-0.394-0.559-0.55-0.522c-1.484,0.341-1.247,2.412-1.631,1.759  c-0.206-0.35-0.835-0.482-1.18-0.04c-0.42,0.542-0.592,1.516-0.479,2.07C310.507,79.491,308.588,81.201,308.644,81.211z"/>
		<path fill="none" stroke="#231F20" stroke-width="0.38" d="M308.644,81.211c-0.012,0.056,2.323-1.019,2.735-0.729  c0.526,0.367,1.401,0.549,2.049,0.327c0.393-0.136,0.975-0.518,0.684-0.881c-0.705-0.881,0.902-0.274,1.522-0.559  c0.251-0.114,0.474-0.646,0.281-1.05c-0.414-0.873,1.333-0.177,2.041-0.542c0.316-0.163,0.13-0.793-0.011-1.178  c-0.172-0.473,0.717-0.292,1.155-0.683c-0.259,0.229,1.46-2.392-1.176-1.939c-0.568,0.098-0.938,1.395-1.293,0.846  c-0.2-0.309-0.564-0.672-0.759-0.66c-0.844,0.055-1.273,2.072-1.625,1.567c-0.167-0.24-0.394-0.559-0.55-0.522  c-1.484,0.341-1.247,2.412-1.631,1.759c-0.206-0.35-0.835-0.482-1.18-0.04c-0.42,0.542-0.592,1.516-0.479,2.07  C310.507,79.491,308.588,81.201,308.644,81.211z"/>
		<path fill="#231F20" d="M307.532,41.617c0.052,0.038,0.134,0.063,0.253,0.072c0.448,0.036,0.605,0.612,0.579,0.886  c-0.062,0.682-1.069,1.439-0.271,1.6c0.456,0.093,0.502,0.623,0.424,1.031c-0.13,0.671-0.723,1.34-1.302,1.614  c-0.363,0.171-0.642,3.003-0.736,3.65l-0.258-4.211L307.532,41.617z"/>
		<path fill="none" stroke="#231F20" stroke-width="0.38" d="M307.532,41.617c0.052,0.038,0.134,0.063,0.253,0.072  c0.448,0.036,0.605,0.612,0.579,0.886c-0.062,0.682-1.069,1.439-0.271,1.6c0.456,0.093,0.502,0.623,0.424,1.031  c-0.13,0.671-0.723,1.34-1.302,1.614c-0.363,0.171-0.642,3.003-0.736,3.65l-0.258-4.211L307.532,41.617z"/>
		<path fill="#B5B27F" d="M306.337,49.586c0.042,0.039,0.271-2.521,0.726-2.736c0.58-0.274,1.173-0.943,1.302-1.615  c0.078-0.408,0.033-0.938-0.424-1.031c-0.799-0.162,0.21-0.918,0.271-1.599c0.025-0.275-0.131-0.852-0.578-0.886  c-0.962-0.075,0.523-1.143,0.351-1.919c-0.051-0.229-0.399-0.743-0.804-0.813c-0.495-0.086-0.12-0.53-0.241-1.103  c-0.23-1.083-2.081-1.184-2.268,0.054c-0.086,0.571,0.535,1.388-0.117,1.422c-0.366,0.021-0.656,0.276-0.741,0.451  c-0.373,0.759,0.918,2.062,0.306,2.117c-0.292,0.026-0.435,0.137-0.48,0.29c-0.441,1.456,1.228,2.207,0.47,2.215  c-0.406,0.004-0.587,0.559-0.373,1.077c0.261,0.633,1.02,1.267,1.557,1.445C305.771,47.115,306.3,49.629,306.337,49.586z"/>
		<path fill="none" stroke="#231F20" stroke-width="0.38" d="M306.337,49.586c0.042,0.039,0.271-2.521,0.726-2.736  c0.58-0.274,1.173-0.943,1.302-1.615c0.078-0.408,0.033-0.938-0.424-1.031c-0.799-0.162,0.21-0.918,0.271-1.599  c0.025-0.275-0.131-0.852-0.578-0.886c-0.962-0.075,0.523-1.143,0.351-1.919c-0.051-0.229-0.399-0.743-0.804-0.813  c-0.495-0.086-0.12-0.53-0.241-1.103c-0.23-1.083-2.081-1.184-2.268,0.054c-0.086,0.571,0.535,1.388-0.117,1.422  c-0.366,0.021-0.656,0.276-0.741,0.451c-0.373,0.759,0.918,2.062,0.306,2.117c-0.292,0.026-0.435,0.137-0.48,0.29  c-0.441,1.456,1.228,2.207,0.47,2.215c-0.406,0.004-0.587,0.559-0.373,1.077c0.261,0.633,1.02,1.267,1.557,1.445  C305.771,47.115,306.3,49.629,306.337,49.586z"/>
		<path fill="#B5B27F" d="M309.402,70.02c-0.041,0.04,1.177,0.436,1.366,0.903c0.243,0.594,1.046,0.985,1.711,1.15  c0.404,0.1,0.855,0.054,1.054-0.367c0.258-0.55,0.9,0.325,1.582,0.357c0.274,0.013,0.869,0.028,0.974-0.408  c0.172-0.722,0.967,0.4,1.956,0.308c0.232-0.021,0.708-0.244,0.799-0.645c0.112-0.489,0.475-0.181,1.054-0.271  c1.094-0.17,1.293-2.015,0.069-2.268c-0.567-0.115-1.212,0.457-1.212-0.196c0-0.367-0.294-0.617-0.465-0.713  c-0.737-0.412-2.258,0.757-2.278,0.143c-0.01-0.293-0.114-0.44-0.264-0.496c-1.431-0.519-2.269,1.261-2.236,0.506  c0.017-0.407-0.496-0.664-1.026-0.479c-0.646,0.228-1.348,0.844-1.558,1.37C310.743,69.382,309.36,69.98,309.402,70.02z"/>
		<path fill="none" stroke="#231F20" stroke-width="0.38" d="M309.402,70.02c-0.041,0.04,1.177,0.436,1.366,0.903  c0.243,0.594,1.046,0.985,1.711,1.15c0.404,0.1,0.855,0.054,1.054-0.367c0.258-0.55,0.9,0.325,1.582,0.357  c0.274,0.013,0.869,0.028,0.974-0.408c0.172-0.722,0.967,0.4,1.956,0.308c0.232-0.021,0.708-0.244,0.799-0.645  c0.112-0.489,0.475-0.181,1.054-0.271c1.094-0.17,1.293-2.015,0.069-2.268c-0.567-0.115-1.212,0.457-1.212-0.196  c0-0.367-0.294-0.617-0.465-0.713c-0.737-0.412-2.258,0.757-2.278,0.143c-0.01-0.293-0.114-0.44-0.264-0.496  c-1.431-0.519-2.269,1.261-2.236,0.506c0.017-0.407-0.496-0.664-1.026-0.479c-0.646,0.228-1.348,0.844-1.558,1.37  C310.743,69.382,309.36,69.98,309.402,70.02z"/>
		<path fill="#8E883A" d="M300.75,86.014c0.015,0.045,1.211-0.812,1.65-0.751c0.575,0.079,1.52-0.195,1.858-0.632  c0.143-0.185,0.185-0.411-0.05-0.754c-0.402-0.592,0.688-0.586,1.035-1.226c0.106-0.193,0.13-0.365-0.195-0.589  c-0.647-0.45,0.58-0.646,0.885-1.285c0.103-0.212,0.093-0.438-0.253-0.725c-0.339-0.281,0.177-0.612,0.396-1.074  c0.254-0.539-0.205-1.14-0.82-1.375c-0.563-0.214-1.265-0.105-1.488,0.264c-0.31,0.508-0.104,1.094-0.54,0.95  c-0.486-0.158-0.702-0.031-0.841,0.185c-0.472,0.738,0.13,1.75-0.531,1.438c-1.251-0.593-0.215,2.189-1.09,1.683  c-0.69-0.401-0.574,1.429-0.188,2.234C300.725,84.667,300.704,86.026,300.75,86.014z"/>
		<path fill="none" stroke="#231F20" stroke-width="0.38" d="M300.75,86.014c0.015,0.045,1.211-0.812,1.65-0.751  c0.575,0.079,1.52-0.195,1.858-0.632c0.143-0.185,0.185-0.411-0.05-0.754c-0.402-0.592,0.688-0.586,1.035-1.226  c0.106-0.193,0.13-0.365-0.195-0.589c-0.647-0.45,0.58-0.646,0.885-1.285c0.103-0.212,0.093-0.438-0.253-0.725  c-0.339-0.281,0.177-0.612,0.396-1.074c0.254-0.539-0.205-1.14-0.82-1.375c-0.563-0.214-1.265-0.105-1.488,0.264  c-0.31,0.508-0.104,1.094-0.54,0.95c-0.486-0.158-0.702-0.031-0.841,0.185c-0.472,0.738,0.13,1.75-0.531,1.438  c-1.251-0.593-0.215,2.189-1.09,1.683c-0.69-0.401-0.574,1.429-0.188,2.234C300.725,84.667,300.704,86.026,300.75,86.014z"/>
		<path fill="#231F20" d="M254.296,57.468c0,0-4.635,2.663-11.423-1.544C248.274,53.579,250.554,53.963,254.296,57.468z"/>
		<path fill="none" stroke="#231F20" stroke-width="0.38" d="M254.296,57.468c0,0-4.635,2.663-11.423-1.544  C248.274,53.579,250.554,53.963,254.296,57.468z"/>
		<path fill="#93C0B7" d="M254.295,57.925c0,0-5.007,2.356-11.796-1.853C246.911,53.74,250.163,53.942,254.295,57.925z"/>
		<path fill="none" stroke="#231F20" stroke-width="0.38" d="M254.295,57.925c0,0-5.007,2.356-11.796-1.853  C246.911,53.74,250.163,53.942,254.295,57.925z"/>
		<circle fill="#FFFFFF" cx="263.94" cy="98.022" r="0.38"/>
		<circle fill="none" stroke="#231F20" stroke-width="0.456" cx="263.94" cy="98.022" r="0.38"/>
		<circle fill="#FFFFFF" cx="264.549" cy="97.719" r="0.38"/>
		<circle fill="none" stroke="#231F20" stroke-width="0.456" cx="264.549" cy="97.719" r="0.38"/>
		<path fill="#FFFFFF" d="M264.715,97.314c-0.001,0.209,0.169,0.381,0.378,0.381c0.216,0.001,0.381-0.17,0.382-0.379  c0-0.209-0.164-0.38-0.38-0.381C264.886,96.935,264.715,97.105,264.715,97.314z"/>
		<path fill="none" stroke="#231F20" stroke-width="0.456" d="M264.715,97.314c-0.001,0.209,0.169,0.381,0.378,0.381  c0.216,0.001,0.381-0.17,0.382-0.379c0-0.209-0.164-0.38-0.38-0.381C264.886,96.935,264.715,97.105,264.715,97.314z"/>
		<path fill="#FFFFFF" d="M265.804,97.235c0.07-0.045,0.146-0.089,0.215-0.133c0.179-0.114,0.235-0.347,0.128-0.526  c-0.113-0.177-0.348-0.234-0.525-0.121c-0.069,0.044-0.146,0.09-0.215,0.133c-0.178,0.106-0.236,0.342-0.127,0.524  C265.392,97.291,265.626,97.341,265.804,97.235z"/>
		<path fill="none" stroke="#231F20" stroke-width="0.456" d="M265.804,97.235c0.07-0.045,0.146-0.089,0.215-0.133  c0.179-0.114,0.235-0.347,0.128-0.526c-0.113-0.177-0.348-0.234-0.525-0.121c-0.069,0.044-0.146,0.09-0.215,0.133  c-0.178,0.106-0.236,0.342-0.127,0.524C265.392,97.291,265.626,97.341,265.804,97.235z"/>
		<path fill="#FFFFFF" d="M266.369,96.957c0.088-0.031,0.19-0.057,0.267-0.119c0.189-0.089,0.272-0.316,0.184-0.507  c-0.088-0.189-0.31-0.273-0.499-0.185c-0.082,0.056-0.159,0.126-0.267,0.113c-0.19,0.089-0.272,0.315-0.186,0.507  C265.957,96.956,266.178,97.038,266.369,96.957z"/>
		<path fill="none" stroke="#231F20" stroke-width="0.456" d="M266.369,96.957c0.088-0.031,0.19-0.057,0.267-0.119  c0.189-0.089,0.272-0.316,0.184-0.507c-0.088-0.189-0.31-0.273-0.499-0.185c-0.082,0.056-0.159,0.126-0.267,0.113  c-0.19,0.089-0.272,0.315-0.186,0.507C265.957,96.956,266.178,97.038,266.369,96.957z"/>
		<path fill="#FFFFFF" d="M266.838,96.667c0.278-0.119,0.595-0.126,0.854-0.29c0.19-0.088,0.273-0.316,0.179-0.506  c-0.088-0.19-0.316-0.273-0.506-0.185c-0.235,0.139-0.501,0.188-0.761,0.258c-0.202,0.063-0.311,0.278-0.248,0.481  C266.426,96.621,266.635,96.729,266.838,96.667z"/>
		<path fill="none" stroke="#231F20" stroke-width="0.456" d="M266.838,96.667c0.278-0.119,0.595-0.126,0.854-0.29  c0.19-0.088,0.273-0.316,0.179-0.506c-0.088-0.19-0.316-0.273-0.506-0.185c-0.235,0.139-0.501,0.188-0.761,0.258  c-0.202,0.063-0.311,0.278-0.248,0.481C266.426,96.621,266.635,96.729,266.838,96.667z"/>
		<path fill="#FFFFFF" d="M267.91,96.219c0.189-0.114,0.354-0.252,0.5-0.417c0.152-0.141,0.16-0.381,0.015-0.532  c-0.146-0.152-0.387-0.159-0.539-0.014c-0.12,0.127-0.247,0.253-0.406,0.327c-0.171,0.121-0.215,0.355-0.102,0.533  C267.497,96.288,267.731,96.333,267.91,96.219z"/>
		<path fill="none" stroke="#231F20" stroke-width="0.456" d="M267.91,96.219c0.189-0.114,0.354-0.252,0.5-0.417  c0.152-0.141,0.16-0.381,0.015-0.532c-0.146-0.152-0.387-0.159-0.539-0.014c-0.12,0.127-0.247,0.253-0.406,0.327  c-0.171,0.121-0.215,0.355-0.102,0.533C267.497,96.288,267.731,96.333,267.91,96.219z"/>
		<circle fill="#FFFFFF" cx="268.202" cy="95.396" r="0.38"/>
		<circle fill="none" stroke="#231F20" stroke-width="0.456" cx="268.202" cy="95.396" r="0.38"/>
		<circle fill="#FFFFFF" cx="266.477" cy="96.304" r="0.38"/>
		<circle fill="none" stroke="#231F20" stroke-width="0.456" cx="266.477" cy="96.304" r="0.38"/>
		<circle fill="#FFFFFF" cx="267.289" cy="96.205" r="0.38"/>
		<circle fill="none" stroke="#231F20" stroke-width="0.456" cx="267.289" cy="96.205" r="0.38"/>
		<circle fill="#231F20" cx="266.781" cy="96.406" r="0.379"/>
		<circle fill="none" stroke="#231F20" stroke-width="0.456" cx="266.781" cy="96.406" r="0.379"/>
		<circle fill="#231F20" cx="264.549" cy="97.719" r="0.38"/>
		<circle fill="none" stroke="#231F20" stroke-width="0.456" cx="264.549" cy="97.719" r="0.38"/>
		<path fill="#231F20" d="M265.22,97.619c0.076-0.056,0.159-0.112,0.235-0.17c0.164-0.127,0.203-0.367,0.077-0.532  c-0.127-0.171-0.367-0.202-0.532-0.076c-0.076,0.057-0.159,0.113-0.235,0.17c-0.164,0.126-0.196,0.36-0.077,0.532  C264.815,97.707,265.056,97.746,265.22,97.619z"/>
		<path fill="none" stroke="#231F20" stroke-width="0.456" d="M265.22,97.619c0.076-0.056,0.159-0.112,0.235-0.17  c0.164-0.127,0.203-0.367,0.077-0.532c-0.127-0.171-0.367-0.202-0.532-0.076c-0.076,0.057-0.159,0.113-0.235,0.17  c-0.164,0.126-0.196,0.36-0.077,0.532C264.815,97.707,265.056,97.746,265.22,97.619z"/>
		<circle fill="#231F20" cx="294.344" cy="96.667" r="0.38"/>
		<circle fill="none" stroke="#231F20" stroke-width="0.456" cx="294.344" cy="96.667" r="0.38"/>
		<path fill="#231F20" d="M294.671,97.477c0,0.21,0.171,0.382,0.38,0.383c0.209,0,0.38-0.172,0.38-0.382  c0.001-0.208-0.17-0.38-0.379-0.38C294.843,97.097,294.672,97.269,294.671,97.477z"/>
		<path fill="none" stroke="#231F20" stroke-width="0.456" d="M294.671,97.477c0,0.21,0.171,0.382,0.38,0.383  c0.209,0,0.38-0.172,0.38-0.382c0.001-0.208-0.17-0.38-0.379-0.38C294.843,97.097,294.672,97.269,294.671,97.477z"/>
		<circle fill="#231F20" cx="295.76" cy="97.784" r="0.38"/>
		<circle fill="none" stroke="#231F20" stroke-width="0.456" cx="295.76" cy="97.784" r="0.38"/>
		<circle fill="#231F20" cx="296.367" cy="98.19" r="0.38"/>
		<circle fill="none" stroke="#231F20" stroke-width="0.456" cx="296.367" cy="98.19" r="0.38"/>
		<circle fill="#231F20" cx="297.177" cy="98.597" r="0.38"/>
		<circle fill="none" stroke="#231F20" stroke-width="0.456" cx="297.177" cy="98.597" r="0.38"/>
		<circle fill="#231F20" cx="293.433" cy="96.36" r="0.38"/>
		<circle fill="none" stroke="#231F20" stroke-width="0.456" cx="293.433" cy="96.36" r="0.38"/>
		<circle fill="#231F20" cx="293.231" cy="95.954" r="0.38"/>
		<circle fill="none" stroke="#231F20" stroke-width="0.456" cx="293.231" cy="95.954" r="0.38"/>
		<circle fill="#231F20" cx="294.041" cy="96.159" r="0.38"/>
		<circle fill="none" stroke="#231F20" stroke-width="0.456" cx="294.041" cy="96.159" r="0.38"/>
		<circle fill="#231F20" cx="297.784" cy="99.207" r="0.38"/>
		<circle fill="none" stroke="#231F20" stroke-width="0.456" cx="297.784" cy="99.207" r="0.38"/>
		<circle fill="#231F20" cx="262.824" cy="98.729" r="0.38"/>
		<circle fill="none" stroke="#231F20" stroke-width="0.456" cx="262.824" cy="98.729" r="0.38"/>
		<circle fill="#231F20" cx="263.23" cy="98.425" r="0.38"/>
		<circle fill="none" stroke="#231F20" stroke-width="0.456" cx="263.23" cy="98.425" r="0.38"/>
		<circle fill="#231F20" cx="262.214" cy="99.336" r="0.38"/>
		<circle fill="none" stroke="#231F20" stroke-width="0.456" cx="262.214" cy="99.336" r="0.38"/>
		<path fill-rule="evenodd" clip-rule="evenodd" fill="#231F20" d="M240.917,27.173c1.1-1.215,1.426-0.528,1.049,0.285  c-0.377,0.811-15.433,28.218-15.433,28.218s8.773,3.674,8.74,4.455c-0.046,1.124-0.065,31.688-0.066,32.188s0.146,0.582-0.659,0.905  c-3.317,1.335-8.602,4.512-11.419,6.694c-2.816,2.181-7.827,6.671-8.452,7.419c-0.626,0.749-1,0.248-1.516-0.268  c-2.065-2.075-4.883-5.772-11.178-5.786c-6.295-0.013-8.373,3.721-9.349,4.937c-0.978,1.217-1.95,0.483-1.096-0.611  c0.855-1.095,16.785-26.157,16.785-26.157s-4.864-3.543-5.555-4.236s-1.461,0.119-1.457-1.951  c0.004-2.071-0.068-26.192,0.058-28.103c0.125-1.91,0.733-1.582,2.767-2.553c2.035-0.97,5.002-3.886,8.136-6.644  c3.135-2.756,7.165-8.35,7.776-9.202c0.611-0.85,1.099-1.458,1.949-0.361c0.851,1.099,5.432,5.454,10.303,5.464  C237.171,31.876,239.82,28.389,240.917,27.173 M214.578,39.83l-0.044,21.48c-0.006,2.886-0.128,3.372,0.844,4.349  c0.972,0.976,1.582,0.855,1.582,0.855s12.754-20.441,13.609-21.901c0.856-1.459,0.002-1.096-1.095-0.612  c-1.097,0.485-5.931,0.719-7.757,0.228C219.891,43.738,214.578,39.83,214.578,39.83z M220.496,94.936l0.083-21.586  c0.056-2.883,0.119-3.614-0.43-4.248c-0.904-1.04-1.567-0.883-1.567-0.883s-13.105,20.212-13.986,21.656  c-0.881,1.443-0.021,1.096,1.083,0.63s5.941-0.615,7.758-0.092C215.253,90.936,220.496,94.936,220.496,94.936z"/>
		<path fill="#231F20" d="M6.629,39.017c0,0,0.247,1.562-0.97,0.591C2.724,37.265-2.313,27.95,5.896,15.703  C15.52,1.347,32.933,5.032,34.993,5.529c3.735,0.901,12.256,3.883,15.38,5.31c3.124,1.429,8.075,3.144,10.714,3.353  c2.64,0.208,4.75,0.335,6.38-2.097c1.629-2.434,1.282-6.096-0.877-8.206c-1.244-1.215,0.442-1.073,1.254-0.666  c0.811,0.407,3.479,2.427,3.907,7.365c0.427,4.939-0.707,9.062-4.339,12.429c-3.632,3.368-6.449,5.548-13.261,5.534  c-6.812-0.014-21.92-8.295-27.793-9.057s-11.501,0.351-16.007,3.092s-5.386,5.489-5.764,6.988c-0.378,1.5-0.636,4.749,0.735,7.252  C6.13,38.327,6.629,39.017,6.629,39.017"/>
		<polyline fill="#231F20" points="51.846,26.046 51.691,99.921 49.69,100.417 49.844,25.792 51.846,26.046 "/>
		<path fill="#231F20" d="M44.876,25.407L30.333,35.745l-0.108,52.302l-5.516,2.819l3.139,2.057c0,0,10.973-6.929,14.973-9.893  c1.232-0.912,1.91-2.892,1.915-5.123C44.741,75.676,44.876,25.407,44.876,25.407"/>
		<path fill="#231F20" d="M36.433,25.242c0,0-8.01-0.892-17.947,5.596C8.549,37.326,3.043,52.723,3.02,63.99  C2.982,82.208,7.85,89.331,9.47,92.737c1.62,3.406,5.91,9.06,12.128,12.771c6.217,3.712,8.878,4.616,16.286,4.632  s13.343-2.943,16.01-4.713c2.667-1.77,7.424-7.676,8.911-11.087c1.486-3.412,2.382-7.859,1.947-11.56c0,0-0.895,9.046-5.499,11.994  c-4.603,2.949-5.247,3.841-11.309,3.828c-6.063-0.013-11.187-0.586-16.116-4.347c-4.93-3.76-13.223-13.277-13.318-27.277  c-0.096-14.001,1.422-22.872,6.938-30.486s7.644-8.019,10.332-9.76C37.751,25.456,36.433,25.242,36.433,25.242"/>
		<path fill-rule="evenodd" clip-rule="evenodd" fill="#231F20" d="M70.06,42.727l23.812-17.583l13.278,11.906  c0,0,2.195-1.345,3.208-2.018c1.012-0.671,1.853,0.342,0.84,1.014c-1.012,0.672-5.987,5.459-5.987,5.459l-0.102,49.179  c0,0-0.136,2.306,1.509,3.957c0.167,0.17,1.09-0.916,2.61-2.432c1.521-1.514,2.605-0.239,1.347,1.016  c-1.26,1.254-9.376,13.283-10.391,14.292c-1.013,1.01-1.088,0.672-2.603-0.849c-1.514-1.521-6.883-9.774-6.883-9.774  s-0.498-0.751-1.5,0.247c-1.003,0.997-8.521,9.732-9.396,10.48c-0.876,0.748-0.75,0.248-1.624-0.629  c-0.875-0.877-7.984-8.142-8.607-8.643c-0.624-0.501-0.999-0.377-1.5,0.247c-0.502,0.624-1.127,1.122-2.004,1.746  c-0.875,0.623-1.374-0.128-0.748-1.002c0.628-0.874,3.258-3.493,3.885-4.492c0.626-0.998,0.755-2.623,0.755-2.623L70.06,42.727   M83.698,36.415L83.585,90.88c-0.003,1.375,2.991,4.256,3.615,5.007c0.623,0.752,3.537-2.683,3.537-2.683s0.019-1.435,0.023-3.31  l0.098-47.25L83.698,36.415z"/>
		<path fill-rule="evenodd" clip-rule="evenodd" fill="#231F20" d="M141.739,25.523c0,0,0.195-0.238,0.89,0.46  c0.696,0.698,10.88,10.227,11.69,11.157c0.811,0.93,2.083,0.004,2.548-0.46c0.465-0.463,1.511-1.388,2.325-2.199  c0.814-0.81,1.393-0.229,0.695,0.582c-0.698,0.811-8.018,8.447-8.018,8.447l-0.1,48.232c0,0-0.004,2.199,1.266,4.87  c1.271,2.671,4.51,4.186,4.612,11.143c0.102,6.956-5.586,11.231-8.258,12.501c-2.672,1.271-8.585,2.536-12.759,3.803  c-1.404,0.428-6.648,1.688-9.63,2.76c-2.405,0.863-2.437-0.237-2.437-0.237s-0.577-1.619-1.152-3.594  c-0.625-2.14-2.652-5.11-7.642-5.12c-4.99-0.011-5.916,2.075-6.731,3.583c-0.815,1.506-2.2,1.039-1.739-0.236  c0.46-1.275,0.468-2.319,3.609-6.136c3.14-3.817,9.751-5.543,12.878-5.536c3.126,0.006,7.185,1.052,9.729,5.118  s2.538,7.31,2.538,7.31l3.014-0.23c3.013-1.271,3.833-2.889,5.117-6.477c1.283-3.588,0.126-5.105-0.103-6.491  c-0.229-1.388-3.007-4.301-4.395-6.623c-1.389-2.323-1.729-3.131-1.959-4.06c-0.23-0.928-0.111-2.321-0.111-2.321  s-7.438,8.914-8.484,10.071c-1.047,1.158-1.396,1.506-2.902,0.11c-1.505-1.396-9.954-8.368-9.954-8.368s-1.854,1.388-2.784,1.966  c-0.929,0.578-2.552,0.172-1.195-0.955c1.358-1.127,5.075-5.504,5.075-5.504l0.102-49.129L141.739,25.523 M131.019,36.512  l-0.112,54.466c-0.003,1.375,2.991,4.256,3.614,5.008c0.624,0.751,3.567-2.939,3.567-2.939s-0.01-1.179-0.006-3.054l0.098-47.25  L131.019,36.512z"/>
		<path fill-rule="evenodd" clip-rule="evenodd" fill="#231F20" d="M165.337,45.06l19.507-19.159l11.387,24.337l-18.29,19.148  l-0.04,19.5l7.968,7.286c0,0,4.619-5.017,5.439-5.834c0.821-0.815,1.848-0.481,0.848,0.514c-0.999,0.993-14.84,17.962-14.84,17.962  s-11.056-11.7-12.256-12.561c-1.2-0.86-2.508,0.51-3.368,1.365c-0.86,0.856-1.591-0.057-0.685-1.03  c0.748-0.806,2.509-2.695,3.229-3.511c0.804-0.909,1.004-1.048,1.008-2.936L165.337,45.06 M178.321,42.34l-0.048,23.141  c0,0,5.263-5.071,6.64-6.441c1.376-1.37,1.204-1.265,0.179-3.432C184.066,53.442,178.321,42.34,178.321,42.34z"/>
		<path fill-rule="evenodd" clip-rule="evenodd" fill="#231F20" d="M334.357,24.669c1.711-0.413,1.894,0.651,0.83,1.02  c-1.063,0.366-4.307,1.514-8.878-0.158c-3.923-1.435-5.169-5.925-5.163-8.75s1.869-7.064,4.647-9.699  c2.777-2.635,6.015-3.922,10.088-3.914c4.071,0.008,7.573,1.079,10.303,3.031c2.729,1.954,3.421,2.688,4.942,4.584  c1.52,1.897,1.658,2.214,2.396,3.193c0.736,0.979,0.869,0.464,1.339,0.003c0.471-0.462,0.934-1.477,3.199-2.534  c2.002-0.935,2.729-0.874,3.469-0.872c0.738,0.001,3.043,0.188,5.039,1.906c0.322,0.278,0.736,1.196,1.014,1.619  c0.275,0.423-0.098,0.991-0.621,0.49c-0.355-0.339-0.789-1.328-3.311-1.015c-2.283,0.284-2.639,1.534-3.428,2.55  c-0.787,1.014-1.457,2.274-1.871,5.918c-0.158,1.407-0.066,1.718-0.066,1.718s8.908,59.964,10.305,65.335  c1.068,4.115,2.18,4.369,2.729,5.076s1.076,0.241,1.434-0.021c0.361-0.263,1.799-1.622,2.445-2.195  c0.646-0.572,1.695,0.171,0.906,1.173c-0.793,1.003-11.115,14.335-12.055,15.645c0,0-3.686-1.383-6.363-5.889  c-2.68-4.506-3.484-8.007-4.589-17.446c-0.74-6.321-1.107-8.877-1.107-8.877l-18.115-0.037l-1.843,10.121  c0,0,3.536-0.112,6.576,1.604c3.037,1.716,6.47,4.679,6.47,4.679s1.694-1.628,2.446-2.376c0.751-0.749,1.639,0.108,0.997,1.063  c-0.752,1.123-11.47,16.164-11.47,16.164s-0.93-4.126-2.801-6.005c-2.806-2.819-3.742-3.696-7.18-3.704  c-3.438-0.007-4.973,1.016-6.132,3.551c-0.629,1.374-0.568,2.686-0.57,3.624c-0.002,0.937,0.117,3.5,2.176,5.38  c2.059,1.879,4.493,3.32,8.306,3.328c2.566,0.006,4.91-0.472,7.066-1.797c1.875-1.152,2.019-1.293,2.41-1.573  c0.514-0.369,1.468,0.034,0.592,0.782s-1.69,1.199-2.535,1.76c-0.845,0.562-1.723,2.341-7.599,2.328  c-5.875-0.012-8.518-1.959-10.396-3.701c-1.984-1.84-3.758-3.942-3.749-8.223c0.009-4.281,0.707-7.721,2.963-10.686  c2.256-2.964,6.505-5.116,7.725-5.651c1.222-0.536,2.118-0.677,2.118-0.677s11.011-53.854,11.77-57.978s1.708-9.747-3.033-14.32  c-5.145-4.962-9.575-4.104-11.744-2.524c-2.566,1.87-3.572,4.431-2.767,7.869c0.807,3.44,3.366,4.32,4.865,4.76  c1.499,0.442,2.688,0.631,3.749,0.571C333.346,24.833,332.647,25.082,334.357,24.669 M343.458,29.878l-6.864,34.14l12.845,0.027  L343.458,29.878z"/>
		<path fill-rule="evenodd" clip-rule="evenodd" fill="#231F20" d="M456.682,45.095l19.506-19.158l11.389,24.336l-18.289,19.149  l-0.041,19.5l7.967,7.285c0,0,4.619-5.017,5.439-5.832c0.82-0.817,1.848-0.483,0.848,0.512c-0.998,0.995-14.84,17.964-14.84,17.964  s-11.055-11.702-12.256-12.562c-1.199-0.86-2.508,0.51-3.367,1.366c-0.861,0.855-1.592-0.057-0.686-1.031  c0.748-0.805,2.51-2.695,3.23-3.51c0.803-0.908,1.004-1.048,1.008-2.937L456.682,45.095 M469.666,42.375l-0.049,23.143  c0,0,5.264-5.071,6.641-6.442c1.377-1.37,1.203-1.266,0.18-3.433C475.412,53.477,469.666,42.375,469.666,42.375z"/>
		<path fill-rule="evenodd" clip-rule="evenodd" fill="#231F20" d="M567.326,45.324l19.506-19.158l11.387,24.336l-18.289,19.15  l-0.041,19.5l7.969,7.285c0,0,4.617-5.018,5.439-5.833c0.82-0.817,1.846-0.483,0.848,0.512c-1,0.996-14.84,17.965-14.84,17.965  s-11.057-11.703-12.256-12.562c-1.201-0.861-2.508,0.509-3.369,1.365c-0.859,0.856-1.592-0.057-0.684-1.031  c0.748-0.804,2.508-2.695,3.227-3.509c0.807-0.909,1.006-1.049,1.01-2.938L567.326,45.324 M580.309,42.604l-0.047,23.142  c0,0,5.264-5.07,6.639-6.441c1.377-1.371,1.205-1.267,0.18-3.434C586.055,53.706,580.309,42.604,580.309,42.604z"/>
		<path fill-rule="evenodd" clip-rule="evenodd" fill="#231F20" d="M544.381,26.356c0,0,0.195-0.239,0.889,0.459  c0.695,0.698,10.881,10.227,11.691,11.157c0.811,0.931,2.082,0.004,2.547-0.458c0.465-0.464,1.512-1.39,2.324-2.2  c0.814-0.81,1.393-0.229,0.695,0.582c-0.697,0.811-8.018,8.447-8.018,8.447l-0.1,48.232c0,0-0.004,2.199,1.268,4.869  c1.27,2.672,4.51,4.187,4.611,11.143s-5.588,11.231-8.258,12.502c-2.672,1.271-8.586,2.536-12.76,3.803  c-1.404,0.428-6.646,1.688-9.629,2.759c-2.406,0.863-2.438-0.237-2.438-0.237s-0.576-1.618-1.152-3.593  c-0.625-2.14-2.65-5.11-7.641-5.12c-4.99-0.011-5.916,2.075-6.73,3.582c-0.816,1.507-2.201,1.04-1.742-0.235  c0.461-1.275,0.469-2.319,3.609-6.137c3.143-3.816,9.752-5.542,12.879-5.535c3.127,0.006,7.188,1.052,9.73,5.118  c2.545,4.066,2.537,7.31,2.537,7.31l3.014-0.23c3.014-1.271,3.832-2.889,5.117-6.477c1.285-3.589,0.127-5.105-0.104-6.492  c-0.229-1.387-3.008-4.3-4.395-6.623s-1.729-3.13-1.959-4.059c-0.229-0.928-0.111-2.321-0.111-2.321s-7.438,8.913-8.484,10.071  s-1.395,1.506-2.9,0.11s-9.957-8.368-9.957-8.368s-1.852,1.388-2.781,1.966s-2.553,0.171-1.195-0.956  c1.357-1.126,5.074-5.504,5.074-5.504l0.102-49.129L544.381,26.356 M533.66,37.345l-0.113,54.466  c-0.002,1.375,2.99,4.256,3.615,5.007c0.623,0.752,3.566-2.938,3.566-2.938s-0.01-1.179-0.006-3.054l0.098-47.25L533.66,37.345z"/>
		<path fill="#231F20" d="M374.576,40.201c-0.73,0.81,0.201,1.706,1.057,0.732c0.854-0.973,2.123-2.383,2.123-2.383  s1.768-0.067,2.588,1.988c0.529,1.332,0.402,2.832,0.402,2.832l-0.105,50.75c0,0-1.691,1.496-2.316,2.12  c-0.627,0.624-0.377,0.874,0.246,1.5c0.623,0.627,9.479,10.52,9.479,10.52s8.564-10.2,9.441-11.073s0.215-1.403-0.037-1.551  c-0.373-0.217-1-0.693-2-1.32c-0.998-0.627-0.904-2.108-0.904-2.108l0.133-48.433c0,0,3.832-4.348,4.197-4.305  c0.467,0.055,3.033,4.109,3.033,4.109s-0.082,49.836-0.086,51.773c-0.004,1.938,0.16,3.923,1.924,6.379  c1.932,2.692,3.801,5.571,4.549,6.322c0.748,0.752,1,0.313,1.5-0.31c0.502-0.624,11.471-15.352,11.971-15.976  c0.502-0.624-0.184-1.438-0.998-0.438c-0.814,0.998-2.512,2.767-2.512,2.767s-2.338-0.155-2.709-1.53  c-0.373-1.376-0.338-2.873-0.338-2.873s0.096-46.75,0.098-47.875s0.229-1.271,0.879-1.998c0.799-0.893,3.26-3.868,3.885-4.492  c0.627-0.624-0.35-1.375-0.92-0.812c-0.533,0.528-2.174,1.898-2.174,1.898s-0.721,0.281-1.375-0.378  c-0.656-0.657-7.889-9.047-8.23-9.392c-0.344-0.343-0.625,0.093-0.877,0.342c-0.25,0.25-11.684,13.039-11.684,13.039  s0.002-1.286,0.004-2.036c0.002-1.464-0.742-3.279-2.549-6.158c-1.807-2.878-4.176-5.269-5.826-6.099  c-0.498-0.251-0.68-0.138-1.023,0.363C385.078,26.595,375.311,39.389,374.576,40.201"/>
		<path fill="#231F20" d="M424.537,39.966c-1.092,1.342-0.066,1.983,1.15,0.898c1.219-1.085,1.986-1.661,1.986-1.661  s3.311,1.853,5.365,6.222c2.227,4.74,3.377,6.276,2.727,11.524c-0.652,5.249-0.906,5.886-3.537,9.21  c-2.633,3.323-6.416,7.603-7.314,8.881c-0.9,1.278-0.643,1.406,0.572,1.986c1.215,0.578,3.58,1.028,5.814,4.233  c2.232,3.206,3.83,4.17,4.773,11.98c0.945,7.81,0.643,9.035-0.859,12.924c-1.139,2.956-1.801,3.381-2.301,3.907  c-0.027,0.026-0.959-1.128-2.582-2.068c-2.32-1.345-3.725-1.758-6.154-1.763c-2.504-0.005-4.592,0.297-8.414,4.139  c-3.289,3.307-5.141,7.333-5.705,8.552c-0.566,1.217-0.629,2.311-0.568,2.842c0.074,0.655,0.873,0.502,1.219-0.436  c0.348-0.937,0.785-1.778,1.977-2.808c1.188-1.029,2.096-1.589,4.158-1.585c2.062,0.005,3.686,0.258,5.342,1.637  c1.652,1.378,2.836,3.224,3.271,3.85s0.654,0.533,1.312-0.373c0.66-0.904,6.957-9.578,8.588-11.513  c1.629-1.934,7.266-8.422,8.207-10.108c0.941-1.685,3.576-6.679,3.59-13.242c0.014-6.562-1.289-10.939-4.719-15.01  c-3.43-4.069-5.43-4.9-6.303-5.59s-0.822-0.783-0.973-0.917c-0.148-0.133-0.123-0.31,0.15-0.664c0.453-0.594,5.342-6.52,7.723-9.578  c2.381-3.057,3.701-6.304,3.707-9.304c0.01-5.188-1.049-7.127-2.479-10.255c-1.432-3.128-4.736-6.573-6.297-8.138  c-1.559-1.567-1.715-1.645-1.934-1.833s-0.717-0.564-1.203,0.202c-0.486,0.764-3.182,4.368-5.312,7.3  C427.385,36.341,425.629,38.623,424.537,39.966"/>
		<path fill="#231F20" d="M489.541,38.448c-0.859,0.901-0.238,2.009,1.074,1.12c0.645-0.437,0.906-0.611,0.906-0.611l2.262,2.446  c0,0-0.107,52.201-0.109,53.451c-0.004,1.25-0.041,3.062,2.576,7.131c1.867,2.901,3.178,4.567,4.301,5.509  c1.123,0.938,1.373,1.003,2.188,0.004c0.814-0.998,10.842-13.853,11.469-14.851c0.627-0.999-0.623-1.377-1.375-0.503  c-0.752,0.873-1.314,1.497-1.941,1.996c-0.627,0.498-2.312-0.38-2.312-0.38s-1.061-0.128-0.992-3.252  c0.068-3.125,0.092-44.375,0.096-46.064c0.002-1.687,0.1-2.282,1.508-3.808c1.494-1.62,4.088-4.131,4.914-5.093  c0.748-0.87,0.057-1.603-1.152-0.713c-1.195,0.879-1.879,1.519-2.756,2.244c-0.611,0.507-0.938,0.062-1.498-0.503  c-0.561-0.563-7.043-9.076-7.73-9.953c-0.686-0.876-0.748-0.315-1.375,0.372C498.965,27.675,490.404,37.548,489.541,38.448"/>
		<path fill="#231F20" d="M493.441,13.723c1.006,1.01,7.199,8.127,7.199,8.127s6.893-6.082,8.238-7.423  c1.346-1.341,1.236-1.677,0.008-3.022c-1.229-1.345-5.303-5.996-6.195-6.893c-0.895-0.898-1.23-0.787-2.24,0.218  c-1.01,1.005-6.334,6.644-7.008,7.314C492.771,12.713,492.725,13.004,493.441,13.723"/>
		<path fill-rule="evenodd" clip-rule="evenodd" fill="#231F20" d="M601.039,40.797c-1.385,1.381-0.4,2.664,0.789,1.48  c0.527-0.525,0.727-0.723,0.727-0.723s1.213,0.86,1.805,1.454c0.59,0.594,0.59,0.791,0.588,1.45c0,0.657-0.096,46.437-0.102,48.937  c-0.004,2.5-0.209,2.688-0.898,3.562c-0.492,0.624-2.57,3.494-3.26,4.43c-0.689,0.937,0.311,1.375,1.125,0.565  c0.814-0.812,1.816-1.746,1.816-1.746s11.051,8.7,12.111,9.391c1.062,0.689,1.125,0.564,1.752-0.31  c0.291-0.406,2.816-3.246,5.506-6.791c3.092-4.072,6.709-8.103,7.145-8.735c0.814-1.187-0.686-1.564-1.5-0.503  c-0.814,1.06-3.131,3.305-3.633,3.804c-0.5,0.499-0.877,0.873-1.438,0.372c-0.562-0.501-4.805-4.196-5.178-4.761  c-0.375-0.562-0.25-0.625-0.248-1.687c0.004-1.063,0.088-42.5,0.092-43.563c0.002-1.062,0.277-1.466,0.779-1.965  c0.5-0.499,2.094-2.179,2.094-2.179s0.816,3.027,2.375,4.969c1.559,1.939,1.93,3.19,6.305,3.199c3.562,0.008,5-2.012,5.945-3.424  c1.129-1.686,4.42-7.13,5.898-10.988c0.502-1.312-0.836-1.094-1.375-0.378c-0.564,0.749-1.568,2.747-4.443,2.741  c-3.258-0.007-4.369-2.634-4.867-3.824c-0.498-1.188-1.305-3.877-1.488-5.253c-0.186-1.375-1.125-0.502-1.877,0.371  s-9.336,11.225-9.336,11.225s0.504-2.54-1.398-6.638c-1.902-4.1-3.922-5.447-4.764-6.1c-1.027-0.797-1.449-0.087-2.27,0.813  C608.996,30.894,602.426,39.417,601.039,40.797"/>
		<rect x="0" y="0" width="100%" height="100%" fill-opacity="0"/>
	</a>
</svg>
