<?xml version="1.0" encoding="utf-8"?>
<!-- Generator: Adobe Illustrator 18.1.0, SVG Export Plug-In . SVG Version: 6.00 Build 0)  -->
<svg version="1.1" xmlns="http://www.w3.org/2000/svg" xmlns:xlink="http://www.w3.org/1999/xlink" x="0px" y="0px"
	 viewBox="0 0 1440 1036.4" width="1440" height="1036" enable-background="new 0 0 1440 1036.4" xml:space="preserve">
<g id="Ebene_4">
	<rect x="-32.3" y="-26.2" fill="#EEFFFC" width="1491.6" height="1084.6"/>
</g>
<g id="Ebene_1">
	<path fill="#A7EACE" d="M1487,767.3c0,0-27.2-20.7-31.6-14.2c-4.4,6.6-15.2-21.8-19.6-13c-4.4,8.8-15.2,19.8-23.9,19.8
		c-8.8,0-39.9,0-39.9,0s-45.5,10.6-54.3,4c-8.8-6.6-21.9-30.7-41.6-32.9c-19.7-2.2-17.5-8.8-46-13.1c-28.5-4.4-32.9-8.8-48.2,8.8
		c-15.3,17.5-26.3,0-37.2,11c-11,11-28.5,35-43.8,35s-32,5.9-43,16.8c-11,11-36.7,10.5-52.1,14.9c-15.3,4.4-52.5-6.3-61.3,2.5
		c-8.8,8.8-53.9,25-130.6,20.6s-4.4,102.9-4.4,102.9l483.8,122.6l193.6-84V767.3z"/>
	<path fill="#68D8A5" d="M-169.8,740.9c0,0,75.8-50.3,106.4-50.3s47.9-22.5,80.7-26.9S74.8,642,98.9,642c8.4,0,34.7-1.3,69.5,7.7
		c27.1,7,57.1,26.4,85,33.5c38.6,9.8,59.6,13.7,69.5,12.9c26.3-2.2,46-1.1,72.3,9.8c26.3,11,28.2,14.5,79.7,24.8
		c13.1,2.6,38-1.8,46.8-1.8c8.8,0,49,5.3,49,5.3s33.8-1.1,42.6-1.1s26.9,6.4,43.3,9.1c32.6,5.4,35.5,17.4,49.8,26.2
		c34.1,21,47.9,7.9,47.9,7.9s26-9.7,43.5-7.5c17.5,2.2,36.1-1.9,50.9,1.3c34.6,7.6,41.2,25,58.7,29.4c17.5,4.4,51.9,14.7,71.6,16.9
		c19.7,2.2,57.9,71,60.1,84.1c2.2,13.1,48.2,59.1,48.2,59.1L796,942.4l-900.1-43.8l-56.9-11L-169.8,740.9z"/>
	<path fill="#4ABA78" d="M806.2,837.7c0,0,89.1-43.4,101-48s23.2-9.9,58.3,6.7s31.6,21,79.6,11.8c48-9.2,99.6-7.4,135.6,8.3
		s28.6,5.5,45.2,11.1c16.6,5.5,68.3,42.4,96.9,51.7c28.6,9.2,60,22.1,71,31.4c11.1,9.2,14.8,15.7,14.8,15.7l-57.2,21.2l-206.6,14.8
		L806.2,837.7z"/>
	<path fill="#1FA35E" d="M-40.8,761.9c0,0,32.9-10.9,116.1-8.7c83.2,2.2,137.4,5.2,165.9,9.6s104.3,10.8,152.5-4.5s96.1-2,174.9,9
		c78.8,11,185.2,60.6,239.9,62.8c54.8,2.2,146.9,13.9,192.8,33.6c46,19.7,66.9-12.5,143.5,29.2s113-3.8,141.5-8.2
		c28.5-4.4,100.6-8.8,100.6-8.8v107l-643.6,72.6l-678.9-138l-127-19.7L-40.8,761.9z"/>
	<path fill="#4ABA78" d="M-23.6,761.6c0,0,224.6,6.9,382.3,61.6C516.3,878,663,882.3,787.9,867s330.7-35,413.9-35
		c83.2,0,241.9-75.2,296.7-68.7l-3.2,354.9l-1511.1-13.1L-23.6,761.6z"/>
	<polygon fill="#A5A09B" points="456.4,907.5 450.8,922.8 478.3,925.2 485.6,924.7 509.6,915.1 496.3,901.7 	"/>
	<polygon fill="#8C8580" points="451.7,908.3 451.2,924.5 485.3,925.6 485.7,909.1 	"/>
	<polygon fill="#592A0F" points="459.4,899.9 448.3,908.9 485.6,910.4 496.6,901.6 	"/>
	<path fill="#A5A09B" d="M413.3,907.6l7.3-4.9l31,7.8l-0.1,15.8l-17.3,1.5c0,0-21-5.2-21-6.5S413.3,907.6,413.3,907.6z"/>
	<polygon fill="#A5A09B" points="402.3,910.9 402.8,930.9 355.6,934.6 355,911.2 	"/>
	<polygon fill="#723710" points="427,892.1 427,897.2 407.9,896.9 408.5,891.7 	"/>
	<polygon fill="#A5A09B" points="408.5,896.3 408.5,904.2 426,904.6 426,896.7 	"/>
	<polygon fill="#A5A09B" points="366.1,921.7 366.3,936.4 376.6,936.2 376.8,922.3 	"/>
	<polygon fill="#8C8580" points="420.8,902.7 411,908.9 410.8,921.7 432.9,926.3 433.2,910.9 	"/>
	<polygon fill="#A5A09B" points="376.8,928.5 376.1,942.3 388.3,945.6 408.8,944.7 408.6,928.3 399,922 	"/>
	<polygon fill="#8C8580" points="375.7,928.5 375.8,942.9 388.7,945.9 388.8,930.1 	"/>
	<polygon fill="#A5A09B" points="393.7,927.3 394.3,944.8 411.8,951.8 446.6,951.5 446.8,927.6 430.1,918.2 	"/>
	<polygon fill="#8C8580" points="393.7,927.3 394.3,944.8 410.9,951.6 410.8,928.6 	"/>
	<polygon fill="#723710" points="420.7,902.7 433.2,912 453.8,910.9 441,901.3 	"/>
	<polygon fill="#723710" points="388,920.1 400.8,921.9 388.7,930.8 374.8,928.7 	"/>
	<polygon fill="#592A0F" points="391.6,927.6 410.2,916.4 430.5,918.2 410.7,930.3 	"/>
	<polygon fill="#A5A09B" points="664.5,913.4 668.7,916.9 668.3,925.6 649.9,925.1 649.7,917.1 	"/>
	<polygon fill="#A5A09B" points="685,905.1 681.9,911.3 681.8,920.8 689.4,921.8 711.4,921.5 711.6,913 	"/>
	<polygon fill="#A5A09B" points="722.9,915.4 732.6,924.6 740.8,924.2 740.9,915.8 737.4,910.5 	"/>
	<polygon fill="#8C8580" points="732.7,916.5 732.8,924.7 722.4,923.8 721.7,915 	"/>
	<polygon fill="#8C8580" points="689,912.4 689,922 681.6,921.1 681.5,911.5 684.8,905 	"/>
	<polygon fill="#8C8580" points="658.6,916.4 658.8,925.9 649.9,925.1 649.3,916.5 	"/>
	<polygon fill="#723710" points="684.9,905 688.7,912.9 712.5,913.2 707.8,905.9 	"/>
	<polygon fill="#723710" points="665,913.3 659,917.6 648.2,917 652.6,912.9 	"/>
	<polygon fill="#723710" points="727.1,908.6 720.5,915.6 732.9,917.3 737.6,910.4 	"/>
	<polygon fill="#A5A09B" points="483.6,917.7 478.9,923.9 479.2,932.6 500.9,935.7 530,934.1 530,923.4 501.1,924.5 495.6,917 	"/>
	<polygon fill="#8C8580" points="484.9,917.3 478.9,923.9 478.9,934.6 500.5,936.1 500.8,923.6 495.3,915.7 	"/>
	<polygon fill="#723710" points="495.1,909.2 495.7,917.5 500.7,925 530.7,923.3 524,915 514.8,907.8 	"/>
	<polygon fill="#592A0F" points="495.1,909.2 483.4,917.6 495.6,917.5 	"/>
	<path fill="#1FA35E" d="M503.9,929c26.9-9.7,71.3-10.5,73.3-10.5c18.2-0.7,70.8,1.2,120.3,1.2c54.8,0,343.8,4.4,394.2,4.4
		c50.4,0,140.2-8.8,212.4,0c72.3,8.8,159.9,17.5,159.9,17.5l2.2,153.3c0,0-94.2-11-188.3-37.2c-94.2-26.3-412-76.9-462.1-83.2
		c-41.8-5.3-256.2-39.4-295.7-24.1s-65.7-4.4-65.7-4.4L503.9,929z"/>
</g>
<g id="Ebene_3">
	<path fill="#00382D" d="M-119.7,797.3c1-18,11.9-13.4,26-19.2c10.8-4.5,15.9-1.3,27.1-4.5c8.6-2.5,18.5-1.5,23.8-1.1
		c6.3,0.4,10.1-4.5,18.1-4.5c7.3,0,18.7,3.4,24.9,3.4c11.8,0,2.6,15.5,12.4,19.2c3.5,1.3,4.8,10.5,14.7,11.3
		c6.2,0.5,12.6,1.9,19.2,3.4c9.6,2.1,6,6.5,19.2,4.5c6.3-1,1,15.4,11.3,15.8c7.2,0.3,15.7,0.4,23.8-1.1c8.1-1.6,9.4-10.6,11.3-10.2
		c9.7,2.3,18.5-0.7,22.6-3.4c6.3-4.1,16.5-1.1,23.8-1.1c3,0,2.6,9.7,12.4,7.9c6.5-1.2,7.7,6,13.6,5.7c6.7-0.4,11.5-3.7,17-3.4
		c5.2,0.3,6.6-11.9,12.4-11.3c6.8,0.7,14.4,3.6,21.5,4.5c10.1,1.3,8.3,8.7,20.3,8.6c5.1-0.1,14.7,0.1,19.3,0.5
		c18.5,1.6,30.5,1.8,30.5-2.3c0-10.2,2.3-17-18.6-25.9c-4.6-1.9-8,1.9-14,1.5c-4-0.2-8.8-7.7-12.3-8.3s-7.5,0.6-10.4-0.4
		c-6-2-8.7-9.1-13.3-11.9c-2.4-1.5-8.2,1.6-12.2,0.3c-4.3-1.4-10.6-10.5-15-9.5c-4,0.9-9.2,3.5-11,3.5c-5.7,0-10.5-14.9-16.7-14.9
		c-9.9,0-8.7,8.5-17.1,1.8c-6.6-5.3-11.4-6.1-17.6-3.5c-2.6,1.1-6.4-15.5-14.9-14.5c-4.1,0.5-11,19.2-11.7,14.7
		c-1.5-9-3.1-24.7-7.6-25.3c-7-0.8-11.4,13.9-13.1,11.4c-6.1-9.2-1.4-11.7-15.4-11.3c-7.1,0.2-15.9-3-20.2-7.1
		c-3.5-3.3-10.5,4.9-13.1,3.2c-7.6-5.1-9.2-13.5-19.8-12.9c-10.6,0.6-10.6,6.6-19.5,12.4c-3.3,2.1-8.5-11.9-12-11
		c-10.1,2.5-34,12.7-37.4,13.9c-10,3.3-24-8-30.5-10.4c-11.1-4.2-12.1,3-24.8,0c-12.6-3-7.4-2.4-19.1-4.3c-13.5-2.2-0.6-4-10.2,0
		L-119.7,797.3z"/>
	<path fill="#00382D" d="M1066.8,825.9c-0.4,4.9-0.5,14.7,1.9,17.6c2,2.4,15,2.9,24,3.7c38.1,3.1,48.3-0.7,55.4,7.2
		c7.3,8.1,20.4,11.1,41,8.1c17.1-2.5,6.7-17.9,26.5-17.9c19.7,0,23.7-6.9,27.1-12.6c2.1-3.6,16-3.6,16-3.6s3,9.7,15,6.4
		c9-2.5,9.7-3.4,9.7-3.4s2.3-3.2,2.5-4.8c0.2-1.5,1.9-4.2,4.6-4.6c6.1-0.8,8.3-0.7,12-3c4.9-3,8.7-1.7,12-4.5
		c3.3-2.8,1.1-18.1-1.7-27.1s-4.3-7.1-4.3-7.1s-2.1,1.8-3.3,8.1c-0.4,1.9-3.5-12.9-9.6-17.4c-1.9-1.4-8.1,10.4-8.9,18.9
		c-0.1,0.7-7.6-10.4-12.8-10.4c-5.2,0-8.3,3.9-14.9,0.6s-9.7-2.9-11.6,2.3c-1.9,5.2-5.7,3.3-10.9,0.9c-5.2-2.4-10.5-6.1-18-1.4
		c-4.9,3.1-4.7-0.5-7.6-2.4s-4.3,3.8-7.6,3.8c-3.3,0-1.3-5.2-11.6-2.8c-6.7,1.5-17.8,5.7-17.8,10.9c0,5.2-0.4,12-0.4,12
		c-1,0.6,0.1-5.4-6-13s-6.8,10.9-9.6,15.2c-2.8,4.3-3.4-3.3-11-0.5c-7.6,2.8-10.5-2.8-17.1-3.8c-6.6-0.9-9.3-3-11.6-0.6
		c-2.4,2.4-8,2.7-8,2.7l-3.1,6.4l-5.1,5.2c0,0,1.8,10.5-2.4,10c-4.3-0.5-12.4,1.8-13.7-1.7c-3-8.6-10.5-9.6-10.5-9.6
		S1067.4,818.7,1066.8,825.9z"/>
	<path fill="#00382D" d="M1444.2,849.8l-10.5-11c0,0-8.4,6.9-9.9,9.4c-1.5,2.5-4.9-4-4.9-4s-5.4,9.9-6.9,15.3
		c-1.5,5.4-7.4-17.3-9.4-15.8c-2,1.5-7.9,14.3-8.9,20.8c-1,6.4-5.9-6.9-10.4-4.4c-4.4,2.5-15.3,34.6-13.3,38.6
		c2,4,12.9,18.3,17.8,18.3s49.9-1,57.3-10.9L1444.2,849.8z"/>
	<path fill="#00382D" d="M1232.8,923c1.2-5.6,12.4-22.4,17.4-22.4s6.2-11.8,13.1-14.9c6.8-3.1,12.4-8.7,20.5,4.4c0,0,3.7-5,7.5-3.7
		c3.7,1.2,8.1,3.1,9.3,0.6c1.2-2.5,1.2-3.1,5-3.1s6.8-3.7,11.2,1.2c4.4,5,10.6,9.9,14.3,9.9c3.7,0,8.7-4.4,17.4-3.7
		c8.7,0.6,22.3-10.5,28-6.2c5.7,4.4,18.5,4.8,18,29.2c-0.1,5.6,11.2,8.1,8.7,19.3c-0.4,2-0.8,3.9-0.8,3.9c-5.1,2.2-17.9-1-31.5-2.7
		c-15.5-1.9-49.7-7.5-71.5-7.5C1277.6,927.3,1232.8,923,1232.8,923z"/>
	<path fill="#00382D" d="M1366.1,824c4.3-1,5.1-5.3,3.8-15.1c-1.3-9.8-6.6-5.3-6.6-5.3s1.3-19.7-2.6-23c-3.9-3.3-4.6,4.6-4.6,4.6
		s-2-11.8-5.3-11.8c-3.3,0-4.6,9.2-4.6,9.2s-1.3-6.6-7.2-3.3c-5.9,3.3-8.5-2.6-12.5,0c-3.9,2.6-6.6,6.6-6.6,6.6l-5.3-1.3l-1.3,3.9
		c0,0-6.6-2.6-6.6,1.3c0,3.9-2.1,20.4-1.6,26.6c0.5,7.4,7,6.7,7,6.7s-0.2,6.8,2.5,7.6c7.4,2,12.5,4.5,18.4,3.2
		c5.9-1.3,13.1,2,13.8-2s5.4-7.2,5.4-7.2L1366.1,824z"/>
	<path fill="#00382D" d="M-24.3,799.4c-5.2-0.5-6.6-4.6-6-14.6c0.5-10,7.2-6,7.2-6s-3.6-19.4,0.7-23.2s5.9,4,5.9,4s1.1-12,4.9-12.4
		s6.4,8.6,6.4,8.6s0.9-6.7,8.1-4.2s9.7-3.7,14.6-1.5c4.9,2.1,8.4,5.7,8.4,5.7l6-2l2,3.8c0,0,7.4-3.4,7.8,0.5
		c0.4,3.9,4.6,20,4.7,26.3c0.1,7.5-7.5,7.5-7.5,7.5s0.9,6.7-2.2,7.8c-8.5,2.9-14.1,6-21.2,5.4S0.2,808.7-1,804.8s-7.1-6.5-7.1-6.5
		L-24.3,799.4z"/>
	<path fill="#00382D" d="M1048.7,970.1c-8.1,0-17.7,1-17.7,9.8s-7.9,18.7,1,18.7c8.9,0,9.8,9.8,19.7,7.9c9.8-2,15.7-13.8,21.6-13.8
		c5.9,0-9.8-4.9-6.9-10.8c3-5.9,3-6.9-4.9-9.8S1061.5,970.1,1048.7,970.1z"/>
	<path fill="#00382D" d="M1078.9,974.1c-3.5-0.2-8.7,3.5-8.7,7.4c0,3.9,0.4,4.8-2.6,6.5c-3,1.7-7.8,3.5-3,10
		c4.8,6.5,13,6.5,13.9,9.6c0.9,3,2.2,7.4,7.4,6.5s3.5-13.5,5.2-13c1.7,0.4,3.5,10.4,7,6.5c3.5-3.9,3.5-10.4,2.2-15.2
		c-1.3-4.8-7-7.4-9.6-10.9C1088,978,1085.9,974.5,1078.9,974.1z"/>
	<path fill="#00382D" d="M1114.6,969.3c-3.2,0-10.9,0.4-10.9,7c0,6.5-6.5,12.2-3.5,16.1c3,3.9,1.3,17,6.5,19.6s8.3,6.5,15.2,6.1
		c7-0.4,6.1-8.7,10.9-12.2s10.4-10.4,3.9-13.5c-6.5-3-6.1-5.7-6.1-11.3C1130.7,975.4,1123.7,969.3,1114.6,969.3z"/>
	<path fill="#00382D" d="M906.8,944.4c4.7,1.1,7.4-3.2,8.4,2.6c1.1,5.8,2.6,7.9,6.9,7.9s4.2,0,4.7,8.4c0.5,8.4,9.5,13.2,2.6,16.3
		c-6.9,3.2-10,1.1-15.8,3.7c-5.8,2.6-9,7.4-11.6,1.1s-12.1-3.2-11.6-14.2c0.5-11.1,1.1-24.8,7.4-24.8S906.8,944.4,906.8,944.4z"/>
	<path fill="#00382D" d="M667.5,948.6c0,0,1.8-2,2.8-3.3s2.4-10.7-2.4-10.4c-4.8,0.3-9.6-0.6-11.2,1.9c-1.6,2.6-4.5,6.4-2.9,9.2
		c1.6,2.9,4.8,3.5,8,3.5C665,949.6,667.5,948.6,667.5,948.6z"/>
	<path fill="#00382D" d="M885.1,949.4c0,0-11-1.5-13.5-5.5s-10-8-10.5-3.5c-0.5,4.5-6.5,13.5-5.5,19.5c1,6-0.5,14,4.5,14.5
		s7,7.5,12,7.5s12,0,12.5-6c0.5-6,7-6.5,7-12C891.6,958.4,895.1,949.4,885.1,949.4z"/>
	<path fill="#00382D" d="M794.8,940.4c-2.5,1.5-6.6,1-6.6,6.1c0,5.1-3.6,4.6-3.6,7.6c0,3.1,3.6,11.7,8.2,12.7c4.6,1,11.2,2,14.8-0.5
		c3.6-2.5,7.6-10.2,4.1-15.3s1.5-9.7-4.1-10.2C802,940.4,794.8,940.4,794.8,940.4z"/>
	<path fill="#00382D" d="M698.5,931.1c-7.1-0.8-4.9-6.2-10.1-2.6c-5.3,3.5-7.5,5.7-7.5,11s2.2,9.7,5.3,10.1c3.1,0.4,4.9,5.3,8.4,4.4
		s7.1-0.4,8.8-4.9c1.8-4.4-0.4-9.3-0.4-11.9C702.9,934.7,702.4,931.6,698.5,931.1z"/>
	<path fill="#00382D" d="M745.7,935.8c-1.2,4.1-1,3.2-1,9.1s3.4,13.2,6.9,13.2c3.5,0,4.1,2.4,12.4-2.9s10-8.2,7.7-14.1
		c-2.4-5.9-8.8-5.9-13-7.1S745.7,935.8,745.7,935.8z"/>
	<path fill="#00382D" d="M1431,774.4c-3.1-1.7-3.8,0.3-8.4-0.3c-4.5-0.7-4.2-3.5-8.7-3.5c-4.5,0-4.2-0.3-9.4-3.8
		c-5.2-3.5-10.5,0.7-12.6,3.1c-2.1,2.4-7.3,6.6-7.3,10.5c0,3.8,2.9,7.2-1.3,7.2c-4.2,0-8.8,5-12.3,1.2c-3.5-3.8-4.5-2.4-7.3-1.7
		c-2.8,0.7-2.1-3.5-5.2-2.4c-3.1,1-4.5,6.3-5.3,9.5c-1.3,5.2,2.1,4.1,6,3.1c4.1-1.1,31.1-7.7,36-9.1
		C1399.9,786.7,1431,774.4,1431,774.4z"/>
	<path fill="#00382D" d="M1215.7,885.9c7.9-0.8,9.4-2.8,5.2-7c-4.2-4.2-5.2-5.9-9.1-5.2c-3.8,0.7-3.8-4.9-8-2.4
		c-4.2,2.4-5.6,2.4-5.2,6.6c0.3,4.2-1.4,7.1,0.3,8.2C1200.7,887.1,1215.7,885.9,1215.7,885.9z"/>
</g>
<g id="Ebene_6">
	<path fill="#00382D" d="M193.3,857.2l6.9-6.1c0,0,10.8-3.1,11.6-1.3c0.7,1.8,3.8-2.1,3.8-2.1s2.6,7.3,3,11.1
		c0.4,3.8,6.8-10.9,8-9.7c1.2,1.2,3.8,10.5,3.8,15s4.7-4,7.5-1.9c2.7,2.1,6.7,25,4.9,27.4c-1.8,2.5-10,6.8-13.3,6.3
		c-3.3-0.5-42.3-16.9-46.3-24.4L193.3,857.2z"/>
	<path fill="#00382D" d="M236,893.3c0,0-2.6-22.2-13.2-25c0,0-9.3,2.1-11,1.8c-1.7-0.3-6.3-5.6-6.3-5.6s-6.7,1.5-8.6,4.4
		c0,0-3.1-5.5-6.2-6c-3.1-0.5-10.8,0.4-10.8,0.4s-2.2-6.4-6.2-6.3c-3.9,0.1-7.3,3.5-10.4,2.3s-16.4-4.6-18.7-3.6
		c-2.3,1.1-15.7,5.2-19.3,4.6s-19.3,6.9-19.3,6.9l-33.1,5.4c0,0,62.1,18.3,68.8,19.3c6.6,1,27.1,0.7,31.1,2.4
		c4,1.7,11.7,0.8,13.4-1.1c1.7-1.9,18.9,0.5,22.7,1.1c3.8,0.6,15.7-1.8,18.4-1.4C230.3,893.4,236,893.3,236,893.3z"/>
	<path fill="#00382D" d="M263.4,892.6c6.4,0.7,10.7-2.7,9.4-9.1c-0.8-3.8-5.3-2-6.8-3.6c-1.9-2.1-3.1-3.3-6.4-3.3
		c-2.2,0.1-4.3,1.5-5.3,0.1c-1.6-2.2-1.8-7.3-6-5.6c-2.3,0.9-2.4,5.4-3.7,6c-2.6,1.1-5.2-1.5-5.5,2.6c-0.5,6.3-0.2,11.2,2.1,13.2
		S263.4,892.6,263.4,892.6z"/>
	<polygon fill="#A5A09B" points="314,913.5 314,920.6 300.4,920.6 295.2,918.3 296.4,909.9 301.9,913.6 	"/>
	<polygon fill="#A5A09B" points="1183.2,891.1 1183.2,901.4 1176.7,901.8 1164.9,890.7 1169.7,887.8 	"/>
	<polygon fill="#A5A09B" points="1166.4,882.9 1170,886.4 1170,898.3 1161.2,898.8 1150.9,897.5 1150.6,887 	"/>
	<polygon fill="#A5A09B" points="578.1,901.5 578.3,909.8 598.3,910.6 604.2,908 604.2,899.8 602.2,895.4 586.7,897.1 	"/>
	<polygon fill="#A5A09B" points="532.3,898.7 532.3,907.1 547.8,907.6 553.5,905.7 553.5,899.1 550.7,896.2 	"/>
	<polygon fill="#A5A09B" points="537.5,909.8 543,906 556.1,907.8 555.7,914.7 548.3,918.7 537.3,916.5 	"/>
	<polygon fill="#A5A09B" points="332.4,926 332.2,937.5 349.7,940.8 367,938.7 367.6,927.4 361.7,920.9 354.3,920.9 	"/>
	<polygon fill="#A5A09B" points="351,935.8 351,943.8 365,945.6 367.1,942.7 367.2,934.7 358,931.4 	"/>
	<polygon fill="#A5A09B" points="321.2,910.8 321.3,920.4 328.4,925.1 341.6,924.9 340.9,907.7 	"/>
	<polygon fill="#A5A09B" points="362.8,911.5 362.6,928.7 369.6,931.9 370,918.9 	"/>
	<polygon fill="#A5A09B" points="253,908.3 248.2,913.6 248.5,921.5 259.1,924.9 298.3,924.9 298,914.5 260.5,914.1 	"/>
	<polygon fill="#A5A09B" points="235.2,901.3 231,906.7 231,914.7 237.4,917.1 255,916.2 255.4,906.4 236.7,906.2 	"/>
	<polygon fill="#A5A09B" points="303.6,919.2 303.8,925.5 313.5,928.2 325.6,927.7 325.8,919.8 319.9,915.9 311.9,919.9 	"/>
	<polygon fill="#A5A09B" points="301.3,923.9 298.8,928.5 298.9,936.3 305.2,937.7 318,937.3 318,929.7 	"/>
	<polygon fill="#A5A09B" points="310.3,873.3 307.1,875.1 306.9,880.7 313.4,882.4 323.3,881.7 323.2,875.2 	"/>
	<polygon fill="#A5A09B" points="392.1,869 389,887 389,896.1 395.8,904.6 402.4,920.9 403.4,920.9 403.8,887.1 399.9,867.4 
		395.6,883.7 	"/>
	<polygon fill="#8C8580" points="1176.6,890.8 1176.5,902 1165.2,900.7 1165.3,892 1169.5,887.8 	"/>
	<polygon fill="#8C8580" points="1160.8,887.1 1161.2,898.8 1150.8,897.5 1150.5,887 	"/>
	<polygon fill="#8C8580" points="597.8,900.8 598.3,910.6 578.3,909.8 578.1,901.5 582.8,897.3 593.2,897.5 	"/>
	<polygon fill="#8C8580" points="542.1,905.9 536.6,908.9 536.5,917.1 548.3,918.5 549,908.9 	"/>
	<polygon fill="#8C8580" points="531.7,898.8 532,907.4 547.8,907.5 547.8,898.9 	"/>
	<polygon fill="#8C8580" points="360.9,915 361.3,933.1 366.3,936.4 366.9,922.2 	"/>
	<path fill="#8C8580" d="M355.1,912.3l0.1,6.6c0,0-16,6.1-15.7,6.7c0.1,0.2,0-14.8,0-14.8L355.1,912.3z"/>
	<polygon fill="#8C8580" points="392.7,867.4 389.3,886.6 389.4,895.5 395.7,903.2 395.7,886.6 	"/>
	<path fill="#8C8580" d="M313.3,875.6l0.1,6.9l-6.5-1.8c0,0,0.2-5.7,0.2-5.6s3.2-1.8,3.2-1.8L313.3,875.6z"/>
	<polygon fill="#8C8580" points="253,908.1 248.2,914.4 248,921.8 259.1,925.5 259.4,914.4 	"/>
	<path fill="#8C8580" d="M235.2,901l-4.2,5.5l0,8.2c0,0,6.5,2.6,6.4,2.4c-0.1-0.2,0.1-9.9,0.1-9.9L235.2,901z"/>
	<path fill="#1FA35E" d="M-23.1,849.6c0,0,133.6,21.9,164.3,37.2s173,50.4,199.3,50.4c26.3,0,325.6,23.8,378.9,30.7
		c66,8.5,525.6,94.2,593.5,111.7c67.9,17.5,148.9,26.3,148.9,26.3l4.4,6.7l-1498-8.8L-23.1,849.6z"/>
</g>
<g id="Ebene_5">
	<polygon fill="#592A0F" points="310.6,908.7 315.4,913.9 299.4,913.9 294.7,908.9 	"/>
	<polygon fill="#723710" points="392,891.9 403.7,911.1 354.6,912.2 347.3,891.9 	"/>
	<polygon fill="#723710" points="397.1,840.3 395.4,888.2 399.3,870.3 403.6,888.1 	"/>
	<polygon fill="#723710" points="1169.5,887.5 1176.6,890.9 1184.8,890.9 1178.3,887.6 	"/>
	<polygon fill="#723710" points="294.1,907.9 300.1,914.7 259.6,915.4 252.8,907.9 	"/>
	<polygon fill="#723710" points="315.8,923.7 319.3,929.9 304.4,929.9 301.2,923.5 	"/>
	<polygon fill="#723710" points="333.2,904.8 341.4,907.7 326.5,913 320,910.2 	"/>
	<polygon fill="#723710" points="235,900.8 237.5,907.7 256.7,907 250.3,900.9 	"/>
	<polygon fill="#723710" points="310.3,873.3 313.4,875.9 323.5,875.4 320.1,872.5 	"/>
	<polygon fill="#723710" points="1166.6,883 1160.6,887.9 1149.7,887.3 1154.8,882.4 	"/>
	<polygon fill="#723710" points="580.4,894.7 577,901.9 582.8,902 587.9,898 592.7,902 597.8,902.1 602.3,895.3 	"/>
	<polygon fill="#723710" points="541.9,905.8 549.4,909.3 556.5,907.9 549.4,904.7 	"/>
	<polygon fill="#723710" points="534,895.4 530.5,899 548.1,900.2 550.8,896.2 	"/>
	<polygon fill="#723710" points="356,916.9 354.6,922.3 348.9,929.7 330,926.5 341,915.5 	"/>
	<polygon fill="#723710" points="360.4,914.9 366.9,923 377.7,922.7 372.1,914.3 	"/>
	<polygon fill="#592A0F" points="395.7,887.2 393,870.2 389.2,886.1 397.2,839.9 	"/>
	<polygon fill="#592A0F" points="347.4,891.8 339.2,911.1 354.6,912.3 	"/>
	<polygon fill="#592A0F" points="356,916.9 354.6,922.3 362.7,922 	"/>
	<polygon fill="#592A0F" points="308.4,914.8 301.7,919.7 312.2,920.6 320.1,915.9 	"/>
	<polygon fill="#592A0F" points="359.1,930.2 353.6,933.1 351.2,935.7 358.2,932.2 366.4,936.9 367.6,934.6 	"/>
</g>
</svg>
